G04 #@! TF.FileFunction,Copper,L1,Top,Signal*
%FSLAX46Y46*%
G04 Gerber Fmt 4.6, Leading zero omitted, Abs format (unit mm)*
G04 Created by KiCad (PCBNEW 4.0.5) date Thu Feb  9 17:30:12 2017*
%MOMM*%
%LPD*%
G01*
G04 APERTURE LIST*
%ADD10C,0.100000*%
%ADD11C,0.600000*%
%ADD12R,0.600000X1.550000*%
%ADD13C,0.750000*%
%ADD14C,4.064000*%
%ADD15R,1.750000X1.750000*%
%ADD16C,1.750000*%
%ADD17R,1.250000X1.500000*%
%ADD18R,0.910000X1.220000*%
%ADD19R,1.220000X0.910000*%
%ADD20R,1.198880X1.198880*%
%ADD21R,2.032000X1.727200*%
%ADD22O,2.032000X1.727200*%
%ADD23R,1.727200X2.032000*%
%ADD24O,1.727200X2.032000*%
%ADD25R,1.500000X1.300000*%
%ADD26R,1.600000X2.000000*%
%ADD27R,1.200000X0.600000*%
%ADD28R,0.600000X1.200000*%
%ADD29C,1.500000*%
%ADD30C,0.250000*%
%ADD31C,0.300000*%
G04 APERTURE END LIST*
D10*
D11*
X155000000Y-97500000D03*
X160000000Y-92500000D03*
X152500000Y-95000000D03*
X157500000Y-95000000D03*
X155000000Y-95000000D03*
X160000000Y-97500000D03*
X160000000Y-95000000D03*
X160000000Y-100000000D03*
X167500000Y-103500000D03*
X160000000Y-105800000D03*
X167500000Y-97500000D03*
X156250000Y-114500000D03*
X162500000Y-112500000D03*
X165000000Y-112500000D03*
X165000000Y-115000000D03*
X167500000Y-115000000D03*
X167500000Y-112500000D03*
X150000000Y-120000000D03*
X152500000Y-120000000D03*
X145000000Y-117500000D03*
X150000000Y-117500000D03*
X152500000Y-117500000D03*
X155000000Y-117500000D03*
X157500000Y-117500000D03*
X160000000Y-112500000D03*
X157500000Y-112500000D03*
X162500000Y-107500000D03*
X165000000Y-110000000D03*
X167500000Y-107500000D03*
X165000000Y-107500000D03*
X158000000Y-107500000D03*
X165000000Y-117500000D03*
X160000000Y-120000000D03*
D12*
X163905000Y-110800000D03*
X162635000Y-110800000D03*
X161365000Y-110800000D03*
X160095000Y-110800000D03*
X160095000Y-116200000D03*
X161365000Y-116200000D03*
X162635000Y-116200000D03*
X163905000Y-116200000D03*
D13*
X150400000Y-103800000D03*
X153800000Y-103800000D03*
X148500000Y-116000000D03*
X147500000Y-116000000D03*
D11*
X131500000Y-101000000D03*
X131500000Y-98500000D03*
X134000000Y-101000000D03*
X134000000Y-98500000D03*
X156000000Y-106000000D03*
X151000000Y-112000000D03*
X153000000Y-101000000D03*
X140500000Y-101000000D03*
X140500000Y-98500000D03*
X157500000Y-92500000D03*
X167500000Y-132500000D03*
X165000000Y-132500000D03*
X162500000Y-132500000D03*
X160000000Y-132500000D03*
X157500000Y-132500000D03*
X155000000Y-132500000D03*
X152500000Y-132500000D03*
X150000000Y-132500000D03*
X147500000Y-132500000D03*
X145000000Y-132500000D03*
X142500000Y-132500000D03*
X140000000Y-132500000D03*
X137500000Y-132500000D03*
X135000000Y-132500000D03*
X132500000Y-132500000D03*
X167500000Y-130000000D03*
X155000000Y-130000000D03*
X152500000Y-130000000D03*
X150000000Y-130000000D03*
X142500000Y-130000000D03*
X140000000Y-130000000D03*
X132500000Y-130000000D03*
X172500000Y-127500000D03*
X170000000Y-127500000D03*
X167500000Y-127500000D03*
X155000000Y-127500000D03*
X152500000Y-127500000D03*
X150000000Y-127500000D03*
X145000000Y-127500000D03*
X142500000Y-127500000D03*
X140000000Y-127500000D03*
X137500000Y-127500000D03*
X135000000Y-127500000D03*
X132500000Y-127500000D03*
X130000000Y-127500000D03*
X127500000Y-127500000D03*
X172500000Y-125000000D03*
X170000000Y-125000000D03*
X167500000Y-125000000D03*
X155000000Y-125000000D03*
X150000000Y-125000000D03*
X145000000Y-125000000D03*
X132500000Y-125000000D03*
X130000000Y-125000000D03*
X127500000Y-125000000D03*
X172500000Y-122500000D03*
X170000000Y-122500000D03*
X167500000Y-122500000D03*
X132500000Y-122500000D03*
X130000000Y-122500000D03*
X127500000Y-122500000D03*
X172500000Y-120000000D03*
X170000000Y-120000000D03*
X167500000Y-120000000D03*
X165000000Y-120000000D03*
X157500000Y-120000000D03*
X155000000Y-120000000D03*
X132500000Y-120000000D03*
X130000000Y-120000000D03*
X127500000Y-120000000D03*
X172500000Y-117500000D03*
X170000000Y-117500000D03*
X167500000Y-117500000D03*
X135000000Y-117500000D03*
X132500000Y-117500000D03*
X130000000Y-117500000D03*
X127500000Y-117500000D03*
X172500000Y-115000000D03*
X127500000Y-115000000D03*
X172500000Y-112500000D03*
X132500000Y-112500000D03*
X127500000Y-112500000D03*
X172500000Y-110000000D03*
X167500000Y-110000000D03*
X132500000Y-110000000D03*
X130000000Y-110000000D03*
X127500000Y-110000000D03*
X172500000Y-107500000D03*
X170000000Y-107500000D03*
X150000000Y-107500000D03*
X132500000Y-107500000D03*
X130000000Y-107500000D03*
X127500000Y-107500000D03*
X172500000Y-105000000D03*
X137500000Y-105000000D03*
X127500000Y-105000000D03*
X172500000Y-102500000D03*
X147500000Y-102500000D03*
X127500000Y-102500000D03*
X172500000Y-100000000D03*
X165000000Y-100000000D03*
X157500000Y-100000000D03*
X127500000Y-100000000D03*
X172500000Y-97500000D03*
X165000000Y-97500000D03*
X127500000Y-97500000D03*
X172500000Y-95000000D03*
X167500000Y-95000000D03*
X165000000Y-95000000D03*
X150000000Y-95000000D03*
X145000000Y-95000000D03*
X142500000Y-95000000D03*
X140000000Y-95000000D03*
X137500000Y-95000000D03*
X135000000Y-95000000D03*
X132500000Y-95000000D03*
X127500000Y-95000000D03*
X172500000Y-92500000D03*
X170000000Y-92500000D03*
X167500000Y-92500000D03*
X165000000Y-92500000D03*
X152500000Y-92500000D03*
X150000000Y-92500000D03*
X147500000Y-92500000D03*
X142500000Y-92500000D03*
X140000000Y-92500000D03*
X137500000Y-92500000D03*
X135000000Y-92500000D03*
X132500000Y-92500000D03*
X130000000Y-92500000D03*
X127500000Y-92500000D03*
X167500000Y-90000000D03*
X165000000Y-90000000D03*
X160000000Y-90000000D03*
X150000000Y-90000000D03*
X147500000Y-90000000D03*
X137500000Y-90000000D03*
X135000000Y-90000000D03*
X132500000Y-90000000D03*
X167500000Y-87500000D03*
X165000000Y-87500000D03*
X162500000Y-87500000D03*
X160000000Y-87500000D03*
X157500000Y-87500000D03*
X155000000Y-87500000D03*
X152500000Y-87500000D03*
X150000000Y-87500000D03*
X147500000Y-87500000D03*
X145000000Y-87500000D03*
X142500000Y-87500000D03*
X140000000Y-87500000D03*
X137500000Y-87500000D03*
X135000000Y-87500000D03*
X132500000Y-87500000D03*
D14*
X171000000Y-89000000D03*
X129000000Y-89000000D03*
X129000000Y-131000000D03*
X171000000Y-131000000D03*
D15*
X164660000Y-121780000D03*
D16*
X162160000Y-121780000D03*
X159660000Y-121780000D03*
X157160000Y-121780000D03*
D17*
X154660000Y-102030000D03*
X154660000Y-99530000D03*
D18*
X142175000Y-97280000D03*
X145445000Y-97280000D03*
X142190000Y-99780000D03*
X145460000Y-99780000D03*
D19*
X138510000Y-104145000D03*
X138510000Y-107415000D03*
D20*
X137709020Y-125780000D03*
X135610980Y-125780000D03*
X137660000Y-119780000D03*
X135561960Y-119780000D03*
X137660000Y-122780000D03*
X135561960Y-122780000D03*
D15*
X130160000Y-104780000D03*
D16*
X130160000Y-102280000D03*
X130160000Y-99780000D03*
X130160000Y-97280000D03*
X130160000Y-94780000D03*
D21*
X130160000Y-110240000D03*
D22*
X130160000Y-112780000D03*
X130160000Y-115320000D03*
D15*
X169660000Y-94780000D03*
D16*
X169660000Y-97280000D03*
X169660000Y-99780000D03*
X169660000Y-102280000D03*
X169660000Y-104780000D03*
D21*
X169660000Y-110240000D03*
D22*
X169660000Y-112780000D03*
X169660000Y-115320000D03*
D21*
X162660000Y-90240000D03*
D22*
X162660000Y-92780000D03*
X162660000Y-95320000D03*
X162660000Y-97860000D03*
X162660000Y-100400000D03*
X162660000Y-102940000D03*
D15*
X164660000Y-129780000D03*
D16*
X162160000Y-129780000D03*
X159660000Y-129780000D03*
X157160000Y-129780000D03*
D23*
X139120000Y-90280000D03*
D24*
X141660000Y-90280000D03*
X144200000Y-90280000D03*
D23*
X151620000Y-90280000D03*
D24*
X154160000Y-90280000D03*
X156700000Y-90280000D03*
D25*
X138510000Y-97280000D03*
X135810000Y-97280000D03*
X138510000Y-99780000D03*
X135810000Y-99780000D03*
X138510000Y-102280000D03*
X135810000Y-102280000D03*
X143010000Y-125780000D03*
X140310000Y-125780000D03*
X143010000Y-119780000D03*
X140310000Y-119780000D03*
X143010000Y-122780000D03*
X140310000Y-122780000D03*
D26*
X157660000Y-98080000D03*
X157660000Y-103480000D03*
D27*
X145750000Y-107200000D03*
X145750000Y-108000000D03*
X145750000Y-108800000D03*
X145750000Y-109600000D03*
X145750000Y-110400000D03*
X145750000Y-111200000D03*
X145750000Y-112000000D03*
X145750000Y-112800000D03*
D28*
X147200000Y-114250000D03*
X148000000Y-114250000D03*
X148800000Y-114250000D03*
X149600000Y-114250000D03*
X150400000Y-114250000D03*
X151200000Y-114250000D03*
X152000000Y-114250000D03*
X152800000Y-114250000D03*
D27*
X154250000Y-112800000D03*
X154250000Y-112000000D03*
X154250000Y-111200000D03*
X154250000Y-110400000D03*
X154250000Y-109600000D03*
X154250000Y-108800000D03*
X154250000Y-108000000D03*
X154250000Y-107200000D03*
D28*
X152800000Y-105750000D03*
X152000000Y-105750000D03*
X151200000Y-105750000D03*
X150400000Y-105750000D03*
X149600000Y-105750000D03*
X148800000Y-105750000D03*
X148000000Y-105750000D03*
X147200000Y-105750000D03*
D13*
X146500000Y-116000000D03*
D11*
X141016678Y-111338172D03*
X152508008Y-110005888D03*
X152510000Y-112955000D03*
X147260000Y-106980000D03*
X144532240Y-110426289D03*
X140530472Y-117487168D03*
X137500000Y-118000000D03*
X144516550Y-107122754D03*
X134660000Y-106280000D03*
X133660000Y-109580000D03*
X152860000Y-111980000D03*
X161369941Y-112291929D03*
X158660000Y-101280000D03*
X163890546Y-109340150D03*
X155999998Y-108773183D03*
X159033014Y-110779825D03*
X156000000Y-109642647D03*
X153011882Y-102927110D03*
X142508134Y-116731526D03*
X144522917Y-108722755D03*
X144025010Y-103249990D03*
X141484752Y-116768740D03*
X144510686Y-107922744D03*
D29*
X157160000Y-129780000D02*
X157160000Y-121780000D01*
D30*
X156660000Y-121280000D02*
X157160000Y-121780000D01*
X159660000Y-121780000D02*
X161365000Y-120075000D01*
X161365000Y-120075000D02*
X161365000Y-118669125D01*
X161365000Y-118669125D02*
X161365000Y-116200000D01*
D29*
X159660000Y-121780000D02*
X159660000Y-129780000D01*
D30*
X162160000Y-121780000D02*
X162160000Y-117700000D01*
X162160000Y-117700000D02*
X162635000Y-117225000D01*
X162635000Y-117225000D02*
X162635000Y-116200000D01*
D29*
X162160000Y-121780000D02*
X162160000Y-129780000D01*
D30*
X138510000Y-108831494D02*
X140716679Y-111038173D01*
X138510000Y-107415000D02*
X138510000Y-108831494D01*
X140716679Y-111038173D02*
X141016678Y-111338172D01*
X164660000Y-120300000D02*
X164660000Y-121780000D01*
X163900000Y-117230000D02*
X163900000Y-119540000D01*
X163900000Y-119540000D02*
X164660000Y-120300000D01*
X163905000Y-116200000D02*
X163905000Y-117225000D01*
X163905000Y-117225000D02*
X163900000Y-117230000D01*
X154700000Y-98100000D02*
X154660000Y-98140000D01*
X154660000Y-98140000D02*
X154660000Y-99530000D01*
X155965000Y-98100000D02*
X154700000Y-98100000D01*
X157660000Y-98080000D02*
X155985000Y-98080000D01*
X155985000Y-98080000D02*
X155965000Y-98100000D01*
X142387600Y-93700000D02*
X144287600Y-95600000D01*
X145445000Y-95845000D02*
X145200000Y-95600000D01*
X145200000Y-95600000D02*
X144287600Y-95600000D01*
X145445000Y-97280000D02*
X145445000Y-95845000D01*
X164660000Y-130905000D02*
X164600000Y-130965000D01*
X128410000Y-111200000D02*
X128410000Y-118780000D01*
X128400000Y-110300000D02*
X128410000Y-110310000D01*
X128410000Y-110310000D02*
X128410000Y-111200000D01*
X128460000Y-110240000D02*
X128400000Y-110300000D01*
X130160000Y-110240000D02*
X128460000Y-110240000D01*
X130160000Y-104780000D02*
X128520000Y-104780000D01*
X128520000Y-104780000D02*
X128400000Y-104660000D01*
X128400000Y-104660000D02*
X128400000Y-94540000D01*
X128400000Y-94540000D02*
X132660000Y-90280000D01*
X132660000Y-90280000D02*
X139120000Y-90280000D01*
X139120000Y-90280000D02*
X139120000Y-92920000D01*
X139120000Y-92920000D02*
X139900000Y-93700000D01*
X139900000Y-93700000D02*
X142387600Y-93700000D01*
X139120000Y-90280000D02*
X139120000Y-88320000D01*
X139120000Y-88320000D02*
X139140000Y-88300000D01*
X139140000Y-88300000D02*
X151500000Y-88300000D01*
X151500000Y-88300000D02*
X151620000Y-88420000D01*
X151620000Y-88420000D02*
X151620000Y-90280000D01*
X166700000Y-94780000D02*
X166700000Y-92300000D01*
X166700000Y-92300000D02*
X166700000Y-91700000D01*
X166700000Y-90900000D02*
X166700000Y-92300000D01*
X163700000Y-87900000D02*
X166700000Y-90900000D01*
X163600000Y-87900000D02*
X163700000Y-87900000D01*
X164400000Y-88700000D02*
X163700000Y-88000000D01*
X163700000Y-88000000D02*
X163600000Y-87900000D01*
X162660000Y-95320000D02*
X163926000Y-95320000D01*
X163600000Y-87900000D02*
X161300000Y-87900000D01*
X158600000Y-90600000D02*
X158600000Y-91835398D01*
X161300000Y-87900000D02*
X158600000Y-90600000D01*
X158600000Y-91835398D02*
X157660000Y-92775398D01*
X157660000Y-92775398D02*
X157660000Y-98080000D01*
X169660000Y-110240000D02*
X167960000Y-110240000D01*
X167960000Y-110240000D02*
X167500000Y-110700000D01*
X167500000Y-110700000D02*
X167600000Y-110600000D01*
X166400000Y-112600000D02*
X167500000Y-111500000D01*
X167500000Y-111500000D02*
X167500000Y-110700000D01*
X162870000Y-112600000D02*
X166400000Y-112600000D01*
X162635000Y-112365000D02*
X162870000Y-112600000D01*
X162635000Y-110800000D02*
X162635000Y-112365000D01*
X152800000Y-114250000D02*
X152800000Y-114550000D01*
X152210001Y-110303895D02*
X152508008Y-110005888D01*
X152210001Y-112655001D02*
X152210001Y-110303895D01*
X152510000Y-112955000D02*
X152210001Y-112655001D01*
X143400000Y-104200000D02*
X144950000Y-105750000D01*
X144950000Y-105750000D02*
X147200000Y-105750000D01*
X143400000Y-101135000D02*
X143400000Y-104200000D01*
X145460000Y-99780000D02*
X144755000Y-99780000D01*
X144755000Y-99780000D02*
X143400000Y-101135000D01*
X164660000Y-129780000D02*
X165785000Y-129780000D01*
X165785000Y-129780000D02*
X172160000Y-123405000D01*
X164660000Y-130905000D02*
X164660000Y-129780000D01*
D29*
X164660000Y-129780000D02*
X164660000Y-121780000D01*
D30*
X172160000Y-123405000D02*
X172160000Y-122462000D01*
X162943000Y-132622000D02*
X164660000Y-130905000D01*
X131285000Y-104780000D02*
X130160000Y-104780000D01*
X135015000Y-104780000D02*
X131285000Y-104780000D01*
X137650000Y-107415000D02*
X135015000Y-104780000D01*
X138510000Y-107415000D02*
X137650000Y-107415000D01*
X152800000Y-114250000D02*
X152800000Y-113245000D01*
X152800000Y-113245000D02*
X152510000Y-112955000D01*
X147260000Y-106980000D02*
X147260000Y-105810000D01*
X147260000Y-105810000D02*
X147200000Y-105750000D01*
X134280000Y-132622000D02*
X154854000Y-132622000D01*
X154854000Y-132622000D02*
X162943000Y-132622000D01*
X172160000Y-122462000D02*
X172160000Y-119780000D01*
X128410000Y-118780000D02*
X128410000Y-126752000D01*
X128410000Y-126752000D02*
X134280000Y-132622000D01*
X145445000Y-97280000D02*
X145445000Y-99765000D01*
X145445000Y-99765000D02*
X145460000Y-99780000D01*
X135561960Y-119780000D02*
X129410000Y-119780000D01*
X129410000Y-119780000D02*
X128410000Y-118780000D01*
X172160000Y-119780000D02*
X172160000Y-112587600D01*
X135561960Y-122780000D02*
X135561960Y-125730980D01*
X135561960Y-125730980D02*
X135610980Y-125780000D01*
X135561960Y-119780000D02*
X135561960Y-122780000D01*
X172160000Y-112587600D02*
X169812400Y-110240000D01*
X169812400Y-110240000D02*
X169660000Y-110240000D01*
X162660000Y-95320000D02*
X166160000Y-95320000D01*
X169660000Y-94780000D02*
X166700000Y-94780000D01*
X166700000Y-94780000D02*
X166160000Y-95320000D01*
X172410000Y-107642400D02*
X172410000Y-96405000D01*
X172410000Y-96405000D02*
X170785000Y-94780000D01*
X170785000Y-94780000D02*
X169660000Y-94780000D01*
X169812400Y-110240000D02*
X172410000Y-107642400D01*
X130160000Y-110240000D02*
X130160000Y-104780000D01*
X144558529Y-110400000D02*
X144532240Y-110426289D01*
X145750000Y-110400000D02*
X144558529Y-110400000D01*
X143010000Y-124880000D02*
X149290000Y-118600000D01*
X149290000Y-118600000D02*
X158995000Y-118600000D01*
X158995000Y-118600000D02*
X160095000Y-117500000D01*
X160095000Y-117500000D02*
X160095000Y-116200000D01*
X143010000Y-125780000D02*
X143010000Y-124880000D01*
X140830471Y-117787167D02*
X140530472Y-117487168D01*
X137500000Y-118000000D02*
X138012832Y-117487168D01*
X140106208Y-117487168D02*
X140530472Y-117487168D01*
X141860000Y-123730000D02*
X141860000Y-118816696D01*
X138012832Y-117487168D02*
X140106208Y-117487168D01*
X141860000Y-118816696D02*
X140830471Y-117787167D01*
X143010000Y-124880000D02*
X141860000Y-123730000D01*
X145750000Y-107200000D02*
X144593796Y-107200000D01*
X144593796Y-107200000D02*
X144516550Y-107122754D01*
X133660000Y-109580000D02*
X133660000Y-107280000D01*
X133660000Y-107280000D02*
X134660000Y-106280000D01*
X152860000Y-111980000D02*
X153680000Y-112800000D01*
X153680000Y-112800000D02*
X154250000Y-112800000D01*
X161365000Y-112286988D02*
X161369941Y-112291929D01*
X161365000Y-110800000D02*
X161365000Y-112286988D01*
X150484999Y-109605001D02*
X156610000Y-103480000D01*
X145750000Y-109600000D02*
X146600000Y-109600000D01*
X146605001Y-109605001D02*
X150484999Y-109605001D01*
X146600000Y-109600000D02*
X146605001Y-109605001D01*
X156610000Y-103480000D02*
X157660000Y-103480000D01*
X158660000Y-101280000D02*
X157660000Y-102280000D01*
X157660000Y-102280000D02*
X157660000Y-103480000D01*
X154660000Y-102030000D02*
X156410000Y-102030000D01*
X156410000Y-102030000D02*
X157660000Y-103280000D01*
X157660000Y-103280000D02*
X157660000Y-103480000D01*
X143495889Y-109080000D02*
X143907230Y-109491341D01*
X143907230Y-109491341D02*
X143907230Y-110836945D01*
X144270285Y-111200000D02*
X145750000Y-111200000D01*
X143907230Y-110836945D02*
X144270285Y-111200000D01*
X142749991Y-100890009D02*
X142749991Y-108334102D01*
X143060000Y-100580000D02*
X142749991Y-100890009D01*
X143060000Y-99025000D02*
X143060000Y-100580000D01*
X142749991Y-108334102D02*
X143495889Y-109080000D01*
X142175000Y-98140000D02*
X143060000Y-99025000D01*
X142175000Y-97280000D02*
X142175000Y-98140000D01*
X143495889Y-109080000D02*
X143495888Y-109080000D01*
X138510000Y-97280000D02*
X142175000Y-97280000D01*
X143457219Y-109677741D02*
X143457219Y-111316183D01*
X142190000Y-108410522D02*
X143457219Y-109677741D01*
X142190000Y-99780000D02*
X142190000Y-108410522D01*
X144141036Y-112000000D02*
X144900000Y-112000000D01*
X143457219Y-111316183D02*
X144141036Y-112000000D01*
X144900000Y-112000000D02*
X145750000Y-112000000D01*
X138510000Y-99780000D02*
X142190000Y-99780000D01*
X141660000Y-103580000D02*
X140360000Y-102280000D01*
X143007208Y-109927208D02*
X141660000Y-108580000D01*
X145750000Y-112800000D02*
X144254996Y-112800000D01*
X143007208Y-111552212D02*
X143007208Y-109927208D01*
X144254996Y-112800000D02*
X143007208Y-111552212D01*
X141660000Y-108580000D02*
X141660000Y-103580000D01*
X140360000Y-102280000D02*
X138510000Y-102280000D01*
X138510000Y-104145000D02*
X138510000Y-102280000D01*
X140310000Y-122780000D02*
X137660000Y-122780000D01*
X163905000Y-109354604D02*
X163890546Y-109340150D01*
X163905000Y-110800000D02*
X163905000Y-109354604D01*
X155973181Y-108800000D02*
X155999998Y-108773183D01*
X154250000Y-108800000D02*
X155973181Y-108800000D01*
X160095000Y-110800000D02*
X159053189Y-110800000D01*
X159053189Y-110800000D02*
X159033014Y-110779825D01*
X155957353Y-109600000D02*
X156000000Y-109642647D01*
X154250000Y-109600000D02*
X155957353Y-109600000D01*
X135810000Y-97280000D02*
X130160000Y-97280000D01*
X130160000Y-99780000D02*
X135810000Y-99780000D01*
X130160000Y-102280000D02*
X135810000Y-102280000D01*
X154250000Y-107200000D02*
X156250811Y-107200000D01*
X156250811Y-107200000D02*
X159300000Y-104150811D01*
X159300000Y-104150811D02*
X159300000Y-94400000D01*
X159300000Y-94400000D02*
X160920000Y-92780000D01*
X160920000Y-92780000D02*
X162660000Y-92780000D01*
X154250000Y-108000000D02*
X156087222Y-108000000D01*
X156087222Y-108000000D02*
X161318990Y-102768232D01*
X161318990Y-102768232D02*
X161318990Y-99048610D01*
X161318990Y-99048610D02*
X162507600Y-97860000D01*
X162507600Y-97860000D02*
X162660000Y-97860000D01*
X152000000Y-105750000D02*
X152000000Y-97590000D01*
X152000000Y-97590000D02*
X154000000Y-95590000D01*
X154000000Y-95590000D02*
X154000000Y-94500000D01*
X154000000Y-94500000D02*
X156700000Y-91800000D01*
X156700000Y-91800000D02*
X156700000Y-90280000D01*
X152711883Y-103227109D02*
X153011882Y-102927110D01*
X152000000Y-103938992D02*
X152711883Y-103227109D01*
X152000000Y-105750000D02*
X152000000Y-103938992D01*
X130160000Y-115320000D02*
X131820000Y-115320000D01*
X131820000Y-115320000D02*
X132560000Y-114580000D01*
X132560000Y-114580000D02*
X143580000Y-114580000D01*
X143580000Y-114580000D02*
X146000000Y-117000000D01*
X146000000Y-117000000D02*
X149000000Y-117000000D01*
X149000000Y-117000000D02*
X149600000Y-116400000D01*
X149600000Y-116400000D02*
X149600000Y-114250000D01*
X150400000Y-114250000D02*
X150400000Y-113400000D01*
X150400000Y-113400000D02*
X149930000Y-112930000D01*
X132626000Y-113980000D02*
X131426000Y-112780000D01*
X149930000Y-112930000D02*
X147034998Y-112930000D01*
X147034998Y-112930000D02*
X146284998Y-113680000D01*
X146284998Y-113680000D02*
X146260000Y-113680000D01*
X146260000Y-113680000D02*
X145960000Y-113980000D01*
X145960000Y-113980000D02*
X132626000Y-113980000D01*
X131426000Y-112780000D02*
X130160000Y-112780000D01*
X169660000Y-102280000D02*
X166520000Y-102280000D01*
X166520000Y-102280000D02*
X156800000Y-112000000D01*
X156800000Y-112000000D02*
X154250000Y-112000000D01*
X168785001Y-100654999D02*
X169660000Y-99780000D01*
X167789989Y-101650011D02*
X168785001Y-100654999D01*
X166513579Y-101650011D02*
X167789989Y-101650011D01*
X156963590Y-111200000D02*
X166513579Y-101650011D01*
X154250000Y-111200000D02*
X156963590Y-111200000D01*
X157033348Y-110400000D02*
X154250000Y-110400000D01*
X166233348Y-101200000D02*
X157033348Y-110400000D01*
X169660000Y-97280000D02*
X166233348Y-100706652D01*
X166233348Y-100706652D02*
X166233348Y-101200000D01*
X154250000Y-110400000D02*
X156604011Y-110400000D01*
X151200000Y-114250000D02*
X151200000Y-115100000D01*
X152300000Y-116200000D02*
X156750000Y-116200000D01*
X151200000Y-115100000D02*
X152300000Y-116200000D01*
X156750000Y-116200000D02*
X158950000Y-114000000D01*
X158950000Y-114000000D02*
X168300000Y-114000000D01*
X169620000Y-115320000D02*
X169660000Y-115320000D01*
X168300000Y-114000000D02*
X169620000Y-115320000D01*
X169660000Y-115320000D02*
X169660000Y-115160000D01*
X169660000Y-112780000D02*
X169220000Y-112780000D01*
X152500000Y-115600000D02*
X152000000Y-115100000D01*
X169220000Y-112780000D02*
X168450011Y-113549989D01*
X158763600Y-113549989D02*
X156713590Y-115600000D01*
X168450011Y-113549989D02*
X158763600Y-113549989D01*
X156713590Y-115600000D02*
X152500000Y-115600000D01*
X152000000Y-115100000D02*
X152000000Y-114250000D01*
X154160000Y-90280000D02*
X154160000Y-93300000D01*
X153300000Y-95390000D02*
X153300000Y-94160000D01*
X153300000Y-94160000D02*
X154160000Y-93300000D01*
X153300000Y-95390000D02*
X151200000Y-97490000D01*
X151200000Y-97490000D02*
X151200000Y-105750000D01*
X142808133Y-117031525D02*
X142508134Y-116731526D01*
X144085001Y-118308393D02*
X142808133Y-117031525D01*
X144085001Y-120804999D02*
X144085001Y-118308393D01*
X143010000Y-121880000D02*
X144085001Y-120804999D01*
X143010000Y-122780000D02*
X143010000Y-121880000D01*
X145750000Y-108800000D02*
X144600162Y-108800000D01*
X144600162Y-108800000D02*
X144522917Y-108722755D01*
X144449274Y-103249990D02*
X144025010Y-103249990D01*
X148000000Y-104900000D02*
X146349990Y-103249990D01*
X148000000Y-105750000D02*
X148000000Y-104900000D01*
X146349990Y-103249990D02*
X144449274Y-103249990D01*
X141784751Y-117068739D02*
X141484752Y-116768740D01*
X143010000Y-118293988D02*
X141784751Y-117068739D01*
X143010000Y-119780000D02*
X143010000Y-118293988D01*
X144587942Y-108000000D02*
X144510686Y-107922744D01*
X145750000Y-108000000D02*
X144587942Y-108000000D01*
X144200000Y-91546000D02*
X149600000Y-96946000D01*
X149600000Y-105750000D02*
X149600000Y-99430000D01*
X144200000Y-90280000D02*
X144200000Y-91546000D01*
X149600000Y-96946000D02*
X149600000Y-99430000D01*
X141660000Y-90280000D02*
X141660000Y-90432400D01*
X141660000Y-90432400D02*
X148800000Y-97572400D01*
X148800000Y-97572400D02*
X148800000Y-104900000D01*
X148800000Y-104900000D02*
X148800000Y-105750000D01*
X137709020Y-125780000D02*
X140310000Y-125780000D01*
X140310000Y-119780000D02*
X137660000Y-119780000D01*
X147200000Y-114250000D02*
X147200000Y-115300000D01*
X147200000Y-115300000D02*
X146500000Y-116000000D01*
X148000000Y-115500000D02*
X148000000Y-114250000D01*
X147500000Y-116000000D02*
X148000000Y-115500000D01*
X148800000Y-114250000D02*
X148800000Y-115700000D01*
X148800000Y-115700000D02*
X148500000Y-116000000D01*
X153800000Y-103800000D02*
X153800000Y-105300000D01*
X153800000Y-105300000D02*
X153350000Y-105750000D01*
X153350000Y-105750000D02*
X152800000Y-105750000D01*
X150400000Y-105750000D02*
X150400000Y-103800000D01*
D31*
G36*
X174525000Y-134525000D02*
X125475000Y-134525000D01*
X125475000Y-126048500D01*
X134353540Y-126048500D01*
X134353540Y-126510325D01*
X134453715Y-126752167D01*
X134638813Y-126937266D01*
X134880656Y-127037440D01*
X135342480Y-127037440D01*
X135506980Y-126872940D01*
X135506980Y-125884000D01*
X134518040Y-125884000D01*
X134353540Y-126048500D01*
X125475000Y-126048500D01*
X125475000Y-125049675D01*
X134353540Y-125049675D01*
X134353540Y-125511500D01*
X134518040Y-125676000D01*
X135506980Y-125676000D01*
X135506980Y-124687060D01*
X135714980Y-124687060D01*
X135714980Y-125676000D01*
X135734980Y-125676000D01*
X135734980Y-125884000D01*
X135714980Y-125884000D01*
X135714980Y-126872940D01*
X135879480Y-127037440D01*
X136341304Y-127037440D01*
X136583147Y-126937266D01*
X136768245Y-126752167D01*
X136809698Y-126652091D01*
X136817240Y-126663812D01*
X136950909Y-126755144D01*
X137109580Y-126787276D01*
X138308460Y-126787276D01*
X138456691Y-126759384D01*
X138592832Y-126671780D01*
X138684164Y-126538111D01*
X138716296Y-126379440D01*
X138716296Y-126305000D01*
X139152164Y-126305000D01*
X139152164Y-126430000D01*
X139180056Y-126578231D01*
X139267660Y-126714372D01*
X139401329Y-126805704D01*
X139560000Y-126837836D01*
X141060000Y-126837836D01*
X141208231Y-126809944D01*
X141344372Y-126722340D01*
X141435704Y-126588671D01*
X141467836Y-126430000D01*
X141467836Y-125130000D01*
X141439944Y-124981769D01*
X141352340Y-124845628D01*
X141218671Y-124754296D01*
X141060000Y-124722164D01*
X139560000Y-124722164D01*
X139411769Y-124750056D01*
X139275628Y-124837660D01*
X139184296Y-124971329D01*
X139152164Y-125130000D01*
X139152164Y-125255000D01*
X138716296Y-125255000D01*
X138716296Y-125180560D01*
X138688404Y-125032329D01*
X138600800Y-124896188D01*
X138467131Y-124804856D01*
X138308460Y-124772724D01*
X137109580Y-124772724D01*
X136961349Y-124800616D01*
X136825208Y-124888220D01*
X136810474Y-124909783D01*
X136768245Y-124807833D01*
X136583147Y-124622734D01*
X136341304Y-124522560D01*
X135879480Y-124522560D01*
X135714980Y-124687060D01*
X135506980Y-124687060D01*
X135342480Y-124522560D01*
X134880656Y-124522560D01*
X134638813Y-124622734D01*
X134453715Y-124807833D01*
X134353540Y-125049675D01*
X125475000Y-125049675D01*
X125475000Y-123048500D01*
X134304520Y-123048500D01*
X134304520Y-123510325D01*
X134404695Y-123752167D01*
X134589793Y-123937266D01*
X134831636Y-124037440D01*
X135293460Y-124037440D01*
X135457960Y-123872940D01*
X135457960Y-122884000D01*
X134469020Y-122884000D01*
X134304520Y-123048500D01*
X125475000Y-123048500D01*
X125475000Y-122049675D01*
X134304520Y-122049675D01*
X134304520Y-122511500D01*
X134469020Y-122676000D01*
X135457960Y-122676000D01*
X135457960Y-121687060D01*
X135293460Y-121522560D01*
X134831636Y-121522560D01*
X134589793Y-121622734D01*
X134404695Y-121807833D01*
X134304520Y-122049675D01*
X125475000Y-122049675D01*
X125475000Y-120048500D01*
X134304520Y-120048500D01*
X134304520Y-120510325D01*
X134404695Y-120752167D01*
X134589793Y-120937266D01*
X134831636Y-121037440D01*
X135293460Y-121037440D01*
X135457960Y-120872940D01*
X135457960Y-119884000D01*
X134469020Y-119884000D01*
X134304520Y-120048500D01*
X125475000Y-120048500D01*
X125475000Y-119049675D01*
X134304520Y-119049675D01*
X134304520Y-119511500D01*
X134469020Y-119676000D01*
X135457960Y-119676000D01*
X135457960Y-118687060D01*
X135665960Y-118687060D01*
X135665960Y-119676000D01*
X135685960Y-119676000D01*
X135685960Y-119884000D01*
X135665960Y-119884000D01*
X135665960Y-120872940D01*
X135830460Y-121037440D01*
X136292284Y-121037440D01*
X136534127Y-120937266D01*
X136719225Y-120752167D01*
X136760678Y-120652091D01*
X136768220Y-120663812D01*
X136901889Y-120755144D01*
X137060560Y-120787276D01*
X138259440Y-120787276D01*
X138407671Y-120759384D01*
X138543812Y-120671780D01*
X138635144Y-120538111D01*
X138667276Y-120379440D01*
X138667276Y-120305000D01*
X139152164Y-120305000D01*
X139152164Y-120430000D01*
X139180056Y-120578231D01*
X139267660Y-120714372D01*
X139401329Y-120805704D01*
X139560000Y-120837836D01*
X141060000Y-120837836D01*
X141208231Y-120809944D01*
X141335000Y-120728371D01*
X141335000Y-121833780D01*
X141218671Y-121754296D01*
X141060000Y-121722164D01*
X139560000Y-121722164D01*
X139411769Y-121750056D01*
X139275628Y-121837660D01*
X139184296Y-121971329D01*
X139152164Y-122130000D01*
X139152164Y-122255000D01*
X138667276Y-122255000D01*
X138667276Y-122180560D01*
X138639384Y-122032329D01*
X138551780Y-121896188D01*
X138418111Y-121804856D01*
X138259440Y-121772724D01*
X137060560Y-121772724D01*
X136912329Y-121800616D01*
X136776188Y-121888220D01*
X136761454Y-121909783D01*
X136719225Y-121807833D01*
X136534127Y-121622734D01*
X136292284Y-121522560D01*
X135830460Y-121522560D01*
X135665960Y-121687060D01*
X135665960Y-122676000D01*
X135685960Y-122676000D01*
X135685960Y-122884000D01*
X135665960Y-122884000D01*
X135665960Y-123872940D01*
X135830460Y-124037440D01*
X136292284Y-124037440D01*
X136534127Y-123937266D01*
X136719225Y-123752167D01*
X136760678Y-123652091D01*
X136768220Y-123663812D01*
X136901889Y-123755144D01*
X137060560Y-123787276D01*
X138259440Y-123787276D01*
X138407671Y-123759384D01*
X138543812Y-123671780D01*
X138635144Y-123538111D01*
X138667276Y-123379440D01*
X138667276Y-123305000D01*
X139152164Y-123305000D01*
X139152164Y-123430000D01*
X139180056Y-123578231D01*
X139267660Y-123714372D01*
X139401329Y-123805704D01*
X139560000Y-123837836D01*
X141060000Y-123837836D01*
X141208231Y-123809944D01*
X141335000Y-123728371D01*
X141335000Y-123730000D01*
X141374963Y-123930909D01*
X141488769Y-124101231D01*
X142133504Y-124745966D01*
X142111769Y-124750056D01*
X141975628Y-124837660D01*
X141884296Y-124971329D01*
X141852164Y-125130000D01*
X141852164Y-126430000D01*
X141880056Y-126578231D01*
X141967660Y-126714372D01*
X142101329Y-126805704D01*
X142260000Y-126837836D01*
X143760000Y-126837836D01*
X143908231Y-126809944D01*
X144044372Y-126722340D01*
X144135704Y-126588671D01*
X144167836Y-126430000D01*
X144167836Y-125130000D01*
X144139944Y-124981769D01*
X144052340Y-124845628D01*
X143918671Y-124754296D01*
X143884987Y-124747475D01*
X149507462Y-119125000D01*
X158995000Y-119125000D01*
X159195909Y-119085037D01*
X159366231Y-118971231D01*
X160466231Y-117871231D01*
X160580037Y-117700909D01*
X160620000Y-117500000D01*
X160620000Y-117305545D01*
X160679372Y-117267340D01*
X160730055Y-117193162D01*
X160772660Y-117259372D01*
X160840000Y-117305383D01*
X160840000Y-119857538D01*
X160110870Y-120586668D01*
X159914726Y-120505222D01*
X159407499Y-120504779D01*
X158938714Y-120698477D01*
X158579738Y-121056827D01*
X158491172Y-121270117D01*
X158368760Y-120973857D01*
X157968251Y-120572649D01*
X157444693Y-120355248D01*
X156877794Y-120354754D01*
X156353857Y-120571240D01*
X155952649Y-120971749D01*
X155735248Y-121495307D01*
X155734754Y-122062206D01*
X155860000Y-122365325D01*
X155860000Y-129194872D01*
X155735248Y-129495307D01*
X155734754Y-130062206D01*
X155951240Y-130586143D01*
X156351749Y-130987351D01*
X156875307Y-131204752D01*
X157442206Y-131205246D01*
X157966143Y-130988760D01*
X158367351Y-130588251D01*
X158491186Y-130290025D01*
X158578477Y-130501286D01*
X158936827Y-130860262D01*
X159405274Y-131054778D01*
X159912501Y-131055221D01*
X160381286Y-130861523D01*
X160740262Y-130503173D01*
X160910178Y-130093970D01*
X161078477Y-130501286D01*
X161436827Y-130860262D01*
X161905274Y-131054778D01*
X162412501Y-131055221D01*
X162881286Y-130861523D01*
X163240262Y-130503173D01*
X163434778Y-130034726D01*
X163435221Y-129527499D01*
X163310000Y-129224441D01*
X163310000Y-122335225D01*
X163434778Y-122034726D01*
X163435221Y-121527499D01*
X163241523Y-121058714D01*
X162883173Y-120699738D01*
X162685000Y-120617449D01*
X162685000Y-117917462D01*
X163006231Y-117596231D01*
X163120037Y-117425909D01*
X163120920Y-117421472D01*
X163232273Y-117532825D01*
X163474115Y-117633000D01*
X163636500Y-117633000D01*
X163801000Y-117468500D01*
X163801000Y-116304000D01*
X164009000Y-116304000D01*
X164009000Y-117468500D01*
X164173500Y-117633000D01*
X164335885Y-117633000D01*
X164577727Y-117532825D01*
X164762826Y-117347727D01*
X164863000Y-117105884D01*
X164863000Y-116468500D01*
X164698500Y-116304000D01*
X164009000Y-116304000D01*
X163801000Y-116304000D01*
X163781000Y-116304000D01*
X163781000Y-116096000D01*
X163801000Y-116096000D01*
X163801000Y-114931500D01*
X164009000Y-114931500D01*
X164009000Y-116096000D01*
X164698500Y-116096000D01*
X164863000Y-115931500D01*
X164863000Y-115294116D01*
X164762826Y-115052273D01*
X164577727Y-114867175D01*
X164335885Y-114767000D01*
X164173500Y-114767000D01*
X164009000Y-114931500D01*
X163801000Y-114931500D01*
X163636500Y-114767000D01*
X163474115Y-114767000D01*
X163232273Y-114867175D01*
X163057480Y-115041967D01*
X162935000Y-115017164D01*
X162335000Y-115017164D01*
X162186769Y-115045056D01*
X162050628Y-115132660D01*
X161999945Y-115206838D01*
X161957340Y-115140628D01*
X161823671Y-115049296D01*
X161665000Y-115017164D01*
X161065000Y-115017164D01*
X160916769Y-115045056D01*
X160780628Y-115132660D01*
X160729945Y-115206838D01*
X160687340Y-115140628D01*
X160553671Y-115049296D01*
X160395000Y-115017164D01*
X159795000Y-115017164D01*
X159646769Y-115045056D01*
X159510628Y-115132660D01*
X159419296Y-115266329D01*
X159387164Y-115425000D01*
X159387164Y-116975000D01*
X159415056Y-117123231D01*
X159502660Y-117259372D01*
X159556428Y-117296110D01*
X158777538Y-118075000D01*
X149290000Y-118075000D01*
X149089091Y-118114963D01*
X148918769Y-118228769D01*
X144167836Y-122979702D01*
X144167836Y-122130000D01*
X144139944Y-121981769D01*
X144052340Y-121845628D01*
X143918671Y-121754296D01*
X143884987Y-121747475D01*
X144456232Y-121176230D01*
X144570038Y-121005908D01*
X144610001Y-120804999D01*
X144610001Y-118308393D01*
X144570038Y-118107484D01*
X144456232Y-117937162D01*
X143208171Y-116689101D01*
X143208255Y-116592898D01*
X143101911Y-116335526D01*
X142905170Y-116138441D01*
X142647984Y-116031648D01*
X142369506Y-116031405D01*
X142112134Y-116137749D01*
X141977807Y-116271842D01*
X141881788Y-116175655D01*
X141624602Y-116068862D01*
X141346124Y-116068619D01*
X141088752Y-116174963D01*
X140891667Y-116371704D01*
X140784874Y-116628890D01*
X140784694Y-116834782D01*
X140670322Y-116787290D01*
X140391844Y-116787047D01*
X140134472Y-116893391D01*
X140065575Y-116962168D01*
X138012832Y-116962168D01*
X137811923Y-117002131D01*
X137641601Y-117115937D01*
X137457575Y-117299963D01*
X137361372Y-117299879D01*
X137104000Y-117406223D01*
X136906915Y-117602964D01*
X136800122Y-117860150D01*
X136799879Y-118138628D01*
X136906223Y-118396000D01*
X137102964Y-118593085D01*
X137360150Y-118699878D01*
X137638628Y-118700121D01*
X137896000Y-118593777D01*
X138093085Y-118397036D01*
X138199878Y-118139850D01*
X138199963Y-118042499D01*
X138230294Y-118012168D01*
X140065470Y-118012168D01*
X140133436Y-118080253D01*
X140390622Y-118187046D01*
X140487973Y-118187131D01*
X141023006Y-118722164D01*
X139560000Y-118722164D01*
X139411769Y-118750056D01*
X139275628Y-118837660D01*
X139184296Y-118971329D01*
X139152164Y-119130000D01*
X139152164Y-119255000D01*
X138667276Y-119255000D01*
X138667276Y-119180560D01*
X138639384Y-119032329D01*
X138551780Y-118896188D01*
X138418111Y-118804856D01*
X138259440Y-118772724D01*
X137060560Y-118772724D01*
X136912329Y-118800616D01*
X136776188Y-118888220D01*
X136761454Y-118909783D01*
X136719225Y-118807833D01*
X136534127Y-118622734D01*
X136292284Y-118522560D01*
X135830460Y-118522560D01*
X135665960Y-118687060D01*
X135457960Y-118687060D01*
X135293460Y-118522560D01*
X134831636Y-118522560D01*
X134589793Y-118622734D01*
X134404695Y-118807833D01*
X134304520Y-119049675D01*
X125475000Y-119049675D01*
X125475000Y-112780000D01*
X128716259Y-112780000D01*
X128812445Y-113263559D01*
X129086359Y-113673500D01*
X129496300Y-113947414D01*
X129979859Y-114043600D01*
X130340141Y-114043600D01*
X130823700Y-113947414D01*
X131233641Y-113673500D01*
X131371187Y-113467649D01*
X132150538Y-114247000D01*
X131602538Y-114795000D01*
X131479865Y-114795000D01*
X131233641Y-114426500D01*
X130823700Y-114152586D01*
X130340141Y-114056400D01*
X129979859Y-114056400D01*
X129496300Y-114152586D01*
X129086359Y-114426500D01*
X128812445Y-114836441D01*
X128716259Y-115320000D01*
X128812445Y-115803559D01*
X129086359Y-116213500D01*
X129496300Y-116487414D01*
X129979859Y-116583600D01*
X130340141Y-116583600D01*
X130823700Y-116487414D01*
X131233641Y-116213500D01*
X131479865Y-115845000D01*
X131820000Y-115845000D01*
X132020909Y-115805037D01*
X132191231Y-115691231D01*
X132777462Y-115105000D01*
X143362538Y-115105000D01*
X145628769Y-117371231D01*
X145799091Y-117485037D01*
X146000000Y-117525000D01*
X149000000Y-117525000D01*
X149200909Y-117485037D01*
X149371231Y-117371231D01*
X149971231Y-116771231D01*
X150085037Y-116600909D01*
X150125000Y-116400000D01*
X150125000Y-115257836D01*
X150700000Y-115257836D01*
X150706165Y-115256676D01*
X150714963Y-115300909D01*
X150828769Y-115471231D01*
X151928769Y-116571231D01*
X152099091Y-116685037D01*
X152300000Y-116725000D01*
X156750000Y-116725000D01*
X156950909Y-116685037D01*
X157121231Y-116571231D01*
X159167462Y-114525000D01*
X168082538Y-114525000D01*
X168345103Y-114787565D01*
X168312445Y-114836441D01*
X168216259Y-115320000D01*
X168312445Y-115803559D01*
X168586359Y-116213500D01*
X168996300Y-116487414D01*
X169479859Y-116583600D01*
X169840141Y-116583600D01*
X170323700Y-116487414D01*
X170733641Y-116213500D01*
X171007555Y-115803559D01*
X171103741Y-115320000D01*
X171007555Y-114836441D01*
X170733641Y-114426500D01*
X170323700Y-114152586D01*
X169840141Y-114056400D01*
X169479859Y-114056400D01*
X169162074Y-114119612D01*
X168976940Y-113934478D01*
X168996300Y-113947414D01*
X169479859Y-114043600D01*
X169840141Y-114043600D01*
X170323700Y-113947414D01*
X170733641Y-113673500D01*
X171007555Y-113263559D01*
X171103741Y-112780000D01*
X171007555Y-112296441D01*
X170733641Y-111886500D01*
X170323700Y-111612586D01*
X169840141Y-111516400D01*
X169479859Y-111516400D01*
X168996300Y-111612586D01*
X168586359Y-111886500D01*
X168312445Y-112296441D01*
X168216259Y-112780000D01*
X168259608Y-112997930D01*
X168232549Y-113024989D01*
X158763600Y-113024989D01*
X158562691Y-113064952D01*
X158392369Y-113178758D01*
X156496128Y-115075000D01*
X153719016Y-115075000D01*
X153758000Y-114980884D01*
X153758000Y-114518500D01*
X153593500Y-114354000D01*
X152904000Y-114354000D01*
X152904000Y-114374000D01*
X152707836Y-114374000D01*
X152707836Y-113650000D01*
X152696000Y-113587098D01*
X152696000Y-113156500D01*
X152531500Y-112992000D01*
X152369115Y-112992000D01*
X152127273Y-113092175D01*
X151977283Y-113242164D01*
X151700000Y-113242164D01*
X151596329Y-113261671D01*
X151500000Y-113242164D01*
X150900000Y-113242164D01*
X150893835Y-113243324D01*
X150885037Y-113199091D01*
X150771231Y-113028769D01*
X150301231Y-112558769D01*
X150130909Y-112444963D01*
X149930000Y-112405000D01*
X147034998Y-112405000D01*
X146834089Y-112444963D01*
X146757153Y-112496370D01*
X146738329Y-112396329D01*
X146757836Y-112300000D01*
X146757836Y-111700000D01*
X146738329Y-111596329D01*
X146757836Y-111500000D01*
X146757836Y-110900000D01*
X146738329Y-110796329D01*
X146757836Y-110700000D01*
X146757836Y-110130001D01*
X150484999Y-110130001D01*
X150685908Y-110090038D01*
X150856230Y-109976232D01*
X153256464Y-107575998D01*
X153261671Y-107603671D01*
X153242164Y-107700000D01*
X153242164Y-108300000D01*
X153261671Y-108403671D01*
X153242164Y-108500000D01*
X153242164Y-109100000D01*
X153261671Y-109203671D01*
X153242164Y-109300000D01*
X153242164Y-109900000D01*
X153261671Y-110003671D01*
X153242164Y-110100000D01*
X153242164Y-110700000D01*
X153261671Y-110803671D01*
X153242164Y-110900000D01*
X153242164Y-111380740D01*
X152999850Y-111280122D01*
X152721372Y-111279879D01*
X152464000Y-111386223D01*
X152266915Y-111582964D01*
X152160122Y-111840150D01*
X152159879Y-112118628D01*
X152266223Y-112376000D01*
X152462964Y-112573085D01*
X152720150Y-112679878D01*
X152817501Y-112679963D01*
X153129538Y-112992000D01*
X153068500Y-112992000D01*
X152904000Y-113156500D01*
X152904000Y-114146000D01*
X153593500Y-114146000D01*
X153758000Y-113981500D01*
X153758000Y-113519116D01*
X153753328Y-113507836D01*
X154850000Y-113507836D01*
X154998231Y-113479944D01*
X155134372Y-113392340D01*
X155225704Y-113258671D01*
X155257836Y-113100000D01*
X155257836Y-112525000D01*
X156800000Y-112525000D01*
X157000909Y-112485037D01*
X157171231Y-112371231D01*
X158418010Y-111124452D01*
X158439237Y-111175825D01*
X158635978Y-111372910D01*
X158893164Y-111479703D01*
X159171642Y-111479946D01*
X159387164Y-111390894D01*
X159387164Y-111575000D01*
X159415056Y-111723231D01*
X159502660Y-111859372D01*
X159636329Y-111950704D01*
X159795000Y-111982836D01*
X160395000Y-111982836D01*
X160543231Y-111954944D01*
X160679372Y-111867340D01*
X160730055Y-111793162D01*
X160772660Y-111859372D01*
X160796275Y-111875508D01*
X160776856Y-111894893D01*
X160670063Y-112152079D01*
X160669820Y-112430557D01*
X160776164Y-112687929D01*
X160972905Y-112885014D01*
X161230091Y-112991807D01*
X161508569Y-112992050D01*
X161765941Y-112885706D01*
X161963026Y-112688965D01*
X162069819Y-112431779D01*
X162070041Y-112177464D01*
X162204115Y-112233000D01*
X162366500Y-112233000D01*
X162531000Y-112068500D01*
X162531000Y-110904000D01*
X162511000Y-110904000D01*
X162511000Y-110696000D01*
X162531000Y-110696000D01*
X162531000Y-109531500D01*
X162739000Y-109531500D01*
X162739000Y-110696000D01*
X162759000Y-110696000D01*
X162759000Y-110904000D01*
X162739000Y-110904000D01*
X162739000Y-112068500D01*
X162903500Y-112233000D01*
X163065885Y-112233000D01*
X163307727Y-112132825D01*
X163482520Y-111958033D01*
X163605000Y-111982836D01*
X164205000Y-111982836D01*
X164353231Y-111954944D01*
X164489372Y-111867340D01*
X164580704Y-111733671D01*
X164612836Y-111575000D01*
X164612836Y-110025000D01*
X164584944Y-109876769D01*
X164497340Y-109740628D01*
X164485548Y-109732571D01*
X164590424Y-109480000D01*
X164590667Y-109201522D01*
X164484323Y-108944150D01*
X164287582Y-108747065D01*
X164030396Y-108640272D01*
X163751918Y-108640029D01*
X163494546Y-108746373D01*
X163297461Y-108943114D01*
X163190668Y-109200300D01*
X163190478Y-109418608D01*
X163065885Y-109367000D01*
X162903500Y-109367000D01*
X162739000Y-109531500D01*
X162531000Y-109531500D01*
X162366500Y-109367000D01*
X162204115Y-109367000D01*
X161962273Y-109467175D01*
X161787480Y-109641967D01*
X161665000Y-109617164D01*
X161065000Y-109617164D01*
X160916769Y-109645056D01*
X160780628Y-109732660D01*
X160729945Y-109806838D01*
X160687340Y-109740628D01*
X160553671Y-109649296D01*
X160395000Y-109617164D01*
X159925298Y-109617164D01*
X166737462Y-102805000D01*
X168497373Y-102805000D01*
X168578477Y-103001286D01*
X168936827Y-103360262D01*
X169150117Y-103448828D01*
X168853857Y-103571240D01*
X168452649Y-103971749D01*
X168235248Y-104495307D01*
X168234754Y-105062206D01*
X168451240Y-105586143D01*
X168851749Y-105987351D01*
X169375307Y-106204752D01*
X169942206Y-106205246D01*
X170466143Y-105988760D01*
X170867351Y-105588251D01*
X171084752Y-105064693D01*
X171085246Y-104497794D01*
X170868760Y-103973857D01*
X170468251Y-103572649D01*
X170170025Y-103448814D01*
X170381286Y-103361523D01*
X170740262Y-103003173D01*
X170934778Y-102534726D01*
X170935221Y-102027499D01*
X170741523Y-101558714D01*
X170383173Y-101199738D01*
X169973970Y-101029822D01*
X170381286Y-100861523D01*
X170740262Y-100503173D01*
X170934778Y-100034726D01*
X170935221Y-99527499D01*
X170741523Y-99058714D01*
X170383173Y-98699738D01*
X169973970Y-98529822D01*
X170381286Y-98361523D01*
X170740262Y-98003173D01*
X170934778Y-97534726D01*
X170935221Y-97027499D01*
X170741523Y-96558714D01*
X170383173Y-96199738D01*
X169914726Y-96005222D01*
X169407499Y-96004779D01*
X168938714Y-96198477D01*
X168579738Y-96556827D01*
X168385222Y-97025274D01*
X168384779Y-97532501D01*
X168466721Y-97730817D01*
X165862117Y-100335421D01*
X165748311Y-100505743D01*
X165708348Y-100706652D01*
X165708348Y-100982538D01*
X164045199Y-102645687D01*
X164007555Y-102456441D01*
X163733641Y-102046500D01*
X163323700Y-101772586D01*
X162840141Y-101676400D01*
X162479859Y-101676400D01*
X161996300Y-101772586D01*
X161843990Y-101874356D01*
X161843990Y-101465644D01*
X161996300Y-101567414D01*
X162479859Y-101663600D01*
X162840141Y-101663600D01*
X163323700Y-101567414D01*
X163733641Y-101293500D01*
X164007555Y-100883559D01*
X164103741Y-100400000D01*
X164007555Y-99916441D01*
X163733641Y-99506500D01*
X163323700Y-99232586D01*
X162840141Y-99136400D01*
X162479859Y-99136400D01*
X161996300Y-99232586D01*
X161843990Y-99334356D01*
X161843990Y-99266072D01*
X162068322Y-99041740D01*
X162479859Y-99123600D01*
X162840141Y-99123600D01*
X163323700Y-99027414D01*
X163733641Y-98753500D01*
X164007555Y-98343559D01*
X164103741Y-97860000D01*
X164007555Y-97376441D01*
X163733641Y-96966500D01*
X163323700Y-96692586D01*
X162840141Y-96596400D01*
X162479859Y-96596400D01*
X161996300Y-96692586D01*
X161586359Y-96966500D01*
X161312445Y-97376441D01*
X161216259Y-97860000D01*
X161307324Y-98317814D01*
X160947759Y-98677379D01*
X160833953Y-98847701D01*
X160793990Y-99048610D01*
X160793990Y-102550770D01*
X159825000Y-103519760D01*
X159825000Y-94617462D01*
X161137462Y-93305000D01*
X161340135Y-93305000D01*
X161586359Y-93673500D01*
X161996300Y-93947414D01*
X162479859Y-94043600D01*
X162840141Y-94043600D01*
X163323700Y-93947414D01*
X163733641Y-93673500D01*
X164007555Y-93263559D01*
X164103741Y-92780000D01*
X164007555Y-92296441D01*
X163733641Y-91886500D01*
X163323700Y-91612586D01*
X162840141Y-91516400D01*
X162479859Y-91516400D01*
X161996300Y-91612586D01*
X161586359Y-91886500D01*
X161340135Y-92255000D01*
X160920000Y-92255000D01*
X160719091Y-92294963D01*
X160548769Y-92408769D01*
X158928769Y-94028769D01*
X158814963Y-94199091D01*
X158775000Y-94400000D01*
X158775000Y-96498264D01*
X158590885Y-96422000D01*
X157928500Y-96422000D01*
X157764000Y-96586500D01*
X157764000Y-97976000D01*
X157784000Y-97976000D01*
X157784000Y-98184000D01*
X157764000Y-98184000D01*
X157764000Y-99573500D01*
X157928500Y-99738000D01*
X158590885Y-99738000D01*
X158775000Y-99661736D01*
X158775000Y-100580100D01*
X158521372Y-100579879D01*
X158264000Y-100686223D01*
X158066915Y-100882964D01*
X157960122Y-101140150D01*
X157960037Y-101237501D01*
X157288769Y-101908769D01*
X157185613Y-102063151D01*
X156781231Y-101658769D01*
X156610909Y-101544963D01*
X156410000Y-101505000D01*
X155692836Y-101505000D01*
X155692836Y-101280000D01*
X155664944Y-101131769D01*
X155577340Y-100995628D01*
X155463894Y-100918114D01*
X155657727Y-100837825D01*
X155842826Y-100652727D01*
X155943000Y-100410884D01*
X155943000Y-99798500D01*
X155778500Y-99634000D01*
X154764000Y-99634000D01*
X154764000Y-99654000D01*
X154556000Y-99654000D01*
X154556000Y-99634000D01*
X153541500Y-99634000D01*
X153377000Y-99798500D01*
X153377000Y-100410884D01*
X153477174Y-100652727D01*
X153662273Y-100837825D01*
X153857688Y-100918769D01*
X153750628Y-100987660D01*
X153659296Y-101121329D01*
X153627164Y-101280000D01*
X153627164Y-102583156D01*
X153605659Y-102531110D01*
X153408918Y-102334025D01*
X153151732Y-102227232D01*
X152873254Y-102226989D01*
X152615882Y-102333333D01*
X152525000Y-102424056D01*
X152525000Y-98649116D01*
X153377000Y-98649116D01*
X153377000Y-99261500D01*
X153541500Y-99426000D01*
X154556000Y-99426000D01*
X154556000Y-98286500D01*
X154764000Y-98286500D01*
X154764000Y-99426000D01*
X155778500Y-99426000D01*
X155943000Y-99261500D01*
X155943000Y-98649116D01*
X155842826Y-98407273D01*
X155784053Y-98348500D01*
X156202000Y-98348500D01*
X156202000Y-99210884D01*
X156302174Y-99452727D01*
X156487273Y-99637825D01*
X156729115Y-99738000D01*
X157391500Y-99738000D01*
X157556000Y-99573500D01*
X157556000Y-98184000D01*
X156366500Y-98184000D01*
X156202000Y-98348500D01*
X155784053Y-98348500D01*
X155657727Y-98222175D01*
X155415885Y-98122000D01*
X154928500Y-98122000D01*
X154764000Y-98286500D01*
X154556000Y-98286500D01*
X154391500Y-98122000D01*
X153904115Y-98122000D01*
X153662273Y-98222175D01*
X153477174Y-98407273D01*
X153377000Y-98649116D01*
X152525000Y-98649116D01*
X152525000Y-97807462D01*
X153383346Y-96949116D01*
X156202000Y-96949116D01*
X156202000Y-97811500D01*
X156366500Y-97976000D01*
X157556000Y-97976000D01*
X157556000Y-96586500D01*
X157391500Y-96422000D01*
X156729115Y-96422000D01*
X156487273Y-96522175D01*
X156302174Y-96707273D01*
X156202000Y-96949116D01*
X153383346Y-96949116D01*
X154371231Y-95961231D01*
X154485037Y-95790909D01*
X154525000Y-95590000D01*
X154525000Y-94717462D01*
X157071231Y-92171231D01*
X157185037Y-92000909D01*
X157225000Y-91800000D01*
X157225000Y-91599865D01*
X157593500Y-91353641D01*
X157867414Y-90943700D01*
X157963600Y-90460141D01*
X157963600Y-90099859D01*
X157867414Y-89616300D01*
X157707118Y-89376400D01*
X161236164Y-89376400D01*
X161236164Y-91103600D01*
X161264056Y-91251831D01*
X161351660Y-91387972D01*
X161485329Y-91479304D01*
X161644000Y-91511436D01*
X163676000Y-91511436D01*
X163824231Y-91483544D01*
X163960372Y-91395940D01*
X164051704Y-91262271D01*
X164083836Y-91103600D01*
X164083836Y-89376400D01*
X164055944Y-89228169D01*
X163968340Y-89092028D01*
X163834671Y-89000696D01*
X163676000Y-88968564D01*
X161644000Y-88968564D01*
X161495769Y-88996456D01*
X161359628Y-89084060D01*
X161268296Y-89217729D01*
X161236164Y-89376400D01*
X157707118Y-89376400D01*
X157593500Y-89206359D01*
X157183559Y-88932445D01*
X156700000Y-88836259D01*
X156216441Y-88932445D01*
X155806500Y-89206359D01*
X155532586Y-89616300D01*
X155436400Y-90099859D01*
X155436400Y-90460141D01*
X155532586Y-90943700D01*
X155806500Y-91353641D01*
X156164613Y-91592925D01*
X154685000Y-93072538D01*
X154685000Y-91599865D01*
X155053500Y-91353641D01*
X155327414Y-90943700D01*
X155423600Y-90460141D01*
X155423600Y-90099859D01*
X155327414Y-89616300D01*
X155053500Y-89206359D01*
X154643559Y-88932445D01*
X154160000Y-88836259D01*
X153676441Y-88932445D01*
X153266500Y-89206359D01*
X152992586Y-89616300D01*
X152896400Y-90099859D01*
X152896400Y-90460141D01*
X152992586Y-90943700D01*
X153266500Y-91353641D01*
X153635000Y-91599865D01*
X153635000Y-93082538D01*
X152928769Y-93788769D01*
X152814963Y-93959091D01*
X152775000Y-94160000D01*
X152775000Y-95172538D01*
X150828769Y-97118769D01*
X150714963Y-97289091D01*
X150675000Y-97490000D01*
X150675000Y-103075033D01*
X150554833Y-103025135D01*
X150246519Y-103024866D01*
X150125000Y-103075077D01*
X150125000Y-96946000D01*
X150085037Y-96745091D01*
X149971231Y-96574769D01*
X144887649Y-91491187D01*
X145093500Y-91353641D01*
X145367414Y-90943700D01*
X145463600Y-90460141D01*
X145463600Y-90099859D01*
X145367414Y-89616300D01*
X145093500Y-89206359D01*
X144683559Y-88932445D01*
X144200000Y-88836259D01*
X143716441Y-88932445D01*
X143306500Y-89206359D01*
X143032586Y-89616300D01*
X142936400Y-90099859D01*
X142936400Y-90460141D01*
X143032586Y-90943700D01*
X143271859Y-91301797D01*
X142841740Y-90871678D01*
X142923600Y-90460141D01*
X142923600Y-90099859D01*
X142827414Y-89616300D01*
X142553500Y-89206359D01*
X142143559Y-88932445D01*
X141660000Y-88836259D01*
X141176441Y-88932445D01*
X140766500Y-89206359D01*
X140492586Y-89616300D01*
X140396400Y-90099859D01*
X140396400Y-90460141D01*
X140492586Y-90943700D01*
X140766500Y-91353641D01*
X141176441Y-91627555D01*
X141660000Y-91723741D01*
X142117814Y-91632676D01*
X148275000Y-97789862D01*
X148275000Y-104432538D01*
X146721221Y-102878759D01*
X146550899Y-102764953D01*
X146349990Y-102724990D01*
X144490012Y-102724990D01*
X144422046Y-102656905D01*
X144164860Y-102550112D01*
X143886382Y-102549869D01*
X143629010Y-102656213D01*
X143431925Y-102852954D01*
X143325132Y-103110140D01*
X143324889Y-103388618D01*
X143431233Y-103645990D01*
X143627974Y-103843075D01*
X143885160Y-103949868D01*
X144163638Y-103950111D01*
X144421010Y-103843767D01*
X144489907Y-103774990D01*
X146132528Y-103774990D01*
X146849538Y-104492000D01*
X146769115Y-104492000D01*
X146527273Y-104592175D01*
X146342174Y-104777273D01*
X146242000Y-105019116D01*
X146242000Y-105481500D01*
X146406500Y-105646000D01*
X147096000Y-105646000D01*
X147096000Y-105626000D01*
X147292164Y-105626000D01*
X147292164Y-106350000D01*
X147304000Y-106412902D01*
X147304000Y-106843500D01*
X147468500Y-107008000D01*
X147630885Y-107008000D01*
X147872727Y-106907825D01*
X148022717Y-106757836D01*
X148300000Y-106757836D01*
X148403671Y-106738329D01*
X148500000Y-106757836D01*
X149100000Y-106757836D01*
X149203671Y-106738329D01*
X149300000Y-106757836D01*
X149900000Y-106757836D01*
X150003671Y-106738329D01*
X150100000Y-106757836D01*
X150700000Y-106757836D01*
X150803671Y-106738329D01*
X150900000Y-106757836D01*
X151500000Y-106757836D01*
X151603671Y-106738329D01*
X151700000Y-106757836D01*
X152300000Y-106757836D01*
X152403671Y-106738329D01*
X152500000Y-106757836D01*
X152589702Y-106757836D01*
X150267537Y-109080001D01*
X146757836Y-109080001D01*
X146757836Y-108500000D01*
X146738329Y-108396329D01*
X146757836Y-108300000D01*
X146757836Y-107700000D01*
X146738329Y-107596329D01*
X146757836Y-107500000D01*
X146757836Y-107003328D01*
X146769115Y-107008000D01*
X146931500Y-107008000D01*
X147096000Y-106843500D01*
X147096000Y-105854000D01*
X146406500Y-105854000D01*
X146242000Y-106018500D01*
X146242000Y-106480884D01*
X146246672Y-106492164D01*
X145150000Y-106492164D01*
X145001769Y-106520056D01*
X144942233Y-106558366D01*
X144913586Y-106529669D01*
X144656400Y-106422876D01*
X144377922Y-106422633D01*
X144120550Y-106528977D01*
X143923465Y-106725718D01*
X143816672Y-106982904D01*
X143816429Y-107261382D01*
X143922773Y-107518754D01*
X143923669Y-107519651D01*
X143917601Y-107525708D01*
X143810808Y-107782894D01*
X143810565Y-108061372D01*
X143916909Y-108318744D01*
X143928081Y-108329936D01*
X143823039Y-108582905D01*
X143822968Y-108664617D01*
X143274991Y-108116640D01*
X143274991Y-101107471D01*
X143431231Y-100951231D01*
X143545037Y-100780909D01*
X143585000Y-100580000D01*
X143585000Y-100048500D01*
X144347000Y-100048500D01*
X144347000Y-100520885D01*
X144447175Y-100762727D01*
X144632273Y-100947826D01*
X144874116Y-101048000D01*
X145191500Y-101048000D01*
X145356000Y-100883500D01*
X145356000Y-99884000D01*
X145564000Y-99884000D01*
X145564000Y-100883500D01*
X145728500Y-101048000D01*
X146045884Y-101048000D01*
X146287727Y-100947826D01*
X146472825Y-100762727D01*
X146573000Y-100520885D01*
X146573000Y-100048500D01*
X146408500Y-99884000D01*
X145564000Y-99884000D01*
X145356000Y-99884000D01*
X144511500Y-99884000D01*
X144347000Y-100048500D01*
X143585000Y-100048500D01*
X143585000Y-99025000D01*
X143545037Y-98824091D01*
X143431231Y-98653769D01*
X142932813Y-98155351D01*
X143005704Y-98048671D01*
X143037836Y-97890000D01*
X143037836Y-97548500D01*
X144332000Y-97548500D01*
X144332000Y-98020885D01*
X144432175Y-98262727D01*
X144617273Y-98447826D01*
X144823160Y-98533107D01*
X144632273Y-98612174D01*
X144447175Y-98797273D01*
X144347000Y-99039115D01*
X144347000Y-99511500D01*
X144511500Y-99676000D01*
X145356000Y-99676000D01*
X145356000Y-98676500D01*
X145202000Y-98522500D01*
X145341000Y-98383500D01*
X145341000Y-97384000D01*
X145549000Y-97384000D01*
X145549000Y-98383500D01*
X145703000Y-98537500D01*
X145564000Y-98676500D01*
X145564000Y-99676000D01*
X146408500Y-99676000D01*
X146573000Y-99511500D01*
X146573000Y-99039115D01*
X146472825Y-98797273D01*
X146287727Y-98612174D01*
X146081840Y-98526893D01*
X146272727Y-98447826D01*
X146457825Y-98262727D01*
X146558000Y-98020885D01*
X146558000Y-97548500D01*
X146393500Y-97384000D01*
X145549000Y-97384000D01*
X145341000Y-97384000D01*
X144496500Y-97384000D01*
X144332000Y-97548500D01*
X143037836Y-97548500D01*
X143037836Y-96670000D01*
X143013208Y-96539115D01*
X144332000Y-96539115D01*
X144332000Y-97011500D01*
X144496500Y-97176000D01*
X145341000Y-97176000D01*
X145341000Y-96176500D01*
X145549000Y-96176500D01*
X145549000Y-97176000D01*
X146393500Y-97176000D01*
X146558000Y-97011500D01*
X146558000Y-96539115D01*
X146457825Y-96297273D01*
X146272727Y-96112174D01*
X146030884Y-96012000D01*
X145713500Y-96012000D01*
X145549000Y-96176500D01*
X145341000Y-96176500D01*
X145176500Y-96012000D01*
X144859116Y-96012000D01*
X144617273Y-96112174D01*
X144432175Y-96297273D01*
X144332000Y-96539115D01*
X143013208Y-96539115D01*
X143009944Y-96521769D01*
X142922340Y-96385628D01*
X142788671Y-96294296D01*
X142630000Y-96262164D01*
X141720000Y-96262164D01*
X141571769Y-96290056D01*
X141435628Y-96377660D01*
X141344296Y-96511329D01*
X141312164Y-96670000D01*
X141312164Y-96755000D01*
X139667836Y-96755000D01*
X139667836Y-96630000D01*
X139639944Y-96481769D01*
X139552340Y-96345628D01*
X139418671Y-96254296D01*
X139260000Y-96222164D01*
X137760000Y-96222164D01*
X137611769Y-96250056D01*
X137475628Y-96337660D01*
X137384296Y-96471329D01*
X137352164Y-96630000D01*
X137352164Y-97930000D01*
X137380056Y-98078231D01*
X137467660Y-98214372D01*
X137601329Y-98305704D01*
X137760000Y-98337836D01*
X139260000Y-98337836D01*
X139408231Y-98309944D01*
X139544372Y-98222340D01*
X139635704Y-98088671D01*
X139667836Y-97930000D01*
X139667836Y-97805000D01*
X141312164Y-97805000D01*
X141312164Y-97890000D01*
X141340056Y-98038231D01*
X141427660Y-98174372D01*
X141561329Y-98265704D01*
X141679775Y-98289690D01*
X141689963Y-98340909D01*
X141803769Y-98511231D01*
X142054702Y-98762164D01*
X141735000Y-98762164D01*
X141586769Y-98790056D01*
X141450628Y-98877660D01*
X141359296Y-99011329D01*
X141327164Y-99170000D01*
X141327164Y-99255000D01*
X139667836Y-99255000D01*
X139667836Y-99130000D01*
X139639944Y-98981769D01*
X139552340Y-98845628D01*
X139418671Y-98754296D01*
X139260000Y-98722164D01*
X137760000Y-98722164D01*
X137611769Y-98750056D01*
X137475628Y-98837660D01*
X137384296Y-98971329D01*
X137352164Y-99130000D01*
X137352164Y-100430000D01*
X137380056Y-100578231D01*
X137467660Y-100714372D01*
X137601329Y-100805704D01*
X137760000Y-100837836D01*
X139260000Y-100837836D01*
X139408231Y-100809944D01*
X139544372Y-100722340D01*
X139635704Y-100588671D01*
X139667836Y-100430000D01*
X139667836Y-100305000D01*
X141327164Y-100305000D01*
X141327164Y-100390000D01*
X141355056Y-100538231D01*
X141442660Y-100674372D01*
X141576329Y-100765704D01*
X141665000Y-100783661D01*
X141665000Y-102842538D01*
X140731231Y-101908769D01*
X140560909Y-101794963D01*
X140360000Y-101755000D01*
X139667836Y-101755000D01*
X139667836Y-101630000D01*
X139639944Y-101481769D01*
X139552340Y-101345628D01*
X139418671Y-101254296D01*
X139260000Y-101222164D01*
X137760000Y-101222164D01*
X137611769Y-101250056D01*
X137475628Y-101337660D01*
X137384296Y-101471329D01*
X137352164Y-101630000D01*
X137352164Y-102930000D01*
X137380056Y-103078231D01*
X137467660Y-103214372D01*
X137601329Y-103305704D01*
X137720902Y-103329918D01*
X137615628Y-103397660D01*
X137524296Y-103531329D01*
X137492164Y-103690000D01*
X137492164Y-104600000D01*
X137520056Y-104748231D01*
X137607660Y-104884372D01*
X137741329Y-104975704D01*
X137900000Y-105007836D01*
X139120000Y-105007836D01*
X139268231Y-104979944D01*
X139404372Y-104892340D01*
X139495704Y-104758671D01*
X139527836Y-104600000D01*
X139527836Y-103690000D01*
X139499944Y-103541769D01*
X139412340Y-103405628D01*
X139301652Y-103329998D01*
X139408231Y-103309944D01*
X139544372Y-103222340D01*
X139635704Y-103088671D01*
X139667836Y-102930000D01*
X139667836Y-102805000D01*
X140142538Y-102805000D01*
X141135000Y-103797462D01*
X141135000Y-108580000D01*
X141174963Y-108780909D01*
X141288769Y-108951231D01*
X142482208Y-110144670D01*
X142482208Y-111552212D01*
X142522171Y-111753121D01*
X142635977Y-111923443D01*
X143883765Y-113171231D01*
X144054087Y-113285037D01*
X144254996Y-113325000D01*
X144819455Y-113325000D01*
X144857660Y-113384372D01*
X144961028Y-113455000D01*
X132843462Y-113455000D01*
X131797231Y-112408769D01*
X131626909Y-112294963D01*
X131488121Y-112267357D01*
X131233641Y-111886500D01*
X130823700Y-111612586D01*
X130340141Y-111516400D01*
X129979859Y-111516400D01*
X129496300Y-111612586D01*
X129086359Y-111886500D01*
X128812445Y-112296441D01*
X128716259Y-112780000D01*
X125475000Y-112780000D01*
X125475000Y-109718628D01*
X132959879Y-109718628D01*
X133066223Y-109976000D01*
X133262964Y-110173085D01*
X133520150Y-110279878D01*
X133798628Y-110280121D01*
X134056000Y-110173777D01*
X134253085Y-109977036D01*
X134359878Y-109719850D01*
X134360121Y-109441372D01*
X134253777Y-109184000D01*
X134185000Y-109115103D01*
X134185000Y-107683500D01*
X137242000Y-107683500D01*
X137242000Y-108000884D01*
X137342174Y-108242727D01*
X137527273Y-108427825D01*
X137769115Y-108528000D01*
X138241500Y-108528000D01*
X138406000Y-108363500D01*
X138406000Y-107519000D01*
X138614000Y-107519000D01*
X138614000Y-108363500D01*
X138778500Y-108528000D01*
X139250885Y-108528000D01*
X139492727Y-108427825D01*
X139677826Y-108242727D01*
X139778000Y-108000884D01*
X139778000Y-107683500D01*
X139613500Y-107519000D01*
X138614000Y-107519000D01*
X138406000Y-107519000D01*
X137406500Y-107519000D01*
X137242000Y-107683500D01*
X134185000Y-107683500D01*
X134185000Y-107497462D01*
X134702425Y-106980037D01*
X134798628Y-106980121D01*
X135056000Y-106873777D01*
X135100739Y-106829116D01*
X137242000Y-106829116D01*
X137242000Y-107146500D01*
X137406500Y-107311000D01*
X138406000Y-107311000D01*
X138406000Y-106466500D01*
X138614000Y-106466500D01*
X138614000Y-107311000D01*
X139613500Y-107311000D01*
X139778000Y-107146500D01*
X139778000Y-106829116D01*
X139677826Y-106587273D01*
X139492727Y-106402175D01*
X139250885Y-106302000D01*
X138778500Y-106302000D01*
X138614000Y-106466500D01*
X138406000Y-106466500D01*
X138241500Y-106302000D01*
X137769115Y-106302000D01*
X137527273Y-106402175D01*
X137342174Y-106587273D01*
X137242000Y-106829116D01*
X135100739Y-106829116D01*
X135253085Y-106677036D01*
X135359878Y-106419850D01*
X135360121Y-106141372D01*
X135253777Y-105884000D01*
X135057036Y-105686915D01*
X134799850Y-105580122D01*
X134521372Y-105579879D01*
X134264000Y-105686223D01*
X134066915Y-105882964D01*
X133960122Y-106140150D01*
X133960037Y-106237501D01*
X133288769Y-106908769D01*
X133174963Y-107079091D01*
X133135000Y-107280000D01*
X133135000Y-109114998D01*
X133066915Y-109182964D01*
X132960122Y-109440150D01*
X132959879Y-109718628D01*
X125475000Y-109718628D01*
X125475000Y-95062206D01*
X128734754Y-95062206D01*
X128951240Y-95586143D01*
X129351749Y-95987351D01*
X129649975Y-96111186D01*
X129438714Y-96198477D01*
X129079738Y-96556827D01*
X128885222Y-97025274D01*
X128884779Y-97532501D01*
X129078477Y-98001286D01*
X129436827Y-98360262D01*
X129846030Y-98530178D01*
X129438714Y-98698477D01*
X129079738Y-99056827D01*
X128885222Y-99525274D01*
X128884779Y-100032501D01*
X129078477Y-100501286D01*
X129436827Y-100860262D01*
X129846030Y-101030178D01*
X129438714Y-101198477D01*
X129079738Y-101556827D01*
X128885222Y-102025274D01*
X128884779Y-102532501D01*
X129078477Y-103001286D01*
X129436827Y-103360262D01*
X129905274Y-103554778D01*
X130412501Y-103555221D01*
X130881286Y-103361523D01*
X131240262Y-103003173D01*
X131322551Y-102805000D01*
X134652164Y-102805000D01*
X134652164Y-102930000D01*
X134680056Y-103078231D01*
X134767660Y-103214372D01*
X134901329Y-103305704D01*
X135060000Y-103337836D01*
X136560000Y-103337836D01*
X136708231Y-103309944D01*
X136844372Y-103222340D01*
X136935704Y-103088671D01*
X136967836Y-102930000D01*
X136967836Y-101630000D01*
X136939944Y-101481769D01*
X136852340Y-101345628D01*
X136718671Y-101254296D01*
X136560000Y-101222164D01*
X135060000Y-101222164D01*
X134911769Y-101250056D01*
X134775628Y-101337660D01*
X134684296Y-101471329D01*
X134652164Y-101630000D01*
X134652164Y-101755000D01*
X131322627Y-101755000D01*
X131241523Y-101558714D01*
X130883173Y-101199738D01*
X130473970Y-101029822D01*
X130881286Y-100861523D01*
X131240262Y-100503173D01*
X131322551Y-100305000D01*
X134652164Y-100305000D01*
X134652164Y-100430000D01*
X134680056Y-100578231D01*
X134767660Y-100714372D01*
X134901329Y-100805704D01*
X135060000Y-100837836D01*
X136560000Y-100837836D01*
X136708231Y-100809944D01*
X136844372Y-100722340D01*
X136935704Y-100588671D01*
X136967836Y-100430000D01*
X136967836Y-99130000D01*
X136939944Y-98981769D01*
X136852340Y-98845628D01*
X136718671Y-98754296D01*
X136560000Y-98722164D01*
X135060000Y-98722164D01*
X134911769Y-98750056D01*
X134775628Y-98837660D01*
X134684296Y-98971329D01*
X134652164Y-99130000D01*
X134652164Y-99255000D01*
X131322627Y-99255000D01*
X131241523Y-99058714D01*
X130883173Y-98699738D01*
X130473970Y-98529822D01*
X130881286Y-98361523D01*
X131240262Y-98003173D01*
X131322551Y-97805000D01*
X134652164Y-97805000D01*
X134652164Y-97930000D01*
X134680056Y-98078231D01*
X134767660Y-98214372D01*
X134901329Y-98305704D01*
X135060000Y-98337836D01*
X136560000Y-98337836D01*
X136708231Y-98309944D01*
X136844372Y-98222340D01*
X136935704Y-98088671D01*
X136967836Y-97930000D01*
X136967836Y-96630000D01*
X136939944Y-96481769D01*
X136852340Y-96345628D01*
X136718671Y-96254296D01*
X136560000Y-96222164D01*
X135060000Y-96222164D01*
X134911769Y-96250056D01*
X134775628Y-96337660D01*
X134684296Y-96471329D01*
X134652164Y-96630000D01*
X134652164Y-96755000D01*
X131322627Y-96755000D01*
X131241523Y-96558714D01*
X130883173Y-96199738D01*
X130669883Y-96111172D01*
X130966143Y-95988760D01*
X131367351Y-95588251D01*
X131584752Y-95064693D01*
X131585246Y-94497794D01*
X131368760Y-93973857D01*
X130968251Y-93572649D01*
X130444693Y-93355248D01*
X129877794Y-93354754D01*
X129353857Y-93571240D01*
X128952649Y-93971749D01*
X128735248Y-94495307D01*
X128734754Y-95062206D01*
X125475000Y-95062206D01*
X125475000Y-85475000D01*
X174525000Y-85475000D01*
X174525000Y-134525000D01*
X174525000Y-134525000D01*
G37*
X174525000Y-134525000D02*
X125475000Y-134525000D01*
X125475000Y-126048500D01*
X134353540Y-126048500D01*
X134353540Y-126510325D01*
X134453715Y-126752167D01*
X134638813Y-126937266D01*
X134880656Y-127037440D01*
X135342480Y-127037440D01*
X135506980Y-126872940D01*
X135506980Y-125884000D01*
X134518040Y-125884000D01*
X134353540Y-126048500D01*
X125475000Y-126048500D01*
X125475000Y-125049675D01*
X134353540Y-125049675D01*
X134353540Y-125511500D01*
X134518040Y-125676000D01*
X135506980Y-125676000D01*
X135506980Y-124687060D01*
X135714980Y-124687060D01*
X135714980Y-125676000D01*
X135734980Y-125676000D01*
X135734980Y-125884000D01*
X135714980Y-125884000D01*
X135714980Y-126872940D01*
X135879480Y-127037440D01*
X136341304Y-127037440D01*
X136583147Y-126937266D01*
X136768245Y-126752167D01*
X136809698Y-126652091D01*
X136817240Y-126663812D01*
X136950909Y-126755144D01*
X137109580Y-126787276D01*
X138308460Y-126787276D01*
X138456691Y-126759384D01*
X138592832Y-126671780D01*
X138684164Y-126538111D01*
X138716296Y-126379440D01*
X138716296Y-126305000D01*
X139152164Y-126305000D01*
X139152164Y-126430000D01*
X139180056Y-126578231D01*
X139267660Y-126714372D01*
X139401329Y-126805704D01*
X139560000Y-126837836D01*
X141060000Y-126837836D01*
X141208231Y-126809944D01*
X141344372Y-126722340D01*
X141435704Y-126588671D01*
X141467836Y-126430000D01*
X141467836Y-125130000D01*
X141439944Y-124981769D01*
X141352340Y-124845628D01*
X141218671Y-124754296D01*
X141060000Y-124722164D01*
X139560000Y-124722164D01*
X139411769Y-124750056D01*
X139275628Y-124837660D01*
X139184296Y-124971329D01*
X139152164Y-125130000D01*
X139152164Y-125255000D01*
X138716296Y-125255000D01*
X138716296Y-125180560D01*
X138688404Y-125032329D01*
X138600800Y-124896188D01*
X138467131Y-124804856D01*
X138308460Y-124772724D01*
X137109580Y-124772724D01*
X136961349Y-124800616D01*
X136825208Y-124888220D01*
X136810474Y-124909783D01*
X136768245Y-124807833D01*
X136583147Y-124622734D01*
X136341304Y-124522560D01*
X135879480Y-124522560D01*
X135714980Y-124687060D01*
X135506980Y-124687060D01*
X135342480Y-124522560D01*
X134880656Y-124522560D01*
X134638813Y-124622734D01*
X134453715Y-124807833D01*
X134353540Y-125049675D01*
X125475000Y-125049675D01*
X125475000Y-123048500D01*
X134304520Y-123048500D01*
X134304520Y-123510325D01*
X134404695Y-123752167D01*
X134589793Y-123937266D01*
X134831636Y-124037440D01*
X135293460Y-124037440D01*
X135457960Y-123872940D01*
X135457960Y-122884000D01*
X134469020Y-122884000D01*
X134304520Y-123048500D01*
X125475000Y-123048500D01*
X125475000Y-122049675D01*
X134304520Y-122049675D01*
X134304520Y-122511500D01*
X134469020Y-122676000D01*
X135457960Y-122676000D01*
X135457960Y-121687060D01*
X135293460Y-121522560D01*
X134831636Y-121522560D01*
X134589793Y-121622734D01*
X134404695Y-121807833D01*
X134304520Y-122049675D01*
X125475000Y-122049675D01*
X125475000Y-120048500D01*
X134304520Y-120048500D01*
X134304520Y-120510325D01*
X134404695Y-120752167D01*
X134589793Y-120937266D01*
X134831636Y-121037440D01*
X135293460Y-121037440D01*
X135457960Y-120872940D01*
X135457960Y-119884000D01*
X134469020Y-119884000D01*
X134304520Y-120048500D01*
X125475000Y-120048500D01*
X125475000Y-119049675D01*
X134304520Y-119049675D01*
X134304520Y-119511500D01*
X134469020Y-119676000D01*
X135457960Y-119676000D01*
X135457960Y-118687060D01*
X135665960Y-118687060D01*
X135665960Y-119676000D01*
X135685960Y-119676000D01*
X135685960Y-119884000D01*
X135665960Y-119884000D01*
X135665960Y-120872940D01*
X135830460Y-121037440D01*
X136292284Y-121037440D01*
X136534127Y-120937266D01*
X136719225Y-120752167D01*
X136760678Y-120652091D01*
X136768220Y-120663812D01*
X136901889Y-120755144D01*
X137060560Y-120787276D01*
X138259440Y-120787276D01*
X138407671Y-120759384D01*
X138543812Y-120671780D01*
X138635144Y-120538111D01*
X138667276Y-120379440D01*
X138667276Y-120305000D01*
X139152164Y-120305000D01*
X139152164Y-120430000D01*
X139180056Y-120578231D01*
X139267660Y-120714372D01*
X139401329Y-120805704D01*
X139560000Y-120837836D01*
X141060000Y-120837836D01*
X141208231Y-120809944D01*
X141335000Y-120728371D01*
X141335000Y-121833780D01*
X141218671Y-121754296D01*
X141060000Y-121722164D01*
X139560000Y-121722164D01*
X139411769Y-121750056D01*
X139275628Y-121837660D01*
X139184296Y-121971329D01*
X139152164Y-122130000D01*
X139152164Y-122255000D01*
X138667276Y-122255000D01*
X138667276Y-122180560D01*
X138639384Y-122032329D01*
X138551780Y-121896188D01*
X138418111Y-121804856D01*
X138259440Y-121772724D01*
X137060560Y-121772724D01*
X136912329Y-121800616D01*
X136776188Y-121888220D01*
X136761454Y-121909783D01*
X136719225Y-121807833D01*
X136534127Y-121622734D01*
X136292284Y-121522560D01*
X135830460Y-121522560D01*
X135665960Y-121687060D01*
X135665960Y-122676000D01*
X135685960Y-122676000D01*
X135685960Y-122884000D01*
X135665960Y-122884000D01*
X135665960Y-123872940D01*
X135830460Y-124037440D01*
X136292284Y-124037440D01*
X136534127Y-123937266D01*
X136719225Y-123752167D01*
X136760678Y-123652091D01*
X136768220Y-123663812D01*
X136901889Y-123755144D01*
X137060560Y-123787276D01*
X138259440Y-123787276D01*
X138407671Y-123759384D01*
X138543812Y-123671780D01*
X138635144Y-123538111D01*
X138667276Y-123379440D01*
X138667276Y-123305000D01*
X139152164Y-123305000D01*
X139152164Y-123430000D01*
X139180056Y-123578231D01*
X139267660Y-123714372D01*
X139401329Y-123805704D01*
X139560000Y-123837836D01*
X141060000Y-123837836D01*
X141208231Y-123809944D01*
X141335000Y-123728371D01*
X141335000Y-123730000D01*
X141374963Y-123930909D01*
X141488769Y-124101231D01*
X142133504Y-124745966D01*
X142111769Y-124750056D01*
X141975628Y-124837660D01*
X141884296Y-124971329D01*
X141852164Y-125130000D01*
X141852164Y-126430000D01*
X141880056Y-126578231D01*
X141967660Y-126714372D01*
X142101329Y-126805704D01*
X142260000Y-126837836D01*
X143760000Y-126837836D01*
X143908231Y-126809944D01*
X144044372Y-126722340D01*
X144135704Y-126588671D01*
X144167836Y-126430000D01*
X144167836Y-125130000D01*
X144139944Y-124981769D01*
X144052340Y-124845628D01*
X143918671Y-124754296D01*
X143884987Y-124747475D01*
X149507462Y-119125000D01*
X158995000Y-119125000D01*
X159195909Y-119085037D01*
X159366231Y-118971231D01*
X160466231Y-117871231D01*
X160580037Y-117700909D01*
X160620000Y-117500000D01*
X160620000Y-117305545D01*
X160679372Y-117267340D01*
X160730055Y-117193162D01*
X160772660Y-117259372D01*
X160840000Y-117305383D01*
X160840000Y-119857538D01*
X160110870Y-120586668D01*
X159914726Y-120505222D01*
X159407499Y-120504779D01*
X158938714Y-120698477D01*
X158579738Y-121056827D01*
X158491172Y-121270117D01*
X158368760Y-120973857D01*
X157968251Y-120572649D01*
X157444693Y-120355248D01*
X156877794Y-120354754D01*
X156353857Y-120571240D01*
X155952649Y-120971749D01*
X155735248Y-121495307D01*
X155734754Y-122062206D01*
X155860000Y-122365325D01*
X155860000Y-129194872D01*
X155735248Y-129495307D01*
X155734754Y-130062206D01*
X155951240Y-130586143D01*
X156351749Y-130987351D01*
X156875307Y-131204752D01*
X157442206Y-131205246D01*
X157966143Y-130988760D01*
X158367351Y-130588251D01*
X158491186Y-130290025D01*
X158578477Y-130501286D01*
X158936827Y-130860262D01*
X159405274Y-131054778D01*
X159912501Y-131055221D01*
X160381286Y-130861523D01*
X160740262Y-130503173D01*
X160910178Y-130093970D01*
X161078477Y-130501286D01*
X161436827Y-130860262D01*
X161905274Y-131054778D01*
X162412501Y-131055221D01*
X162881286Y-130861523D01*
X163240262Y-130503173D01*
X163434778Y-130034726D01*
X163435221Y-129527499D01*
X163310000Y-129224441D01*
X163310000Y-122335225D01*
X163434778Y-122034726D01*
X163435221Y-121527499D01*
X163241523Y-121058714D01*
X162883173Y-120699738D01*
X162685000Y-120617449D01*
X162685000Y-117917462D01*
X163006231Y-117596231D01*
X163120037Y-117425909D01*
X163120920Y-117421472D01*
X163232273Y-117532825D01*
X163474115Y-117633000D01*
X163636500Y-117633000D01*
X163801000Y-117468500D01*
X163801000Y-116304000D01*
X164009000Y-116304000D01*
X164009000Y-117468500D01*
X164173500Y-117633000D01*
X164335885Y-117633000D01*
X164577727Y-117532825D01*
X164762826Y-117347727D01*
X164863000Y-117105884D01*
X164863000Y-116468500D01*
X164698500Y-116304000D01*
X164009000Y-116304000D01*
X163801000Y-116304000D01*
X163781000Y-116304000D01*
X163781000Y-116096000D01*
X163801000Y-116096000D01*
X163801000Y-114931500D01*
X164009000Y-114931500D01*
X164009000Y-116096000D01*
X164698500Y-116096000D01*
X164863000Y-115931500D01*
X164863000Y-115294116D01*
X164762826Y-115052273D01*
X164577727Y-114867175D01*
X164335885Y-114767000D01*
X164173500Y-114767000D01*
X164009000Y-114931500D01*
X163801000Y-114931500D01*
X163636500Y-114767000D01*
X163474115Y-114767000D01*
X163232273Y-114867175D01*
X163057480Y-115041967D01*
X162935000Y-115017164D01*
X162335000Y-115017164D01*
X162186769Y-115045056D01*
X162050628Y-115132660D01*
X161999945Y-115206838D01*
X161957340Y-115140628D01*
X161823671Y-115049296D01*
X161665000Y-115017164D01*
X161065000Y-115017164D01*
X160916769Y-115045056D01*
X160780628Y-115132660D01*
X160729945Y-115206838D01*
X160687340Y-115140628D01*
X160553671Y-115049296D01*
X160395000Y-115017164D01*
X159795000Y-115017164D01*
X159646769Y-115045056D01*
X159510628Y-115132660D01*
X159419296Y-115266329D01*
X159387164Y-115425000D01*
X159387164Y-116975000D01*
X159415056Y-117123231D01*
X159502660Y-117259372D01*
X159556428Y-117296110D01*
X158777538Y-118075000D01*
X149290000Y-118075000D01*
X149089091Y-118114963D01*
X148918769Y-118228769D01*
X144167836Y-122979702D01*
X144167836Y-122130000D01*
X144139944Y-121981769D01*
X144052340Y-121845628D01*
X143918671Y-121754296D01*
X143884987Y-121747475D01*
X144456232Y-121176230D01*
X144570038Y-121005908D01*
X144610001Y-120804999D01*
X144610001Y-118308393D01*
X144570038Y-118107484D01*
X144456232Y-117937162D01*
X143208171Y-116689101D01*
X143208255Y-116592898D01*
X143101911Y-116335526D01*
X142905170Y-116138441D01*
X142647984Y-116031648D01*
X142369506Y-116031405D01*
X142112134Y-116137749D01*
X141977807Y-116271842D01*
X141881788Y-116175655D01*
X141624602Y-116068862D01*
X141346124Y-116068619D01*
X141088752Y-116174963D01*
X140891667Y-116371704D01*
X140784874Y-116628890D01*
X140784694Y-116834782D01*
X140670322Y-116787290D01*
X140391844Y-116787047D01*
X140134472Y-116893391D01*
X140065575Y-116962168D01*
X138012832Y-116962168D01*
X137811923Y-117002131D01*
X137641601Y-117115937D01*
X137457575Y-117299963D01*
X137361372Y-117299879D01*
X137104000Y-117406223D01*
X136906915Y-117602964D01*
X136800122Y-117860150D01*
X136799879Y-118138628D01*
X136906223Y-118396000D01*
X137102964Y-118593085D01*
X137360150Y-118699878D01*
X137638628Y-118700121D01*
X137896000Y-118593777D01*
X138093085Y-118397036D01*
X138199878Y-118139850D01*
X138199963Y-118042499D01*
X138230294Y-118012168D01*
X140065470Y-118012168D01*
X140133436Y-118080253D01*
X140390622Y-118187046D01*
X140487973Y-118187131D01*
X141023006Y-118722164D01*
X139560000Y-118722164D01*
X139411769Y-118750056D01*
X139275628Y-118837660D01*
X139184296Y-118971329D01*
X139152164Y-119130000D01*
X139152164Y-119255000D01*
X138667276Y-119255000D01*
X138667276Y-119180560D01*
X138639384Y-119032329D01*
X138551780Y-118896188D01*
X138418111Y-118804856D01*
X138259440Y-118772724D01*
X137060560Y-118772724D01*
X136912329Y-118800616D01*
X136776188Y-118888220D01*
X136761454Y-118909783D01*
X136719225Y-118807833D01*
X136534127Y-118622734D01*
X136292284Y-118522560D01*
X135830460Y-118522560D01*
X135665960Y-118687060D01*
X135457960Y-118687060D01*
X135293460Y-118522560D01*
X134831636Y-118522560D01*
X134589793Y-118622734D01*
X134404695Y-118807833D01*
X134304520Y-119049675D01*
X125475000Y-119049675D01*
X125475000Y-112780000D01*
X128716259Y-112780000D01*
X128812445Y-113263559D01*
X129086359Y-113673500D01*
X129496300Y-113947414D01*
X129979859Y-114043600D01*
X130340141Y-114043600D01*
X130823700Y-113947414D01*
X131233641Y-113673500D01*
X131371187Y-113467649D01*
X132150538Y-114247000D01*
X131602538Y-114795000D01*
X131479865Y-114795000D01*
X131233641Y-114426500D01*
X130823700Y-114152586D01*
X130340141Y-114056400D01*
X129979859Y-114056400D01*
X129496300Y-114152586D01*
X129086359Y-114426500D01*
X128812445Y-114836441D01*
X128716259Y-115320000D01*
X128812445Y-115803559D01*
X129086359Y-116213500D01*
X129496300Y-116487414D01*
X129979859Y-116583600D01*
X130340141Y-116583600D01*
X130823700Y-116487414D01*
X131233641Y-116213500D01*
X131479865Y-115845000D01*
X131820000Y-115845000D01*
X132020909Y-115805037D01*
X132191231Y-115691231D01*
X132777462Y-115105000D01*
X143362538Y-115105000D01*
X145628769Y-117371231D01*
X145799091Y-117485037D01*
X146000000Y-117525000D01*
X149000000Y-117525000D01*
X149200909Y-117485037D01*
X149371231Y-117371231D01*
X149971231Y-116771231D01*
X150085037Y-116600909D01*
X150125000Y-116400000D01*
X150125000Y-115257836D01*
X150700000Y-115257836D01*
X150706165Y-115256676D01*
X150714963Y-115300909D01*
X150828769Y-115471231D01*
X151928769Y-116571231D01*
X152099091Y-116685037D01*
X152300000Y-116725000D01*
X156750000Y-116725000D01*
X156950909Y-116685037D01*
X157121231Y-116571231D01*
X159167462Y-114525000D01*
X168082538Y-114525000D01*
X168345103Y-114787565D01*
X168312445Y-114836441D01*
X168216259Y-115320000D01*
X168312445Y-115803559D01*
X168586359Y-116213500D01*
X168996300Y-116487414D01*
X169479859Y-116583600D01*
X169840141Y-116583600D01*
X170323700Y-116487414D01*
X170733641Y-116213500D01*
X171007555Y-115803559D01*
X171103741Y-115320000D01*
X171007555Y-114836441D01*
X170733641Y-114426500D01*
X170323700Y-114152586D01*
X169840141Y-114056400D01*
X169479859Y-114056400D01*
X169162074Y-114119612D01*
X168976940Y-113934478D01*
X168996300Y-113947414D01*
X169479859Y-114043600D01*
X169840141Y-114043600D01*
X170323700Y-113947414D01*
X170733641Y-113673500D01*
X171007555Y-113263559D01*
X171103741Y-112780000D01*
X171007555Y-112296441D01*
X170733641Y-111886500D01*
X170323700Y-111612586D01*
X169840141Y-111516400D01*
X169479859Y-111516400D01*
X168996300Y-111612586D01*
X168586359Y-111886500D01*
X168312445Y-112296441D01*
X168216259Y-112780000D01*
X168259608Y-112997930D01*
X168232549Y-113024989D01*
X158763600Y-113024989D01*
X158562691Y-113064952D01*
X158392369Y-113178758D01*
X156496128Y-115075000D01*
X153719016Y-115075000D01*
X153758000Y-114980884D01*
X153758000Y-114518500D01*
X153593500Y-114354000D01*
X152904000Y-114354000D01*
X152904000Y-114374000D01*
X152707836Y-114374000D01*
X152707836Y-113650000D01*
X152696000Y-113587098D01*
X152696000Y-113156500D01*
X152531500Y-112992000D01*
X152369115Y-112992000D01*
X152127273Y-113092175D01*
X151977283Y-113242164D01*
X151700000Y-113242164D01*
X151596329Y-113261671D01*
X151500000Y-113242164D01*
X150900000Y-113242164D01*
X150893835Y-113243324D01*
X150885037Y-113199091D01*
X150771231Y-113028769D01*
X150301231Y-112558769D01*
X150130909Y-112444963D01*
X149930000Y-112405000D01*
X147034998Y-112405000D01*
X146834089Y-112444963D01*
X146757153Y-112496370D01*
X146738329Y-112396329D01*
X146757836Y-112300000D01*
X146757836Y-111700000D01*
X146738329Y-111596329D01*
X146757836Y-111500000D01*
X146757836Y-110900000D01*
X146738329Y-110796329D01*
X146757836Y-110700000D01*
X146757836Y-110130001D01*
X150484999Y-110130001D01*
X150685908Y-110090038D01*
X150856230Y-109976232D01*
X153256464Y-107575998D01*
X153261671Y-107603671D01*
X153242164Y-107700000D01*
X153242164Y-108300000D01*
X153261671Y-108403671D01*
X153242164Y-108500000D01*
X153242164Y-109100000D01*
X153261671Y-109203671D01*
X153242164Y-109300000D01*
X153242164Y-109900000D01*
X153261671Y-110003671D01*
X153242164Y-110100000D01*
X153242164Y-110700000D01*
X153261671Y-110803671D01*
X153242164Y-110900000D01*
X153242164Y-111380740D01*
X152999850Y-111280122D01*
X152721372Y-111279879D01*
X152464000Y-111386223D01*
X152266915Y-111582964D01*
X152160122Y-111840150D01*
X152159879Y-112118628D01*
X152266223Y-112376000D01*
X152462964Y-112573085D01*
X152720150Y-112679878D01*
X152817501Y-112679963D01*
X153129538Y-112992000D01*
X153068500Y-112992000D01*
X152904000Y-113156500D01*
X152904000Y-114146000D01*
X153593500Y-114146000D01*
X153758000Y-113981500D01*
X153758000Y-113519116D01*
X153753328Y-113507836D01*
X154850000Y-113507836D01*
X154998231Y-113479944D01*
X155134372Y-113392340D01*
X155225704Y-113258671D01*
X155257836Y-113100000D01*
X155257836Y-112525000D01*
X156800000Y-112525000D01*
X157000909Y-112485037D01*
X157171231Y-112371231D01*
X158418010Y-111124452D01*
X158439237Y-111175825D01*
X158635978Y-111372910D01*
X158893164Y-111479703D01*
X159171642Y-111479946D01*
X159387164Y-111390894D01*
X159387164Y-111575000D01*
X159415056Y-111723231D01*
X159502660Y-111859372D01*
X159636329Y-111950704D01*
X159795000Y-111982836D01*
X160395000Y-111982836D01*
X160543231Y-111954944D01*
X160679372Y-111867340D01*
X160730055Y-111793162D01*
X160772660Y-111859372D01*
X160796275Y-111875508D01*
X160776856Y-111894893D01*
X160670063Y-112152079D01*
X160669820Y-112430557D01*
X160776164Y-112687929D01*
X160972905Y-112885014D01*
X161230091Y-112991807D01*
X161508569Y-112992050D01*
X161765941Y-112885706D01*
X161963026Y-112688965D01*
X162069819Y-112431779D01*
X162070041Y-112177464D01*
X162204115Y-112233000D01*
X162366500Y-112233000D01*
X162531000Y-112068500D01*
X162531000Y-110904000D01*
X162511000Y-110904000D01*
X162511000Y-110696000D01*
X162531000Y-110696000D01*
X162531000Y-109531500D01*
X162739000Y-109531500D01*
X162739000Y-110696000D01*
X162759000Y-110696000D01*
X162759000Y-110904000D01*
X162739000Y-110904000D01*
X162739000Y-112068500D01*
X162903500Y-112233000D01*
X163065885Y-112233000D01*
X163307727Y-112132825D01*
X163482520Y-111958033D01*
X163605000Y-111982836D01*
X164205000Y-111982836D01*
X164353231Y-111954944D01*
X164489372Y-111867340D01*
X164580704Y-111733671D01*
X164612836Y-111575000D01*
X164612836Y-110025000D01*
X164584944Y-109876769D01*
X164497340Y-109740628D01*
X164485548Y-109732571D01*
X164590424Y-109480000D01*
X164590667Y-109201522D01*
X164484323Y-108944150D01*
X164287582Y-108747065D01*
X164030396Y-108640272D01*
X163751918Y-108640029D01*
X163494546Y-108746373D01*
X163297461Y-108943114D01*
X163190668Y-109200300D01*
X163190478Y-109418608D01*
X163065885Y-109367000D01*
X162903500Y-109367000D01*
X162739000Y-109531500D01*
X162531000Y-109531500D01*
X162366500Y-109367000D01*
X162204115Y-109367000D01*
X161962273Y-109467175D01*
X161787480Y-109641967D01*
X161665000Y-109617164D01*
X161065000Y-109617164D01*
X160916769Y-109645056D01*
X160780628Y-109732660D01*
X160729945Y-109806838D01*
X160687340Y-109740628D01*
X160553671Y-109649296D01*
X160395000Y-109617164D01*
X159925298Y-109617164D01*
X166737462Y-102805000D01*
X168497373Y-102805000D01*
X168578477Y-103001286D01*
X168936827Y-103360262D01*
X169150117Y-103448828D01*
X168853857Y-103571240D01*
X168452649Y-103971749D01*
X168235248Y-104495307D01*
X168234754Y-105062206D01*
X168451240Y-105586143D01*
X168851749Y-105987351D01*
X169375307Y-106204752D01*
X169942206Y-106205246D01*
X170466143Y-105988760D01*
X170867351Y-105588251D01*
X171084752Y-105064693D01*
X171085246Y-104497794D01*
X170868760Y-103973857D01*
X170468251Y-103572649D01*
X170170025Y-103448814D01*
X170381286Y-103361523D01*
X170740262Y-103003173D01*
X170934778Y-102534726D01*
X170935221Y-102027499D01*
X170741523Y-101558714D01*
X170383173Y-101199738D01*
X169973970Y-101029822D01*
X170381286Y-100861523D01*
X170740262Y-100503173D01*
X170934778Y-100034726D01*
X170935221Y-99527499D01*
X170741523Y-99058714D01*
X170383173Y-98699738D01*
X169973970Y-98529822D01*
X170381286Y-98361523D01*
X170740262Y-98003173D01*
X170934778Y-97534726D01*
X170935221Y-97027499D01*
X170741523Y-96558714D01*
X170383173Y-96199738D01*
X169914726Y-96005222D01*
X169407499Y-96004779D01*
X168938714Y-96198477D01*
X168579738Y-96556827D01*
X168385222Y-97025274D01*
X168384779Y-97532501D01*
X168466721Y-97730817D01*
X165862117Y-100335421D01*
X165748311Y-100505743D01*
X165708348Y-100706652D01*
X165708348Y-100982538D01*
X164045199Y-102645687D01*
X164007555Y-102456441D01*
X163733641Y-102046500D01*
X163323700Y-101772586D01*
X162840141Y-101676400D01*
X162479859Y-101676400D01*
X161996300Y-101772586D01*
X161843990Y-101874356D01*
X161843990Y-101465644D01*
X161996300Y-101567414D01*
X162479859Y-101663600D01*
X162840141Y-101663600D01*
X163323700Y-101567414D01*
X163733641Y-101293500D01*
X164007555Y-100883559D01*
X164103741Y-100400000D01*
X164007555Y-99916441D01*
X163733641Y-99506500D01*
X163323700Y-99232586D01*
X162840141Y-99136400D01*
X162479859Y-99136400D01*
X161996300Y-99232586D01*
X161843990Y-99334356D01*
X161843990Y-99266072D01*
X162068322Y-99041740D01*
X162479859Y-99123600D01*
X162840141Y-99123600D01*
X163323700Y-99027414D01*
X163733641Y-98753500D01*
X164007555Y-98343559D01*
X164103741Y-97860000D01*
X164007555Y-97376441D01*
X163733641Y-96966500D01*
X163323700Y-96692586D01*
X162840141Y-96596400D01*
X162479859Y-96596400D01*
X161996300Y-96692586D01*
X161586359Y-96966500D01*
X161312445Y-97376441D01*
X161216259Y-97860000D01*
X161307324Y-98317814D01*
X160947759Y-98677379D01*
X160833953Y-98847701D01*
X160793990Y-99048610D01*
X160793990Y-102550770D01*
X159825000Y-103519760D01*
X159825000Y-94617462D01*
X161137462Y-93305000D01*
X161340135Y-93305000D01*
X161586359Y-93673500D01*
X161996300Y-93947414D01*
X162479859Y-94043600D01*
X162840141Y-94043600D01*
X163323700Y-93947414D01*
X163733641Y-93673500D01*
X164007555Y-93263559D01*
X164103741Y-92780000D01*
X164007555Y-92296441D01*
X163733641Y-91886500D01*
X163323700Y-91612586D01*
X162840141Y-91516400D01*
X162479859Y-91516400D01*
X161996300Y-91612586D01*
X161586359Y-91886500D01*
X161340135Y-92255000D01*
X160920000Y-92255000D01*
X160719091Y-92294963D01*
X160548769Y-92408769D01*
X158928769Y-94028769D01*
X158814963Y-94199091D01*
X158775000Y-94400000D01*
X158775000Y-96498264D01*
X158590885Y-96422000D01*
X157928500Y-96422000D01*
X157764000Y-96586500D01*
X157764000Y-97976000D01*
X157784000Y-97976000D01*
X157784000Y-98184000D01*
X157764000Y-98184000D01*
X157764000Y-99573500D01*
X157928500Y-99738000D01*
X158590885Y-99738000D01*
X158775000Y-99661736D01*
X158775000Y-100580100D01*
X158521372Y-100579879D01*
X158264000Y-100686223D01*
X158066915Y-100882964D01*
X157960122Y-101140150D01*
X157960037Y-101237501D01*
X157288769Y-101908769D01*
X157185613Y-102063151D01*
X156781231Y-101658769D01*
X156610909Y-101544963D01*
X156410000Y-101505000D01*
X155692836Y-101505000D01*
X155692836Y-101280000D01*
X155664944Y-101131769D01*
X155577340Y-100995628D01*
X155463894Y-100918114D01*
X155657727Y-100837825D01*
X155842826Y-100652727D01*
X155943000Y-100410884D01*
X155943000Y-99798500D01*
X155778500Y-99634000D01*
X154764000Y-99634000D01*
X154764000Y-99654000D01*
X154556000Y-99654000D01*
X154556000Y-99634000D01*
X153541500Y-99634000D01*
X153377000Y-99798500D01*
X153377000Y-100410884D01*
X153477174Y-100652727D01*
X153662273Y-100837825D01*
X153857688Y-100918769D01*
X153750628Y-100987660D01*
X153659296Y-101121329D01*
X153627164Y-101280000D01*
X153627164Y-102583156D01*
X153605659Y-102531110D01*
X153408918Y-102334025D01*
X153151732Y-102227232D01*
X152873254Y-102226989D01*
X152615882Y-102333333D01*
X152525000Y-102424056D01*
X152525000Y-98649116D01*
X153377000Y-98649116D01*
X153377000Y-99261500D01*
X153541500Y-99426000D01*
X154556000Y-99426000D01*
X154556000Y-98286500D01*
X154764000Y-98286500D01*
X154764000Y-99426000D01*
X155778500Y-99426000D01*
X155943000Y-99261500D01*
X155943000Y-98649116D01*
X155842826Y-98407273D01*
X155784053Y-98348500D01*
X156202000Y-98348500D01*
X156202000Y-99210884D01*
X156302174Y-99452727D01*
X156487273Y-99637825D01*
X156729115Y-99738000D01*
X157391500Y-99738000D01*
X157556000Y-99573500D01*
X157556000Y-98184000D01*
X156366500Y-98184000D01*
X156202000Y-98348500D01*
X155784053Y-98348500D01*
X155657727Y-98222175D01*
X155415885Y-98122000D01*
X154928500Y-98122000D01*
X154764000Y-98286500D01*
X154556000Y-98286500D01*
X154391500Y-98122000D01*
X153904115Y-98122000D01*
X153662273Y-98222175D01*
X153477174Y-98407273D01*
X153377000Y-98649116D01*
X152525000Y-98649116D01*
X152525000Y-97807462D01*
X153383346Y-96949116D01*
X156202000Y-96949116D01*
X156202000Y-97811500D01*
X156366500Y-97976000D01*
X157556000Y-97976000D01*
X157556000Y-96586500D01*
X157391500Y-96422000D01*
X156729115Y-96422000D01*
X156487273Y-96522175D01*
X156302174Y-96707273D01*
X156202000Y-96949116D01*
X153383346Y-96949116D01*
X154371231Y-95961231D01*
X154485037Y-95790909D01*
X154525000Y-95590000D01*
X154525000Y-94717462D01*
X157071231Y-92171231D01*
X157185037Y-92000909D01*
X157225000Y-91800000D01*
X157225000Y-91599865D01*
X157593500Y-91353641D01*
X157867414Y-90943700D01*
X157963600Y-90460141D01*
X157963600Y-90099859D01*
X157867414Y-89616300D01*
X157707118Y-89376400D01*
X161236164Y-89376400D01*
X161236164Y-91103600D01*
X161264056Y-91251831D01*
X161351660Y-91387972D01*
X161485329Y-91479304D01*
X161644000Y-91511436D01*
X163676000Y-91511436D01*
X163824231Y-91483544D01*
X163960372Y-91395940D01*
X164051704Y-91262271D01*
X164083836Y-91103600D01*
X164083836Y-89376400D01*
X164055944Y-89228169D01*
X163968340Y-89092028D01*
X163834671Y-89000696D01*
X163676000Y-88968564D01*
X161644000Y-88968564D01*
X161495769Y-88996456D01*
X161359628Y-89084060D01*
X161268296Y-89217729D01*
X161236164Y-89376400D01*
X157707118Y-89376400D01*
X157593500Y-89206359D01*
X157183559Y-88932445D01*
X156700000Y-88836259D01*
X156216441Y-88932445D01*
X155806500Y-89206359D01*
X155532586Y-89616300D01*
X155436400Y-90099859D01*
X155436400Y-90460141D01*
X155532586Y-90943700D01*
X155806500Y-91353641D01*
X156164613Y-91592925D01*
X154685000Y-93072538D01*
X154685000Y-91599865D01*
X155053500Y-91353641D01*
X155327414Y-90943700D01*
X155423600Y-90460141D01*
X155423600Y-90099859D01*
X155327414Y-89616300D01*
X155053500Y-89206359D01*
X154643559Y-88932445D01*
X154160000Y-88836259D01*
X153676441Y-88932445D01*
X153266500Y-89206359D01*
X152992586Y-89616300D01*
X152896400Y-90099859D01*
X152896400Y-90460141D01*
X152992586Y-90943700D01*
X153266500Y-91353641D01*
X153635000Y-91599865D01*
X153635000Y-93082538D01*
X152928769Y-93788769D01*
X152814963Y-93959091D01*
X152775000Y-94160000D01*
X152775000Y-95172538D01*
X150828769Y-97118769D01*
X150714963Y-97289091D01*
X150675000Y-97490000D01*
X150675000Y-103075033D01*
X150554833Y-103025135D01*
X150246519Y-103024866D01*
X150125000Y-103075077D01*
X150125000Y-96946000D01*
X150085037Y-96745091D01*
X149971231Y-96574769D01*
X144887649Y-91491187D01*
X145093500Y-91353641D01*
X145367414Y-90943700D01*
X145463600Y-90460141D01*
X145463600Y-90099859D01*
X145367414Y-89616300D01*
X145093500Y-89206359D01*
X144683559Y-88932445D01*
X144200000Y-88836259D01*
X143716441Y-88932445D01*
X143306500Y-89206359D01*
X143032586Y-89616300D01*
X142936400Y-90099859D01*
X142936400Y-90460141D01*
X143032586Y-90943700D01*
X143271859Y-91301797D01*
X142841740Y-90871678D01*
X142923600Y-90460141D01*
X142923600Y-90099859D01*
X142827414Y-89616300D01*
X142553500Y-89206359D01*
X142143559Y-88932445D01*
X141660000Y-88836259D01*
X141176441Y-88932445D01*
X140766500Y-89206359D01*
X140492586Y-89616300D01*
X140396400Y-90099859D01*
X140396400Y-90460141D01*
X140492586Y-90943700D01*
X140766500Y-91353641D01*
X141176441Y-91627555D01*
X141660000Y-91723741D01*
X142117814Y-91632676D01*
X148275000Y-97789862D01*
X148275000Y-104432538D01*
X146721221Y-102878759D01*
X146550899Y-102764953D01*
X146349990Y-102724990D01*
X144490012Y-102724990D01*
X144422046Y-102656905D01*
X144164860Y-102550112D01*
X143886382Y-102549869D01*
X143629010Y-102656213D01*
X143431925Y-102852954D01*
X143325132Y-103110140D01*
X143324889Y-103388618D01*
X143431233Y-103645990D01*
X143627974Y-103843075D01*
X143885160Y-103949868D01*
X144163638Y-103950111D01*
X144421010Y-103843767D01*
X144489907Y-103774990D01*
X146132528Y-103774990D01*
X146849538Y-104492000D01*
X146769115Y-104492000D01*
X146527273Y-104592175D01*
X146342174Y-104777273D01*
X146242000Y-105019116D01*
X146242000Y-105481500D01*
X146406500Y-105646000D01*
X147096000Y-105646000D01*
X147096000Y-105626000D01*
X147292164Y-105626000D01*
X147292164Y-106350000D01*
X147304000Y-106412902D01*
X147304000Y-106843500D01*
X147468500Y-107008000D01*
X147630885Y-107008000D01*
X147872727Y-106907825D01*
X148022717Y-106757836D01*
X148300000Y-106757836D01*
X148403671Y-106738329D01*
X148500000Y-106757836D01*
X149100000Y-106757836D01*
X149203671Y-106738329D01*
X149300000Y-106757836D01*
X149900000Y-106757836D01*
X150003671Y-106738329D01*
X150100000Y-106757836D01*
X150700000Y-106757836D01*
X150803671Y-106738329D01*
X150900000Y-106757836D01*
X151500000Y-106757836D01*
X151603671Y-106738329D01*
X151700000Y-106757836D01*
X152300000Y-106757836D01*
X152403671Y-106738329D01*
X152500000Y-106757836D01*
X152589702Y-106757836D01*
X150267537Y-109080001D01*
X146757836Y-109080001D01*
X146757836Y-108500000D01*
X146738329Y-108396329D01*
X146757836Y-108300000D01*
X146757836Y-107700000D01*
X146738329Y-107596329D01*
X146757836Y-107500000D01*
X146757836Y-107003328D01*
X146769115Y-107008000D01*
X146931500Y-107008000D01*
X147096000Y-106843500D01*
X147096000Y-105854000D01*
X146406500Y-105854000D01*
X146242000Y-106018500D01*
X146242000Y-106480884D01*
X146246672Y-106492164D01*
X145150000Y-106492164D01*
X145001769Y-106520056D01*
X144942233Y-106558366D01*
X144913586Y-106529669D01*
X144656400Y-106422876D01*
X144377922Y-106422633D01*
X144120550Y-106528977D01*
X143923465Y-106725718D01*
X143816672Y-106982904D01*
X143816429Y-107261382D01*
X143922773Y-107518754D01*
X143923669Y-107519651D01*
X143917601Y-107525708D01*
X143810808Y-107782894D01*
X143810565Y-108061372D01*
X143916909Y-108318744D01*
X143928081Y-108329936D01*
X143823039Y-108582905D01*
X143822968Y-108664617D01*
X143274991Y-108116640D01*
X143274991Y-101107471D01*
X143431231Y-100951231D01*
X143545037Y-100780909D01*
X143585000Y-100580000D01*
X143585000Y-100048500D01*
X144347000Y-100048500D01*
X144347000Y-100520885D01*
X144447175Y-100762727D01*
X144632273Y-100947826D01*
X144874116Y-101048000D01*
X145191500Y-101048000D01*
X145356000Y-100883500D01*
X145356000Y-99884000D01*
X145564000Y-99884000D01*
X145564000Y-100883500D01*
X145728500Y-101048000D01*
X146045884Y-101048000D01*
X146287727Y-100947826D01*
X146472825Y-100762727D01*
X146573000Y-100520885D01*
X146573000Y-100048500D01*
X146408500Y-99884000D01*
X145564000Y-99884000D01*
X145356000Y-99884000D01*
X144511500Y-99884000D01*
X144347000Y-100048500D01*
X143585000Y-100048500D01*
X143585000Y-99025000D01*
X143545037Y-98824091D01*
X143431231Y-98653769D01*
X142932813Y-98155351D01*
X143005704Y-98048671D01*
X143037836Y-97890000D01*
X143037836Y-97548500D01*
X144332000Y-97548500D01*
X144332000Y-98020885D01*
X144432175Y-98262727D01*
X144617273Y-98447826D01*
X144823160Y-98533107D01*
X144632273Y-98612174D01*
X144447175Y-98797273D01*
X144347000Y-99039115D01*
X144347000Y-99511500D01*
X144511500Y-99676000D01*
X145356000Y-99676000D01*
X145356000Y-98676500D01*
X145202000Y-98522500D01*
X145341000Y-98383500D01*
X145341000Y-97384000D01*
X145549000Y-97384000D01*
X145549000Y-98383500D01*
X145703000Y-98537500D01*
X145564000Y-98676500D01*
X145564000Y-99676000D01*
X146408500Y-99676000D01*
X146573000Y-99511500D01*
X146573000Y-99039115D01*
X146472825Y-98797273D01*
X146287727Y-98612174D01*
X146081840Y-98526893D01*
X146272727Y-98447826D01*
X146457825Y-98262727D01*
X146558000Y-98020885D01*
X146558000Y-97548500D01*
X146393500Y-97384000D01*
X145549000Y-97384000D01*
X145341000Y-97384000D01*
X144496500Y-97384000D01*
X144332000Y-97548500D01*
X143037836Y-97548500D01*
X143037836Y-96670000D01*
X143013208Y-96539115D01*
X144332000Y-96539115D01*
X144332000Y-97011500D01*
X144496500Y-97176000D01*
X145341000Y-97176000D01*
X145341000Y-96176500D01*
X145549000Y-96176500D01*
X145549000Y-97176000D01*
X146393500Y-97176000D01*
X146558000Y-97011500D01*
X146558000Y-96539115D01*
X146457825Y-96297273D01*
X146272727Y-96112174D01*
X146030884Y-96012000D01*
X145713500Y-96012000D01*
X145549000Y-96176500D01*
X145341000Y-96176500D01*
X145176500Y-96012000D01*
X144859116Y-96012000D01*
X144617273Y-96112174D01*
X144432175Y-96297273D01*
X144332000Y-96539115D01*
X143013208Y-96539115D01*
X143009944Y-96521769D01*
X142922340Y-96385628D01*
X142788671Y-96294296D01*
X142630000Y-96262164D01*
X141720000Y-96262164D01*
X141571769Y-96290056D01*
X141435628Y-96377660D01*
X141344296Y-96511329D01*
X141312164Y-96670000D01*
X141312164Y-96755000D01*
X139667836Y-96755000D01*
X139667836Y-96630000D01*
X139639944Y-96481769D01*
X139552340Y-96345628D01*
X139418671Y-96254296D01*
X139260000Y-96222164D01*
X137760000Y-96222164D01*
X137611769Y-96250056D01*
X137475628Y-96337660D01*
X137384296Y-96471329D01*
X137352164Y-96630000D01*
X137352164Y-97930000D01*
X137380056Y-98078231D01*
X137467660Y-98214372D01*
X137601329Y-98305704D01*
X137760000Y-98337836D01*
X139260000Y-98337836D01*
X139408231Y-98309944D01*
X139544372Y-98222340D01*
X139635704Y-98088671D01*
X139667836Y-97930000D01*
X139667836Y-97805000D01*
X141312164Y-97805000D01*
X141312164Y-97890000D01*
X141340056Y-98038231D01*
X141427660Y-98174372D01*
X141561329Y-98265704D01*
X141679775Y-98289690D01*
X141689963Y-98340909D01*
X141803769Y-98511231D01*
X142054702Y-98762164D01*
X141735000Y-98762164D01*
X141586769Y-98790056D01*
X141450628Y-98877660D01*
X141359296Y-99011329D01*
X141327164Y-99170000D01*
X141327164Y-99255000D01*
X139667836Y-99255000D01*
X139667836Y-99130000D01*
X139639944Y-98981769D01*
X139552340Y-98845628D01*
X139418671Y-98754296D01*
X139260000Y-98722164D01*
X137760000Y-98722164D01*
X137611769Y-98750056D01*
X137475628Y-98837660D01*
X137384296Y-98971329D01*
X137352164Y-99130000D01*
X137352164Y-100430000D01*
X137380056Y-100578231D01*
X137467660Y-100714372D01*
X137601329Y-100805704D01*
X137760000Y-100837836D01*
X139260000Y-100837836D01*
X139408231Y-100809944D01*
X139544372Y-100722340D01*
X139635704Y-100588671D01*
X139667836Y-100430000D01*
X139667836Y-100305000D01*
X141327164Y-100305000D01*
X141327164Y-100390000D01*
X141355056Y-100538231D01*
X141442660Y-100674372D01*
X141576329Y-100765704D01*
X141665000Y-100783661D01*
X141665000Y-102842538D01*
X140731231Y-101908769D01*
X140560909Y-101794963D01*
X140360000Y-101755000D01*
X139667836Y-101755000D01*
X139667836Y-101630000D01*
X139639944Y-101481769D01*
X139552340Y-101345628D01*
X139418671Y-101254296D01*
X139260000Y-101222164D01*
X137760000Y-101222164D01*
X137611769Y-101250056D01*
X137475628Y-101337660D01*
X137384296Y-101471329D01*
X137352164Y-101630000D01*
X137352164Y-102930000D01*
X137380056Y-103078231D01*
X137467660Y-103214372D01*
X137601329Y-103305704D01*
X137720902Y-103329918D01*
X137615628Y-103397660D01*
X137524296Y-103531329D01*
X137492164Y-103690000D01*
X137492164Y-104600000D01*
X137520056Y-104748231D01*
X137607660Y-104884372D01*
X137741329Y-104975704D01*
X137900000Y-105007836D01*
X139120000Y-105007836D01*
X139268231Y-104979944D01*
X139404372Y-104892340D01*
X139495704Y-104758671D01*
X139527836Y-104600000D01*
X139527836Y-103690000D01*
X139499944Y-103541769D01*
X139412340Y-103405628D01*
X139301652Y-103329998D01*
X139408231Y-103309944D01*
X139544372Y-103222340D01*
X139635704Y-103088671D01*
X139667836Y-102930000D01*
X139667836Y-102805000D01*
X140142538Y-102805000D01*
X141135000Y-103797462D01*
X141135000Y-108580000D01*
X141174963Y-108780909D01*
X141288769Y-108951231D01*
X142482208Y-110144670D01*
X142482208Y-111552212D01*
X142522171Y-111753121D01*
X142635977Y-111923443D01*
X143883765Y-113171231D01*
X144054087Y-113285037D01*
X144254996Y-113325000D01*
X144819455Y-113325000D01*
X144857660Y-113384372D01*
X144961028Y-113455000D01*
X132843462Y-113455000D01*
X131797231Y-112408769D01*
X131626909Y-112294963D01*
X131488121Y-112267357D01*
X131233641Y-111886500D01*
X130823700Y-111612586D01*
X130340141Y-111516400D01*
X129979859Y-111516400D01*
X129496300Y-111612586D01*
X129086359Y-111886500D01*
X128812445Y-112296441D01*
X128716259Y-112780000D01*
X125475000Y-112780000D01*
X125475000Y-109718628D01*
X132959879Y-109718628D01*
X133066223Y-109976000D01*
X133262964Y-110173085D01*
X133520150Y-110279878D01*
X133798628Y-110280121D01*
X134056000Y-110173777D01*
X134253085Y-109977036D01*
X134359878Y-109719850D01*
X134360121Y-109441372D01*
X134253777Y-109184000D01*
X134185000Y-109115103D01*
X134185000Y-107683500D01*
X137242000Y-107683500D01*
X137242000Y-108000884D01*
X137342174Y-108242727D01*
X137527273Y-108427825D01*
X137769115Y-108528000D01*
X138241500Y-108528000D01*
X138406000Y-108363500D01*
X138406000Y-107519000D01*
X138614000Y-107519000D01*
X138614000Y-108363500D01*
X138778500Y-108528000D01*
X139250885Y-108528000D01*
X139492727Y-108427825D01*
X139677826Y-108242727D01*
X139778000Y-108000884D01*
X139778000Y-107683500D01*
X139613500Y-107519000D01*
X138614000Y-107519000D01*
X138406000Y-107519000D01*
X137406500Y-107519000D01*
X137242000Y-107683500D01*
X134185000Y-107683500D01*
X134185000Y-107497462D01*
X134702425Y-106980037D01*
X134798628Y-106980121D01*
X135056000Y-106873777D01*
X135100739Y-106829116D01*
X137242000Y-106829116D01*
X137242000Y-107146500D01*
X137406500Y-107311000D01*
X138406000Y-107311000D01*
X138406000Y-106466500D01*
X138614000Y-106466500D01*
X138614000Y-107311000D01*
X139613500Y-107311000D01*
X139778000Y-107146500D01*
X139778000Y-106829116D01*
X139677826Y-106587273D01*
X139492727Y-106402175D01*
X139250885Y-106302000D01*
X138778500Y-106302000D01*
X138614000Y-106466500D01*
X138406000Y-106466500D01*
X138241500Y-106302000D01*
X137769115Y-106302000D01*
X137527273Y-106402175D01*
X137342174Y-106587273D01*
X137242000Y-106829116D01*
X135100739Y-106829116D01*
X135253085Y-106677036D01*
X135359878Y-106419850D01*
X135360121Y-106141372D01*
X135253777Y-105884000D01*
X135057036Y-105686915D01*
X134799850Y-105580122D01*
X134521372Y-105579879D01*
X134264000Y-105686223D01*
X134066915Y-105882964D01*
X133960122Y-106140150D01*
X133960037Y-106237501D01*
X133288769Y-106908769D01*
X133174963Y-107079091D01*
X133135000Y-107280000D01*
X133135000Y-109114998D01*
X133066915Y-109182964D01*
X132960122Y-109440150D01*
X132959879Y-109718628D01*
X125475000Y-109718628D01*
X125475000Y-95062206D01*
X128734754Y-95062206D01*
X128951240Y-95586143D01*
X129351749Y-95987351D01*
X129649975Y-96111186D01*
X129438714Y-96198477D01*
X129079738Y-96556827D01*
X128885222Y-97025274D01*
X128884779Y-97532501D01*
X129078477Y-98001286D01*
X129436827Y-98360262D01*
X129846030Y-98530178D01*
X129438714Y-98698477D01*
X129079738Y-99056827D01*
X128885222Y-99525274D01*
X128884779Y-100032501D01*
X129078477Y-100501286D01*
X129436827Y-100860262D01*
X129846030Y-101030178D01*
X129438714Y-101198477D01*
X129079738Y-101556827D01*
X128885222Y-102025274D01*
X128884779Y-102532501D01*
X129078477Y-103001286D01*
X129436827Y-103360262D01*
X129905274Y-103554778D01*
X130412501Y-103555221D01*
X130881286Y-103361523D01*
X131240262Y-103003173D01*
X131322551Y-102805000D01*
X134652164Y-102805000D01*
X134652164Y-102930000D01*
X134680056Y-103078231D01*
X134767660Y-103214372D01*
X134901329Y-103305704D01*
X135060000Y-103337836D01*
X136560000Y-103337836D01*
X136708231Y-103309944D01*
X136844372Y-103222340D01*
X136935704Y-103088671D01*
X136967836Y-102930000D01*
X136967836Y-101630000D01*
X136939944Y-101481769D01*
X136852340Y-101345628D01*
X136718671Y-101254296D01*
X136560000Y-101222164D01*
X135060000Y-101222164D01*
X134911769Y-101250056D01*
X134775628Y-101337660D01*
X134684296Y-101471329D01*
X134652164Y-101630000D01*
X134652164Y-101755000D01*
X131322627Y-101755000D01*
X131241523Y-101558714D01*
X130883173Y-101199738D01*
X130473970Y-101029822D01*
X130881286Y-100861523D01*
X131240262Y-100503173D01*
X131322551Y-100305000D01*
X134652164Y-100305000D01*
X134652164Y-100430000D01*
X134680056Y-100578231D01*
X134767660Y-100714372D01*
X134901329Y-100805704D01*
X135060000Y-100837836D01*
X136560000Y-100837836D01*
X136708231Y-100809944D01*
X136844372Y-100722340D01*
X136935704Y-100588671D01*
X136967836Y-100430000D01*
X136967836Y-99130000D01*
X136939944Y-98981769D01*
X136852340Y-98845628D01*
X136718671Y-98754296D01*
X136560000Y-98722164D01*
X135060000Y-98722164D01*
X134911769Y-98750056D01*
X134775628Y-98837660D01*
X134684296Y-98971329D01*
X134652164Y-99130000D01*
X134652164Y-99255000D01*
X131322627Y-99255000D01*
X131241523Y-99058714D01*
X130883173Y-98699738D01*
X130473970Y-98529822D01*
X130881286Y-98361523D01*
X131240262Y-98003173D01*
X131322551Y-97805000D01*
X134652164Y-97805000D01*
X134652164Y-97930000D01*
X134680056Y-98078231D01*
X134767660Y-98214372D01*
X134901329Y-98305704D01*
X135060000Y-98337836D01*
X136560000Y-98337836D01*
X136708231Y-98309944D01*
X136844372Y-98222340D01*
X136935704Y-98088671D01*
X136967836Y-97930000D01*
X136967836Y-96630000D01*
X136939944Y-96481769D01*
X136852340Y-96345628D01*
X136718671Y-96254296D01*
X136560000Y-96222164D01*
X135060000Y-96222164D01*
X134911769Y-96250056D01*
X134775628Y-96337660D01*
X134684296Y-96471329D01*
X134652164Y-96630000D01*
X134652164Y-96755000D01*
X131322627Y-96755000D01*
X131241523Y-96558714D01*
X130883173Y-96199738D01*
X130669883Y-96111172D01*
X130966143Y-95988760D01*
X131367351Y-95588251D01*
X131584752Y-95064693D01*
X131585246Y-94497794D01*
X131368760Y-93973857D01*
X130968251Y-93572649D01*
X130444693Y-93355248D01*
X129877794Y-93354754D01*
X129353857Y-93571240D01*
X128952649Y-93971749D01*
X128735248Y-94495307D01*
X128734754Y-95062206D01*
X125475000Y-95062206D01*
X125475000Y-85475000D01*
X174525000Y-85475000D01*
X174525000Y-134525000D01*
G36*
X161586359Y-103833500D02*
X161996300Y-104107414D01*
X162479859Y-104203600D01*
X162487286Y-104203600D01*
X156815886Y-109875000D01*
X156661467Y-109875000D01*
X156699878Y-109782497D01*
X156700121Y-109504019D01*
X156593777Y-109246647D01*
X156555217Y-109208019D01*
X156593083Y-109170219D01*
X156699876Y-108913033D01*
X156700119Y-108634555D01*
X156593775Y-108377183D01*
X156523200Y-108306484D01*
X161349968Y-103479716D01*
X161586359Y-103833500D01*
X161586359Y-103833500D01*
G37*
X161586359Y-103833500D02*
X161996300Y-104107414D01*
X162479859Y-104203600D01*
X162487286Y-104203600D01*
X156815886Y-109875000D01*
X156661467Y-109875000D01*
X156699878Y-109782497D01*
X156700121Y-109504019D01*
X156593777Y-109246647D01*
X156555217Y-109208019D01*
X156593083Y-109170219D01*
X156699876Y-108913033D01*
X156700119Y-108634555D01*
X156593775Y-108377183D01*
X156523200Y-108306484D01*
X161349968Y-103479716D01*
X161586359Y-103833500D01*
G36*
X156452164Y-104480000D02*
X156480056Y-104628231D01*
X156567660Y-104764372D01*
X156701329Y-104855704D01*
X156860000Y-104887836D01*
X157820513Y-104887836D01*
X156033349Y-106675000D01*
X155180545Y-106675000D01*
X155142340Y-106615628D01*
X155008671Y-106524296D01*
X154850000Y-106492164D01*
X154340298Y-106492164D01*
X156452164Y-104380298D01*
X156452164Y-104480000D01*
X156452164Y-104480000D01*
G37*
X156452164Y-104480000D02*
X156480056Y-104628231D01*
X156567660Y-104764372D01*
X156701329Y-104855704D01*
X156860000Y-104887836D01*
X157820513Y-104887836D01*
X156033349Y-106675000D01*
X155180545Y-106675000D01*
X155142340Y-106615628D01*
X155008671Y-106524296D01*
X154850000Y-106492164D01*
X154340298Y-106492164D01*
X156452164Y-104380298D01*
X156452164Y-104480000D01*
M02*
