M48
;DRILL file {KiCad 4.0.5} date Thu Feb  9 17:30:34 2017
;FORMAT={-:-/ absolute / metric / decimal}
FMAT,2
METRIC,TZ
T1C0.300
T2C0.400
T3C0.900
T4C1.016
T5C3.048
%
G90
G05
M71
T1
X127.5Y-92.5
X127.5Y-95.
X127.5Y-97.5
X127.5Y-100.
X127.5Y-102.5
X127.5Y-105.
X127.5Y-107.5
X127.5Y-110.
X127.5Y-112.5
X127.5Y-115.
X127.5Y-117.5
X127.5Y-120.
X127.5Y-122.5
X127.5Y-125.
X127.5Y-127.5
X130.Y-92.5
X130.Y-107.5
X130.Y-110.
X130.Y-117.5
X130.Y-120.
X130.Y-122.5
X130.Y-125.
X130.Y-127.5
X131.5Y-98.5
X131.5Y-101.
X132.5Y-87.5
X132.5Y-90.
X132.5Y-92.5
X132.5Y-95.
X132.5Y-107.5
X132.5Y-110.
X132.5Y-112.5
X132.5Y-117.5
X132.5Y-120.
X132.5Y-122.5
X132.5Y-125.
X132.5Y-127.5
X132.5Y-130.
X132.5Y-132.5
X134.Y-98.5
X134.Y-101.
X135.Y-87.5
X135.Y-90.
X135.Y-92.5
X135.Y-95.
X135.Y-117.5
X135.Y-127.5
X135.Y-132.5
X137.5Y-87.5
X137.5Y-90.
X137.5Y-92.5
X137.5Y-95.
X137.5Y-105.
X137.5Y-127.5
X137.5Y-132.5
X140.Y-87.5
X140.Y-92.5
X140.Y-95.
X140.Y-127.5
X140.Y-130.
X140.Y-132.5
X140.5Y-98.5
X140.5Y-101.
X142.5Y-87.5
X142.5Y-92.5
X142.5Y-95.
X142.5Y-127.5
X142.5Y-130.
X142.5Y-132.5
X145.Y-87.5
X145.Y-95.
X145.Y-117.5
X145.Y-125.
X145.Y-127.5
X145.Y-132.5
X147.5Y-87.5
X147.5Y-90.
X147.5Y-92.5
X147.5Y-102.5
X147.5Y-132.5
X150.Y-87.5
X150.Y-90.
X150.Y-92.5
X150.Y-95.
X150.Y-107.5
X150.Y-117.5
X150.Y-120.
X150.Y-125.
X150.Y-127.5
X150.Y-130.
X150.Y-132.5
X151.Y-112.
X152.5Y-87.5
X152.5Y-92.5
X152.5Y-95.
X152.5Y-117.5
X152.5Y-120.
X152.5Y-127.5
X152.5Y-130.
X152.5Y-132.5
X153.Y-101.
X155.Y-87.5
X155.Y-95.
X155.Y-97.5
X155.Y-117.5
X155.Y-120.
X155.Y-125.
X155.Y-127.5
X155.Y-130.
X155.Y-132.5
X156.Y-106.
X156.25Y-114.5
X157.5Y-87.5
X157.5Y-92.5
X157.5Y-95.
X157.5Y-100.
X157.5Y-112.5
X157.5Y-117.5
X157.5Y-120.
X157.5Y-132.5
X158.Y-107.5
X160.Y-87.5
X160.Y-90.
X160.Y-92.5
X160.Y-95.
X160.Y-97.5
X160.Y-100.
X160.Y-105.8
X160.Y-112.5
X160.Y-120.
X160.Y-132.5
X162.5Y-87.5
X162.5Y-107.5
X162.5Y-112.5
X162.5Y-132.5
X165.Y-87.5
X165.Y-90.
X165.Y-92.5
X165.Y-95.
X165.Y-97.5
X165.Y-100.
X165.Y-107.5
X165.Y-110.
X165.Y-112.5
X165.Y-115.
X165.Y-117.5
X165.Y-120.
X165.Y-132.5
X167.5Y-87.5
X167.5Y-90.
X167.5Y-92.5
X167.5Y-95.
X167.5Y-97.5
X167.5Y-103.5
X167.5Y-107.5
X167.5Y-110.
X167.5Y-112.5
X167.5Y-115.
X167.5Y-117.5
X167.5Y-120.
X167.5Y-122.5
X167.5Y-125.
X167.5Y-127.5
X167.5Y-130.
X167.5Y-132.5
X170.Y-92.5
X170.Y-107.5
X170.Y-117.5
X170.Y-120.
X170.Y-122.5
X170.Y-125.
X170.Y-127.5
X172.5Y-92.5
X172.5Y-95.
X172.5Y-97.5
X172.5Y-100.
X172.5Y-102.5
X172.5Y-105.
X172.5Y-107.5
X172.5Y-110.
X172.5Y-112.5
X172.5Y-115.
X172.5Y-117.5
X172.5Y-120.
X172.5Y-122.5
X172.5Y-125.
X172.5Y-127.5
T2
X133.66Y-109.58
X134.66Y-106.28
X137.5Y-118.
X140.53Y-117.487
X141.017Y-111.338
X141.485Y-116.769
X142.508Y-116.732
X144.025Y-103.25
X144.511Y-107.923
X144.517Y-107.123
X144.523Y-108.723
X144.532Y-110.426
X147.26Y-106.98
X152.508Y-110.006
X152.51Y-112.955
X152.86Y-111.98
X153.012Y-102.927
X156.Y-108.773
X156.Y-109.643
X158.66Y-101.28
X159.033Y-110.78
X161.37Y-112.292
X163.891Y-109.34
T3
X130.16Y-94.78
X130.16Y-97.28
X130.16Y-99.78
X130.16Y-102.28
X130.16Y-104.78
X157.16Y-121.78
X157.16Y-129.78
X159.66Y-121.78
X159.66Y-129.78
X162.16Y-121.78
X162.16Y-129.78
X164.66Y-121.78
X164.66Y-129.78
X169.66Y-94.78
X169.66Y-97.28
X169.66Y-99.78
X169.66Y-102.28
X169.66Y-104.78
T4
X130.16Y-110.24
X130.16Y-112.78
X130.16Y-115.32
X139.12Y-90.28
X141.66Y-90.28
X144.2Y-90.28
X151.62Y-90.28
X154.16Y-90.28
X156.7Y-90.28
X162.66Y-90.24
X162.66Y-92.78
X162.66Y-95.32
X162.66Y-97.86
X162.66Y-100.4
X162.66Y-102.94
X169.66Y-110.24
X169.66Y-112.78
X169.66Y-115.32
T5
X129.Y-89.
X129.Y-131.
X171.Y-89.
X171.Y-131.
T0
M30
