G04 #@! TF.FileFunction,Paste,Top*
%FSLAX46Y46*%
G04 Gerber Fmt 4.6, Leading zero omitted, Abs format (unit mm)*
G04 Created by KiCad (PCBNEW 4.0.5) date Thu Feb  9 17:30:12 2017*
%MOMM*%
%LPD*%
G01*
G04 APERTURE LIST*
%ADD10C,0.100000*%
%ADD11R,0.600000X1.550000*%
%ADD12C,0.750000*%
%ADD13R,1.250000X1.500000*%
%ADD14R,0.910000X1.220000*%
%ADD15R,1.220000X0.910000*%
%ADD16R,1.198880X1.198880*%
%ADD17R,1.500000X1.300000*%
%ADD18R,1.600000X2.000000*%
%ADD19R,1.200000X0.600000*%
%ADD20R,0.600000X1.200000*%
G04 APERTURE END LIST*
D10*
D11*
X163905000Y-110800000D03*
X162635000Y-110800000D03*
X161365000Y-110800000D03*
X160095000Y-110800000D03*
X160095000Y-116200000D03*
X161365000Y-116200000D03*
X162635000Y-116200000D03*
X163905000Y-116200000D03*
D12*
X150400000Y-103800000D03*
X153800000Y-103800000D03*
X148500000Y-116000000D03*
X147500000Y-116000000D03*
D13*
X154660000Y-102030000D03*
X154660000Y-99530000D03*
D14*
X142175000Y-97280000D03*
X145445000Y-97280000D03*
X142190000Y-99780000D03*
X145460000Y-99780000D03*
D15*
X138510000Y-104145000D03*
X138510000Y-107415000D03*
D16*
X137709020Y-125780000D03*
X135610980Y-125780000D03*
X137660000Y-119780000D03*
X135561960Y-119780000D03*
X137660000Y-122780000D03*
X135561960Y-122780000D03*
D17*
X138510000Y-97280000D03*
X135810000Y-97280000D03*
X138510000Y-99780000D03*
X135810000Y-99780000D03*
X138510000Y-102280000D03*
X135810000Y-102280000D03*
X143010000Y-125780000D03*
X140310000Y-125780000D03*
X143010000Y-119780000D03*
X140310000Y-119780000D03*
X143010000Y-122780000D03*
X140310000Y-122780000D03*
D18*
X157660000Y-98080000D03*
X157660000Y-103480000D03*
D19*
X145750000Y-107200000D03*
X145750000Y-108000000D03*
X145750000Y-108800000D03*
X145750000Y-109600000D03*
X145750000Y-110400000D03*
X145750000Y-111200000D03*
X145750000Y-112000000D03*
X145750000Y-112800000D03*
D20*
X147200000Y-114250000D03*
X148000000Y-114250000D03*
X148800000Y-114250000D03*
X149600000Y-114250000D03*
X150400000Y-114250000D03*
X151200000Y-114250000D03*
X152000000Y-114250000D03*
X152800000Y-114250000D03*
D19*
X154250000Y-112800000D03*
X154250000Y-112000000D03*
X154250000Y-111200000D03*
X154250000Y-110400000D03*
X154250000Y-109600000D03*
X154250000Y-108800000D03*
X154250000Y-108000000D03*
X154250000Y-107200000D03*
D20*
X152800000Y-105750000D03*
X152000000Y-105750000D03*
X151200000Y-105750000D03*
X150400000Y-105750000D03*
X149600000Y-105750000D03*
X148800000Y-105750000D03*
X148000000Y-105750000D03*
X147200000Y-105750000D03*
D12*
X146500000Y-116000000D03*
M02*
