G04 #@! TF.FileFunction,Copper,L2,Bot,Signal*
%FSLAX46Y46*%
G04 Gerber Fmt 4.6, Leading zero omitted, Abs format (unit mm)*
G04 Created by KiCad (PCBNEW 4.0.5) date Thu Feb  9 17:30:12 2017*
%MOMM*%
%LPD*%
G01*
G04 APERTURE LIST*
%ADD10C,0.100000*%
%ADD11C,0.600000*%
%ADD12C,4.064000*%
%ADD13R,1.750000X1.750000*%
%ADD14C,1.750000*%
%ADD15R,1.250000X1.500000*%
%ADD16R,1.500000X1.250000*%
%ADD17R,2.032000X1.727200*%
%ADD18O,2.032000X1.727200*%
%ADD19R,1.727200X2.032000*%
%ADD20O,1.727200X2.032000*%
%ADD21R,1.300000X1.500000*%
%ADD22R,3.657600X2.032000*%
%ADD23R,1.016000X2.032000*%
%ADD24C,0.500000*%
%ADD25C,0.250000*%
G04 APERTURE END LIST*
D10*
D11*
X155000000Y-97500000D03*
X160000000Y-92500000D03*
X152500000Y-95000000D03*
X157500000Y-95000000D03*
X155000000Y-95000000D03*
X160000000Y-97500000D03*
X160000000Y-95000000D03*
X160000000Y-100000000D03*
X167500000Y-103500000D03*
X160000000Y-105800000D03*
X167500000Y-97500000D03*
X156250000Y-114500000D03*
X162500000Y-112500000D03*
X165000000Y-112500000D03*
X165000000Y-115000000D03*
X167500000Y-115000000D03*
X167500000Y-112500000D03*
X150000000Y-120000000D03*
X152500000Y-120000000D03*
X145000000Y-117500000D03*
X150000000Y-117500000D03*
X152500000Y-117500000D03*
X155000000Y-117500000D03*
X157500000Y-117500000D03*
X160000000Y-112500000D03*
X157500000Y-112500000D03*
X162500000Y-107500000D03*
X165000000Y-110000000D03*
X167500000Y-107500000D03*
X165000000Y-107500000D03*
X158000000Y-107500000D03*
X165000000Y-117500000D03*
X160000000Y-120000000D03*
X131500000Y-101000000D03*
X131500000Y-98500000D03*
X134000000Y-101000000D03*
X134000000Y-98500000D03*
X156000000Y-106000000D03*
X151000000Y-112000000D03*
X153000000Y-101000000D03*
X140500000Y-101000000D03*
X140500000Y-98500000D03*
X157500000Y-92500000D03*
X167500000Y-132500000D03*
X165000000Y-132500000D03*
X162500000Y-132500000D03*
X160000000Y-132500000D03*
X157500000Y-132500000D03*
X155000000Y-132500000D03*
X152500000Y-132500000D03*
X150000000Y-132500000D03*
X147500000Y-132500000D03*
X145000000Y-132500000D03*
X142500000Y-132500000D03*
X140000000Y-132500000D03*
X137500000Y-132500000D03*
X135000000Y-132500000D03*
X132500000Y-132500000D03*
X167500000Y-130000000D03*
X155000000Y-130000000D03*
X152500000Y-130000000D03*
X150000000Y-130000000D03*
X142500000Y-130000000D03*
X140000000Y-130000000D03*
X132500000Y-130000000D03*
X172500000Y-127500000D03*
X170000000Y-127500000D03*
X167500000Y-127500000D03*
X155000000Y-127500000D03*
X152500000Y-127500000D03*
X150000000Y-127500000D03*
X145000000Y-127500000D03*
X142500000Y-127500000D03*
X140000000Y-127500000D03*
X137500000Y-127500000D03*
X135000000Y-127500000D03*
X132500000Y-127500000D03*
X130000000Y-127500000D03*
X127500000Y-127500000D03*
X172500000Y-125000000D03*
X170000000Y-125000000D03*
X167500000Y-125000000D03*
X155000000Y-125000000D03*
X150000000Y-125000000D03*
X145000000Y-125000000D03*
X132500000Y-125000000D03*
X130000000Y-125000000D03*
X127500000Y-125000000D03*
X172500000Y-122500000D03*
X170000000Y-122500000D03*
X167500000Y-122500000D03*
X132500000Y-122500000D03*
X130000000Y-122500000D03*
X127500000Y-122500000D03*
X172500000Y-120000000D03*
X170000000Y-120000000D03*
X167500000Y-120000000D03*
X165000000Y-120000000D03*
X157500000Y-120000000D03*
X155000000Y-120000000D03*
X132500000Y-120000000D03*
X130000000Y-120000000D03*
X127500000Y-120000000D03*
X172500000Y-117500000D03*
X170000000Y-117500000D03*
X167500000Y-117500000D03*
X135000000Y-117500000D03*
X132500000Y-117500000D03*
X130000000Y-117500000D03*
X127500000Y-117500000D03*
X172500000Y-115000000D03*
X127500000Y-115000000D03*
X172500000Y-112500000D03*
X132500000Y-112500000D03*
X127500000Y-112500000D03*
X172500000Y-110000000D03*
X167500000Y-110000000D03*
X132500000Y-110000000D03*
X130000000Y-110000000D03*
X127500000Y-110000000D03*
X172500000Y-107500000D03*
X170000000Y-107500000D03*
X150000000Y-107500000D03*
X132500000Y-107500000D03*
X130000000Y-107500000D03*
X127500000Y-107500000D03*
X172500000Y-105000000D03*
X137500000Y-105000000D03*
X127500000Y-105000000D03*
X172500000Y-102500000D03*
X147500000Y-102500000D03*
X127500000Y-102500000D03*
X172500000Y-100000000D03*
X165000000Y-100000000D03*
X157500000Y-100000000D03*
X127500000Y-100000000D03*
X172500000Y-97500000D03*
X165000000Y-97500000D03*
X127500000Y-97500000D03*
X172500000Y-95000000D03*
X167500000Y-95000000D03*
X165000000Y-95000000D03*
X150000000Y-95000000D03*
X145000000Y-95000000D03*
X142500000Y-95000000D03*
X140000000Y-95000000D03*
X137500000Y-95000000D03*
X135000000Y-95000000D03*
X132500000Y-95000000D03*
X127500000Y-95000000D03*
X172500000Y-92500000D03*
X170000000Y-92500000D03*
X167500000Y-92500000D03*
X165000000Y-92500000D03*
X152500000Y-92500000D03*
X150000000Y-92500000D03*
X147500000Y-92500000D03*
X142500000Y-92500000D03*
X140000000Y-92500000D03*
X137500000Y-92500000D03*
X135000000Y-92500000D03*
X132500000Y-92500000D03*
X130000000Y-92500000D03*
X127500000Y-92500000D03*
X167500000Y-90000000D03*
X165000000Y-90000000D03*
X160000000Y-90000000D03*
X150000000Y-90000000D03*
X147500000Y-90000000D03*
X137500000Y-90000000D03*
X135000000Y-90000000D03*
X132500000Y-90000000D03*
X167500000Y-87500000D03*
X165000000Y-87500000D03*
X162500000Y-87500000D03*
X160000000Y-87500000D03*
X157500000Y-87500000D03*
X155000000Y-87500000D03*
X152500000Y-87500000D03*
X150000000Y-87500000D03*
X147500000Y-87500000D03*
X145000000Y-87500000D03*
X142500000Y-87500000D03*
X140000000Y-87500000D03*
X137500000Y-87500000D03*
X135000000Y-87500000D03*
X132500000Y-87500000D03*
D12*
X171000000Y-89000000D03*
X129000000Y-89000000D03*
X129000000Y-131000000D03*
X171000000Y-131000000D03*
D13*
X164660000Y-121780000D03*
D14*
X162160000Y-121780000D03*
X159660000Y-121780000D03*
X157160000Y-121780000D03*
D15*
X152160000Y-123230000D03*
X152160000Y-125730000D03*
D16*
X147380000Y-120510000D03*
X144880000Y-120510000D03*
D15*
X141160000Y-123230000D03*
X141160000Y-125730000D03*
D16*
X136410000Y-120530000D03*
X133910000Y-120530000D03*
D13*
X130160000Y-104780000D03*
D14*
X130160000Y-102280000D03*
X130160000Y-99780000D03*
X130160000Y-97280000D03*
X130160000Y-94780000D03*
D17*
X130160000Y-110240000D03*
D18*
X130160000Y-112780000D03*
X130160000Y-115320000D03*
D13*
X169660000Y-94780000D03*
D14*
X169660000Y-97280000D03*
X169660000Y-99780000D03*
X169660000Y-102280000D03*
X169660000Y-104780000D03*
D17*
X169660000Y-110240000D03*
D18*
X169660000Y-112780000D03*
X169660000Y-115320000D03*
D17*
X162660000Y-90240000D03*
D18*
X162660000Y-92780000D03*
X162660000Y-95320000D03*
X162660000Y-97860000D03*
X162660000Y-100400000D03*
X162660000Y-102940000D03*
D13*
X164660000Y-129780000D03*
D14*
X162160000Y-129780000D03*
X159660000Y-129780000D03*
X157160000Y-129780000D03*
D19*
X139120000Y-90280000D03*
D20*
X141660000Y-90280000D03*
X144200000Y-90280000D03*
D19*
X151620000Y-90280000D03*
D20*
X154160000Y-90280000D03*
X156700000Y-90280000D03*
D21*
X135256106Y-111137512D03*
X135256106Y-108437512D03*
X137413572Y-111137512D03*
X137413572Y-108437512D03*
X147660000Y-98530000D03*
X147660000Y-101230000D03*
X145660000Y-101230000D03*
X145660000Y-98530000D03*
D22*
X147374000Y-129843112D03*
D23*
X147374000Y-123239112D03*
X149660000Y-123239112D03*
X145088000Y-123239112D03*
D22*
X136370000Y-129851112D03*
D23*
X136370000Y-123247112D03*
X138656000Y-123247112D03*
X134084000Y-123247112D03*
D16*
X145310000Y-111780000D03*
X142810000Y-111780000D03*
X145310000Y-114280000D03*
X142810000Y-114280000D03*
D15*
X149060000Y-109530000D03*
X149060000Y-112030000D03*
D16*
X144410000Y-105780000D03*
X146910000Y-105780000D03*
D15*
X154260000Y-112330000D03*
X154260000Y-114830000D03*
D11*
X141016678Y-111338172D03*
X152508008Y-110005888D03*
X152510000Y-112955000D03*
X147260000Y-106980000D03*
X144532240Y-110426289D03*
X140530472Y-117487168D03*
X137500000Y-118000000D03*
X144516550Y-107122754D03*
X134660000Y-106280000D03*
X133660000Y-109580000D03*
X152860000Y-111980000D03*
X161369941Y-112291929D03*
X158660000Y-101280000D03*
X163890546Y-109340150D03*
X155999998Y-108773183D03*
X159033014Y-110779825D03*
X156000000Y-109642647D03*
X153011882Y-102927110D03*
X142508134Y-116731526D03*
X144522917Y-108722755D03*
X144025010Y-103249990D03*
X141484752Y-116768740D03*
X144510686Y-107922744D03*
D24*
X152160000Y-123230000D02*
X155710000Y-123230000D01*
X152160000Y-123230000D02*
X149669112Y-123230000D01*
X149669112Y-123230000D02*
X149660000Y-123239112D01*
X149660888Y-123240000D02*
X149660000Y-123239112D01*
X155710000Y-123230000D02*
X157160000Y-121780000D01*
X142865000Y-123900000D02*
X143525888Y-123239112D01*
X142285000Y-125730000D02*
X142865000Y-125150000D01*
X141160000Y-125730000D02*
X142285000Y-125730000D01*
X142865000Y-125150000D02*
X142865000Y-123900000D01*
X143525888Y-123239112D02*
X145088000Y-123239112D01*
D25*
X141316677Y-111638171D02*
X141016678Y-111338172D01*
X141458506Y-111780000D02*
X141316677Y-111638171D01*
X142810000Y-111780000D02*
X141458506Y-111780000D01*
X149482120Y-106980000D02*
X152208009Y-109705889D01*
X147260000Y-106980000D02*
X149482120Y-106980000D01*
X152208009Y-109705889D02*
X152508008Y-110005888D01*
X163565000Y-132000000D02*
X155448086Y-132000000D01*
X155448086Y-132000000D02*
X152160000Y-128711914D01*
X164660000Y-129780000D02*
X164660000Y-130905000D01*
X164660000Y-130905000D02*
X163565000Y-132000000D01*
D24*
X141160000Y-125730000D02*
X141160000Y-127160000D01*
X141160000Y-127160000D02*
X145600000Y-131600000D01*
X152160000Y-128711914D02*
X152160000Y-126980000D01*
X145600000Y-131600000D02*
X149271914Y-131600000D01*
X149271914Y-131600000D02*
X152160000Y-128711914D01*
X152160000Y-126980000D02*
X152160000Y-125730000D01*
D25*
X139120000Y-90280000D02*
X139120000Y-92890000D01*
X139120000Y-92890000D02*
X144760000Y-98530000D01*
X144760000Y-98530000D02*
X145660000Y-98530000D01*
X151585000Y-112030000D02*
X152510000Y-112955000D01*
X152510000Y-112955000D02*
X154260000Y-114705000D01*
X149060000Y-112030000D02*
X151585000Y-112030000D01*
X154260000Y-114705000D02*
X154260000Y-114830000D01*
X142810000Y-114280000D02*
X142810000Y-111780000D01*
X146910000Y-105780000D02*
X146910000Y-106630000D01*
X146910000Y-106630000D02*
X147260000Y-106980000D01*
D24*
X134084000Y-123247112D02*
X134084000Y-124763112D01*
X134084000Y-124763112D02*
X132660000Y-126187112D01*
X132660000Y-126187112D02*
X132660000Y-130155914D01*
X132660000Y-130155914D02*
X134021199Y-131517113D01*
X134021199Y-131517113D02*
X138718801Y-131517113D01*
X138718801Y-131517113D02*
X141160000Y-129075914D01*
X141160000Y-129075914D02*
X141160000Y-126980000D01*
X141160000Y-126980000D02*
X141160000Y-125730000D01*
X134084000Y-123247112D02*
X134084000Y-120704000D01*
X134084000Y-120704000D02*
X133910000Y-120530000D01*
X145088000Y-123239112D02*
X145088000Y-120718000D01*
X145088000Y-120718000D02*
X144880000Y-120510000D01*
D25*
X145310000Y-110905000D02*
X144831289Y-110426289D01*
X144831289Y-110426289D02*
X144532240Y-110426289D01*
X145310000Y-111780000D02*
X145310000Y-110905000D01*
X162660000Y-90240000D02*
X161260000Y-90240000D01*
X161260000Y-90240000D02*
X152970000Y-98530000D01*
X152970000Y-98530000D02*
X148560000Y-98530000D01*
X148560000Y-98530000D02*
X147660000Y-98530000D01*
X140530472Y-117487168D02*
X143406836Y-117487168D01*
X145310000Y-115584004D02*
X144000000Y-116894004D01*
X143406836Y-117487168D02*
X144000000Y-116894004D01*
X145310000Y-114280000D02*
X145310000Y-115584004D01*
D24*
X136410000Y-118500000D02*
X136410000Y-115891406D01*
X136410000Y-120530000D02*
X136410000Y-118500000D01*
D25*
X136410000Y-118500000D02*
X137000000Y-118500000D01*
X137000000Y-118500000D02*
X137500000Y-118000000D01*
X135256106Y-111137512D02*
X135256106Y-111037512D01*
X144410000Y-105780000D02*
X144410000Y-107016204D01*
X144410000Y-107016204D02*
X144516550Y-107122754D01*
X147028766Y-109530000D02*
X144621520Y-107122754D01*
X149060000Y-109530000D02*
X147028766Y-109530000D01*
X144621520Y-107122754D02*
X144516550Y-107122754D01*
X134660000Y-106280000D02*
X138660000Y-106280000D01*
X138660000Y-106280000D02*
X145334999Y-99605001D01*
X145334999Y-99605001D02*
X146684999Y-99605001D01*
X146684999Y-99605001D02*
X147660000Y-98630000D01*
X147660000Y-98630000D02*
X147660000Y-98530000D01*
X135256106Y-111137512D02*
X135217512Y-111137512D01*
X135217512Y-111137512D02*
X133660000Y-109580000D01*
D24*
X136410000Y-120530000D02*
X136410000Y-112291406D01*
X136410000Y-112291406D02*
X135256106Y-111137512D01*
D25*
X153210000Y-112330000D02*
X152860000Y-111980000D01*
X154260000Y-112330000D02*
X153210000Y-112330000D01*
X150410000Y-109530000D02*
X152860000Y-111980000D01*
X149060000Y-109530000D02*
X150410000Y-109530000D01*
X149060000Y-109530000D02*
X149060000Y-109655000D01*
X149060000Y-109655000D02*
X145310000Y-113405000D01*
X145310000Y-113405000D02*
X145310000Y-114280000D01*
X145310000Y-113405000D02*
X147860000Y-110855000D01*
X145310000Y-114280000D02*
X145310000Y-111780000D01*
D24*
X136535000Y-120530000D02*
X136410000Y-120530000D01*
X136370000Y-123247112D02*
X136370000Y-129851112D01*
X136370000Y-123247112D02*
X136370000Y-120570000D01*
X136370000Y-120570000D02*
X136410000Y-120530000D01*
X154300000Y-104200000D02*
X142801084Y-104200000D01*
X155000000Y-104200000D02*
X154300000Y-104200000D01*
X169660000Y-104780000D02*
X156000000Y-104780000D01*
X154300000Y-104200000D02*
X155420000Y-104200000D01*
X155420000Y-104200000D02*
X156000000Y-104780000D01*
X138563572Y-108437512D02*
X142301084Y-104700000D01*
X142801084Y-104200000D02*
X142301084Y-104700000D01*
X142301084Y-104700000D02*
X142496085Y-104504999D01*
X137413572Y-108437512D02*
X138563572Y-108437512D01*
X132660000Y-97280000D02*
X132660000Y-104380000D01*
X132660000Y-104380000D02*
X132660000Y-105280000D01*
X135256106Y-108437512D02*
X135256106Y-108337512D01*
X135256106Y-108337512D02*
X132660000Y-105741406D01*
X132660000Y-105741406D02*
X132660000Y-104380000D01*
X135256106Y-108437512D02*
X137413572Y-108437512D01*
X130160000Y-94780000D02*
X132660000Y-97280000D01*
D25*
X161069942Y-112591928D02*
X161369941Y-112291929D01*
X149890000Y-119000000D02*
X154661870Y-119000000D01*
X148380000Y-120510000D02*
X149890000Y-119000000D01*
X147380000Y-120510000D02*
X148380000Y-120510000D01*
X154661870Y-119000000D02*
X161069942Y-112591928D01*
D24*
X139509799Y-118822201D02*
X145567201Y-118822201D01*
X145567201Y-118822201D02*
X147255000Y-120510000D01*
X147255000Y-120510000D02*
X147380000Y-120510000D01*
X145648996Y-118903996D02*
X146525000Y-119780000D01*
X147374000Y-129843112D02*
X147374000Y-123239112D01*
X137413572Y-111137512D02*
X137413572Y-116725974D01*
X137413572Y-116725974D02*
X139509799Y-118822201D01*
X139509799Y-118822201D02*
X138656000Y-119676000D01*
X138656000Y-119676000D02*
X138656000Y-123247112D01*
X147255000Y-120510000D02*
X146525000Y-119780000D01*
X146525000Y-119780000D02*
X145800010Y-119055010D01*
X141160000Y-123230000D02*
X138673112Y-123230000D01*
X138673112Y-123230000D02*
X138656000Y-123247112D01*
X138688888Y-123280000D02*
X138656000Y-123247112D01*
X147374000Y-123239112D02*
X147374000Y-124755112D01*
X147374000Y-123239112D02*
X147374000Y-120516000D01*
D25*
X158660000Y-101280000D02*
X161780000Y-101280000D01*
X161780000Y-101280000D02*
X162660000Y-100400000D01*
X163590547Y-109040151D02*
X163890546Y-109340150D01*
X163323579Y-108773183D02*
X163590547Y-109040151D01*
X155999998Y-108773183D02*
X163323579Y-108773183D01*
X156000000Y-109642647D02*
X157137178Y-110779825D01*
X157137178Y-110779825D02*
X158608750Y-110779825D01*
X158608750Y-110779825D02*
X159033014Y-110779825D01*
X153024772Y-102940000D02*
X153011882Y-102927110D01*
X162660000Y-102940000D02*
X153024772Y-102940000D01*
X169660000Y-112780000D02*
X169507600Y-112780000D01*
X139860000Y-114083392D02*
X142208135Y-116431527D01*
X144522917Y-108722755D02*
X140817245Y-108722755D01*
X140817245Y-108722755D02*
X139860000Y-109680000D01*
X142208135Y-116431527D02*
X142508134Y-116731526D01*
X139860000Y-109680000D02*
X139860000Y-114083392D01*
X145660000Y-101350446D02*
X145660000Y-101615000D01*
X144325009Y-102949991D02*
X144025010Y-103249990D01*
X145660000Y-101615000D02*
X144325009Y-102949991D01*
X145660000Y-101230000D02*
X147660000Y-101230000D01*
X141184753Y-116468741D02*
X141484752Y-116768740D01*
X139409989Y-109493600D02*
X139409989Y-114693977D01*
X140980845Y-107922744D02*
X139409989Y-109493600D01*
X139409989Y-114693977D02*
X141184753Y-116468741D01*
X144510686Y-107922744D02*
X140980845Y-107922744D01*
G36*
X174550000Y-134550000D02*
X125450000Y-134550000D01*
X125450000Y-123534362D01*
X132943000Y-123534362D01*
X132943000Y-124389024D01*
X133039369Y-124621678D01*
X133217435Y-124799744D01*
X133450089Y-124896112D01*
X133796750Y-124896112D01*
X133955000Y-124737862D01*
X133955000Y-123376112D01*
X134213000Y-123376112D01*
X134213000Y-124737862D01*
X134371250Y-124896112D01*
X134717911Y-124896112D01*
X134950565Y-124799744D01*
X135128631Y-124621678D01*
X135225000Y-124389024D01*
X135225000Y-123534362D01*
X135066750Y-123376112D01*
X134213000Y-123376112D01*
X133955000Y-123376112D01*
X133101250Y-123376112D01*
X132943000Y-123534362D01*
X125450000Y-123534362D01*
X125450000Y-119779088D01*
X132527000Y-119779088D01*
X132527000Y-120242750D01*
X132685250Y-120401000D01*
X133781000Y-120401000D01*
X133781000Y-119430250D01*
X133622750Y-119272000D01*
X133034089Y-119272000D01*
X132801435Y-119368368D01*
X132623369Y-119546434D01*
X132527000Y-119779088D01*
X125450000Y-119779088D01*
X125450000Y-115320000D01*
X128741749Y-115320000D01*
X128836032Y-115793992D01*
X129104527Y-116195822D01*
X129506357Y-116464317D01*
X129980349Y-116558600D01*
X130339651Y-116558600D01*
X130813643Y-116464317D01*
X131215473Y-116195822D01*
X131483968Y-115793992D01*
X131578251Y-115320000D01*
X131483968Y-114846008D01*
X131215473Y-114444178D01*
X130813643Y-114175683D01*
X130339651Y-114081400D01*
X129980349Y-114081400D01*
X129506357Y-114175683D01*
X129104527Y-114444178D01*
X128836032Y-114846008D01*
X128741749Y-115320000D01*
X125450000Y-115320000D01*
X125450000Y-112780000D01*
X128741749Y-112780000D01*
X128836032Y-113253992D01*
X129104527Y-113655822D01*
X129506357Y-113924317D01*
X129980349Y-114018600D01*
X130339651Y-114018600D01*
X130813643Y-113924317D01*
X131215473Y-113655822D01*
X131483968Y-113253992D01*
X131578251Y-112780000D01*
X131483968Y-112306008D01*
X131215473Y-111904178D01*
X130813643Y-111635683D01*
X130339651Y-111541400D01*
X129980349Y-111541400D01*
X129506357Y-111635683D01*
X129104527Y-111904178D01*
X128836032Y-112306008D01*
X128741749Y-112780000D01*
X125450000Y-112780000D01*
X125450000Y-95057256D01*
X128759757Y-95057256D01*
X128972445Y-95572000D01*
X129365928Y-95966170D01*
X129715302Y-96111243D01*
X129452857Y-96219684D01*
X129100919Y-96571007D01*
X128910217Y-97030269D01*
X128909783Y-97527550D01*
X129099684Y-97987143D01*
X129451007Y-98339081D01*
X129910269Y-98529783D01*
X129912445Y-98529785D01*
X129452857Y-98719684D01*
X129100919Y-99071007D01*
X128910217Y-99530269D01*
X128909783Y-100027550D01*
X129099684Y-100487143D01*
X129451007Y-100839081D01*
X129910269Y-101029783D01*
X129912445Y-101029785D01*
X129452857Y-101219684D01*
X129100919Y-101571007D01*
X128910217Y-102030269D01*
X128909783Y-102527550D01*
X129099684Y-102987143D01*
X129451007Y-103339081D01*
X129910269Y-103529783D01*
X130407550Y-103530217D01*
X130867143Y-103340316D01*
X131219081Y-102988993D01*
X131409783Y-102529731D01*
X131410217Y-102032450D01*
X131220316Y-101572857D01*
X130868993Y-101220919D01*
X130409731Y-101030217D01*
X130407555Y-101030215D01*
X130867143Y-100840316D01*
X131219081Y-100488993D01*
X131409783Y-100029731D01*
X131410217Y-99532450D01*
X131220316Y-99072857D01*
X130868993Y-98720919D01*
X130409731Y-98530217D01*
X130407555Y-98530215D01*
X130867143Y-98340316D01*
X131219081Y-97988993D01*
X131409783Y-97529731D01*
X131410135Y-97126151D01*
X131885000Y-97601016D01*
X131885000Y-105741406D01*
X131943993Y-106037986D01*
X132111992Y-106289414D01*
X134070821Y-108248243D01*
X134070821Y-109036111D01*
X134042856Y-109008097D01*
X133794855Y-108905117D01*
X133526323Y-108904883D01*
X133278143Y-109007429D01*
X133088097Y-109197144D01*
X132985117Y-109445145D01*
X132984883Y-109713677D01*
X133087429Y-109961857D01*
X133277144Y-110151903D01*
X133525145Y-110254883D01*
X133627866Y-110254973D01*
X134223760Y-110850867D01*
X134223760Y-111887512D01*
X134249908Y-112026478D01*
X134332037Y-112154111D01*
X134457352Y-112239735D01*
X134606106Y-112269858D01*
X135504569Y-112269858D01*
X135785000Y-112550289D01*
X135785000Y-119522654D01*
X135660000Y-119522654D01*
X135521034Y-119548802D01*
X135393401Y-119630931D01*
X135307777Y-119756246D01*
X135293000Y-119829218D01*
X135293000Y-119779088D01*
X135196631Y-119546434D01*
X135018565Y-119368368D01*
X134785911Y-119272000D01*
X134197250Y-119272000D01*
X134039000Y-119430250D01*
X134039000Y-120401000D01*
X134059000Y-120401000D01*
X134059000Y-120659000D01*
X134039000Y-120659000D01*
X134039000Y-120679000D01*
X133781000Y-120679000D01*
X133781000Y-120659000D01*
X132685250Y-120659000D01*
X132527000Y-120817250D01*
X132527000Y-121280912D01*
X132623369Y-121513566D01*
X132801435Y-121691632D01*
X133034089Y-121788000D01*
X133123915Y-121788000D01*
X133039369Y-121872546D01*
X132943000Y-122105200D01*
X132943000Y-122959862D01*
X133101250Y-123118112D01*
X133955000Y-123118112D01*
X133955000Y-123098112D01*
X134213000Y-123098112D01*
X134213000Y-123118112D01*
X135066750Y-123118112D01*
X135225000Y-122959862D01*
X135225000Y-122105200D01*
X135128631Y-121872546D01*
X134968468Y-121712383D01*
X135018565Y-121691632D01*
X135196631Y-121513566D01*
X135293000Y-121280912D01*
X135293000Y-121236558D01*
X135303802Y-121293966D01*
X135385931Y-121421599D01*
X135511246Y-121507223D01*
X135660000Y-121537346D01*
X135745000Y-121537346D01*
X135745000Y-121870781D01*
X135723034Y-121874914D01*
X135595401Y-121957043D01*
X135509777Y-122082358D01*
X135479654Y-122231112D01*
X135479654Y-124263112D01*
X135505802Y-124402078D01*
X135587931Y-124529711D01*
X135713246Y-124615335D01*
X135745000Y-124621765D01*
X135745000Y-128452766D01*
X134541200Y-128452766D01*
X134402234Y-128478914D01*
X134274601Y-128561043D01*
X134188977Y-128686358D01*
X134158854Y-128835112D01*
X134158854Y-130867112D01*
X134185002Y-131006078D01*
X134267131Y-131133711D01*
X134392446Y-131219335D01*
X134541200Y-131249458D01*
X138198800Y-131249458D01*
X138337766Y-131223310D01*
X138465399Y-131141181D01*
X138551023Y-131015866D01*
X138581146Y-130867112D01*
X138581146Y-128835112D01*
X138554998Y-128696146D01*
X138472869Y-128568513D01*
X138347554Y-128482889D01*
X138198800Y-128452766D01*
X136995000Y-128452766D01*
X136995000Y-126017250D01*
X139902000Y-126017250D01*
X139902000Y-126605911D01*
X139998368Y-126838565D01*
X140176434Y-127016631D01*
X140409088Y-127113000D01*
X140872750Y-127113000D01*
X141031000Y-126954750D01*
X141031000Y-125859000D01*
X141289000Y-125859000D01*
X141289000Y-126954750D01*
X141447250Y-127113000D01*
X141910912Y-127113000D01*
X142143566Y-127016631D01*
X142321632Y-126838565D01*
X142418000Y-126605911D01*
X142418000Y-126017250D01*
X142259750Y-125859000D01*
X141289000Y-125859000D01*
X141031000Y-125859000D01*
X140060250Y-125859000D01*
X139902000Y-126017250D01*
X136995000Y-126017250D01*
X136995000Y-124623443D01*
X137016966Y-124619310D01*
X137144599Y-124537181D01*
X137230223Y-124411866D01*
X137260346Y-124263112D01*
X137260346Y-122231112D01*
X137234198Y-122092146D01*
X137152069Y-121964513D01*
X137026754Y-121878889D01*
X136995000Y-121872459D01*
X136995000Y-121537346D01*
X137160000Y-121537346D01*
X137298966Y-121511198D01*
X137426599Y-121429069D01*
X137512223Y-121303754D01*
X137542346Y-121155000D01*
X137542346Y-119905000D01*
X137516198Y-119766034D01*
X137434069Y-119638401D01*
X137308754Y-119552777D01*
X137160000Y-119522654D01*
X137035000Y-119522654D01*
X137035000Y-118993038D01*
X137191342Y-118961940D01*
X137353553Y-118853553D01*
X137532078Y-118675028D01*
X137633677Y-118675117D01*
X137881857Y-118572571D01*
X138071903Y-118382856D01*
X138105547Y-118301833D01*
X138625915Y-118822201D01*
X138214058Y-119234058D01*
X138078575Y-119436823D01*
X138031000Y-119676000D01*
X138031000Y-121870781D01*
X138009034Y-121874914D01*
X137881401Y-121957043D01*
X137795777Y-122082358D01*
X137765654Y-122231112D01*
X137765654Y-124263112D01*
X137791802Y-124402078D01*
X137873931Y-124529711D01*
X137999246Y-124615335D01*
X138148000Y-124645458D01*
X139164000Y-124645458D01*
X139302966Y-124619310D01*
X139430599Y-124537181D01*
X139516223Y-124411866D01*
X139546346Y-124263112D01*
X139546346Y-123855000D01*
X140152654Y-123855000D01*
X140152654Y-123980000D01*
X140178802Y-124118966D01*
X140260931Y-124246599D01*
X140386246Y-124332223D01*
X140459218Y-124347000D01*
X140409088Y-124347000D01*
X140176434Y-124443369D01*
X139998368Y-124621435D01*
X139902000Y-124854089D01*
X139902000Y-125442750D01*
X140060250Y-125601000D01*
X141031000Y-125601000D01*
X141031000Y-125581000D01*
X141289000Y-125581000D01*
X141289000Y-125601000D01*
X142259750Y-125601000D01*
X142418000Y-125442750D01*
X142418000Y-124854089D01*
X142321632Y-124621435D01*
X142143566Y-124443369D01*
X141910912Y-124347000D01*
X141866558Y-124347000D01*
X141923966Y-124336198D01*
X142051599Y-124254069D01*
X142137223Y-124128754D01*
X142167346Y-123980000D01*
X142167346Y-123526362D01*
X143947000Y-123526362D01*
X143947000Y-124381024D01*
X144043369Y-124613678D01*
X144221435Y-124791744D01*
X144454089Y-124888112D01*
X144800750Y-124888112D01*
X144959000Y-124729862D01*
X144959000Y-123368112D01*
X145217000Y-123368112D01*
X145217000Y-124729862D01*
X145375250Y-124888112D01*
X145721911Y-124888112D01*
X145954565Y-124791744D01*
X146132631Y-124613678D01*
X146229000Y-124381024D01*
X146229000Y-123526362D01*
X146070750Y-123368112D01*
X145217000Y-123368112D01*
X144959000Y-123368112D01*
X144105250Y-123368112D01*
X143947000Y-123526362D01*
X142167346Y-123526362D01*
X142167346Y-122480000D01*
X142141198Y-122341034D01*
X142059069Y-122213401D01*
X141933754Y-122127777D01*
X141785000Y-122097654D01*
X140535000Y-122097654D01*
X140396034Y-122123802D01*
X140268401Y-122205931D01*
X140182777Y-122331246D01*
X140152654Y-122480000D01*
X140152654Y-122605000D01*
X139546346Y-122605000D01*
X139546346Y-122231112D01*
X139520198Y-122092146D01*
X139438069Y-121964513D01*
X139312754Y-121878889D01*
X139281000Y-121872459D01*
X139281000Y-119934884D01*
X139768683Y-119447201D01*
X143672602Y-119447201D01*
X143593369Y-119526434D01*
X143497000Y-119759088D01*
X143497000Y-120222750D01*
X143655250Y-120381000D01*
X144751000Y-120381000D01*
X144751000Y-120361000D01*
X145009000Y-120361000D01*
X145009000Y-120381000D01*
X145029000Y-120381000D01*
X145029000Y-120639000D01*
X145009000Y-120639000D01*
X145009000Y-120659000D01*
X144751000Y-120659000D01*
X144751000Y-120639000D01*
X143655250Y-120639000D01*
X143497000Y-120797250D01*
X143497000Y-121260912D01*
X143593369Y-121493566D01*
X143771435Y-121671632D01*
X144004089Y-121768000D01*
X144139915Y-121768000D01*
X144043369Y-121864546D01*
X143947000Y-122097200D01*
X143947000Y-122951862D01*
X144105250Y-123110112D01*
X144959000Y-123110112D01*
X144959000Y-123090112D01*
X145217000Y-123090112D01*
X145217000Y-123110112D01*
X146070750Y-123110112D01*
X146229000Y-122951862D01*
X146229000Y-122097200D01*
X146132631Y-121864546D01*
X145954565Y-121686480D01*
X145953642Y-121686098D01*
X145988565Y-121671632D01*
X146166631Y-121493566D01*
X146263000Y-121260912D01*
X146263000Y-121216558D01*
X146273802Y-121273966D01*
X146355931Y-121401599D01*
X146481246Y-121487223D01*
X146630000Y-121517346D01*
X146749000Y-121517346D01*
X146749000Y-121862781D01*
X146727034Y-121866914D01*
X146599401Y-121949043D01*
X146513777Y-122074358D01*
X146483654Y-122223112D01*
X146483654Y-124255112D01*
X146509802Y-124394078D01*
X146591931Y-124521711D01*
X146717246Y-124607335D01*
X146749000Y-124613765D01*
X146749000Y-128444766D01*
X145545200Y-128444766D01*
X145406234Y-128470914D01*
X145278601Y-128553043D01*
X145192977Y-128678358D01*
X145162854Y-128827112D01*
X145162854Y-130859112D01*
X145189002Y-130998078D01*
X145271131Y-131125711D01*
X145396446Y-131211335D01*
X145545200Y-131241458D01*
X149202800Y-131241458D01*
X149341766Y-131215310D01*
X149469399Y-131133181D01*
X149555023Y-131007866D01*
X149585146Y-130859112D01*
X149585146Y-130057256D01*
X155759757Y-130057256D01*
X155972445Y-130572000D01*
X156365928Y-130966170D01*
X156880301Y-131179757D01*
X157437256Y-131180243D01*
X157952000Y-130967555D01*
X158346170Y-130574072D01*
X158491243Y-130224698D01*
X158599684Y-130487143D01*
X158951007Y-130839081D01*
X159410269Y-131029783D01*
X159907550Y-131030217D01*
X160367143Y-130840316D01*
X160719081Y-130488993D01*
X160909783Y-130029731D01*
X160909785Y-130027555D01*
X161099684Y-130487143D01*
X161451007Y-130839081D01*
X161910269Y-131029783D01*
X162407550Y-131030217D01*
X162867143Y-130840316D01*
X163219081Y-130488993D01*
X163409783Y-130029731D01*
X163410217Y-129532450D01*
X163220316Y-129072857D01*
X162868993Y-128720919D01*
X162409731Y-128530217D01*
X161912450Y-128529783D01*
X161452857Y-128719684D01*
X161100919Y-129071007D01*
X160910217Y-129530269D01*
X160910215Y-129532445D01*
X160720316Y-129072857D01*
X160368993Y-128720919D01*
X159909731Y-128530217D01*
X159412450Y-128529783D01*
X158952857Y-128719684D01*
X158600919Y-129071007D01*
X158491116Y-129335443D01*
X158347555Y-128988000D01*
X157954072Y-128593830D01*
X157439699Y-128380243D01*
X156882744Y-128379757D01*
X156368000Y-128592445D01*
X155973830Y-128985928D01*
X155760243Y-129500301D01*
X155759757Y-130057256D01*
X149585146Y-130057256D01*
X149585146Y-128827112D01*
X149558998Y-128688146D01*
X149476869Y-128560513D01*
X149351554Y-128474889D01*
X149202800Y-128444766D01*
X147999000Y-128444766D01*
X147999000Y-126017250D01*
X150902000Y-126017250D01*
X150902000Y-126605911D01*
X150998368Y-126838565D01*
X151176434Y-127016631D01*
X151409088Y-127113000D01*
X151872750Y-127113000D01*
X152031000Y-126954750D01*
X152031000Y-125859000D01*
X152289000Y-125859000D01*
X152289000Y-126954750D01*
X152447250Y-127113000D01*
X152910912Y-127113000D01*
X153143566Y-127016631D01*
X153321632Y-126838565D01*
X153418000Y-126605911D01*
X153418000Y-126017250D01*
X153259750Y-125859000D01*
X152289000Y-125859000D01*
X152031000Y-125859000D01*
X151060250Y-125859000D01*
X150902000Y-126017250D01*
X147999000Y-126017250D01*
X147999000Y-124615443D01*
X148020966Y-124611310D01*
X148148599Y-124529181D01*
X148234223Y-124403866D01*
X148264346Y-124255112D01*
X148264346Y-122223112D01*
X148616715Y-122223112D01*
X148616715Y-124255112D01*
X148653323Y-124449665D01*
X148768304Y-124628351D01*
X148943744Y-124748224D01*
X149152000Y-124790397D01*
X150168000Y-124790397D01*
X150362553Y-124753789D01*
X150541239Y-124638808D01*
X150661112Y-124463368D01*
X150703285Y-124255112D01*
X150703285Y-124005000D01*
X151004419Y-124005000D01*
X151036323Y-124174553D01*
X151151304Y-124353239D01*
X151242913Y-124415832D01*
X151176434Y-124443369D01*
X150998368Y-124621435D01*
X150902000Y-124854089D01*
X150902000Y-125442750D01*
X151060250Y-125601000D01*
X152031000Y-125601000D01*
X152031000Y-125581000D01*
X152289000Y-125581000D01*
X152289000Y-125601000D01*
X153259750Y-125601000D01*
X153418000Y-125442750D01*
X153418000Y-124854089D01*
X153321632Y-124621435D01*
X153143566Y-124443369D01*
X153077166Y-124415865D01*
X153158239Y-124363696D01*
X153278112Y-124188256D01*
X153315222Y-124005000D01*
X155710000Y-124005000D01*
X156006580Y-123946007D01*
X156258008Y-123778008D01*
X156863313Y-123172703D01*
X156880301Y-123179757D01*
X157437256Y-123180243D01*
X157952000Y-122967555D01*
X158346170Y-122574072D01*
X158491243Y-122224698D01*
X158599684Y-122487143D01*
X158951007Y-122839081D01*
X159410269Y-123029783D01*
X159907550Y-123030217D01*
X160367143Y-122840316D01*
X160719081Y-122488993D01*
X160909783Y-122029731D01*
X160909785Y-122027555D01*
X161099684Y-122487143D01*
X161451007Y-122839081D01*
X161910269Y-123029783D01*
X162407550Y-123030217D01*
X162867143Y-122840316D01*
X163219081Y-122488993D01*
X163409783Y-122029731D01*
X163410217Y-121532450D01*
X163220316Y-121072857D01*
X162868993Y-120720919D01*
X162409731Y-120530217D01*
X161912450Y-120529783D01*
X161452857Y-120719684D01*
X161100919Y-121071007D01*
X160910217Y-121530269D01*
X160910215Y-121532445D01*
X160720316Y-121072857D01*
X160368993Y-120720919D01*
X159909731Y-120530217D01*
X159412450Y-120529783D01*
X158952857Y-120719684D01*
X158600919Y-121071007D01*
X158491116Y-121335443D01*
X158347555Y-120988000D01*
X157954072Y-120593830D01*
X157439699Y-120380243D01*
X156882744Y-120379757D01*
X156368000Y-120592445D01*
X155973830Y-120985928D01*
X155760243Y-121500301D01*
X155759757Y-122057256D01*
X155767643Y-122076341D01*
X155388984Y-122455000D01*
X153315581Y-122455000D01*
X153283677Y-122285447D01*
X153168696Y-122106761D01*
X152993256Y-121986888D01*
X152785000Y-121944715D01*
X151535000Y-121944715D01*
X151340447Y-121981323D01*
X151161761Y-122096304D01*
X151041888Y-122271744D01*
X151004778Y-122455000D01*
X150703285Y-122455000D01*
X150703285Y-122223112D01*
X150666677Y-122028559D01*
X150551696Y-121849873D01*
X150376256Y-121730000D01*
X150168000Y-121687827D01*
X149152000Y-121687827D01*
X148957447Y-121724435D01*
X148778761Y-121839416D01*
X148658888Y-122014856D01*
X148616715Y-122223112D01*
X148264346Y-122223112D01*
X148238198Y-122084146D01*
X148156069Y-121956513D01*
X148030754Y-121870889D01*
X147999000Y-121864459D01*
X147999000Y-121517346D01*
X148130000Y-121517346D01*
X148268966Y-121491198D01*
X148396599Y-121409069D01*
X148482223Y-121283754D01*
X148512346Y-121135000D01*
X148512346Y-120983675D01*
X148571342Y-120971940D01*
X148733553Y-120863553D01*
X150097107Y-119500000D01*
X154661870Y-119500000D01*
X154853212Y-119461940D01*
X155015423Y-119353553D01*
X159048976Y-115320000D01*
X168241749Y-115320000D01*
X168336032Y-115793992D01*
X168604527Y-116195822D01*
X169006357Y-116464317D01*
X169480349Y-116558600D01*
X169839651Y-116558600D01*
X170313643Y-116464317D01*
X170715473Y-116195822D01*
X170983968Y-115793992D01*
X171078251Y-115320000D01*
X170983968Y-114846008D01*
X170715473Y-114444178D01*
X170313643Y-114175683D01*
X169839651Y-114081400D01*
X169480349Y-114081400D01*
X169006357Y-114175683D01*
X168604527Y-114444178D01*
X168336032Y-114846008D01*
X168241749Y-115320000D01*
X159048976Y-115320000D01*
X161402020Y-112966957D01*
X161503618Y-112967046D01*
X161751798Y-112864500D01*
X161836445Y-112780000D01*
X168241749Y-112780000D01*
X168336032Y-113253992D01*
X168604527Y-113655822D01*
X169006357Y-113924317D01*
X169480349Y-114018600D01*
X169839651Y-114018600D01*
X170313643Y-113924317D01*
X170715473Y-113655822D01*
X170983968Y-113253992D01*
X171078251Y-112780000D01*
X170983968Y-112306008D01*
X170715473Y-111904178D01*
X170313643Y-111635683D01*
X169839651Y-111541400D01*
X169480349Y-111541400D01*
X169006357Y-111635683D01*
X168604527Y-111904178D01*
X168336032Y-112306008D01*
X168241749Y-112780000D01*
X161836445Y-112780000D01*
X161941844Y-112674785D01*
X162044824Y-112426784D01*
X162045058Y-112158252D01*
X161942512Y-111910072D01*
X161752797Y-111720026D01*
X161504796Y-111617046D01*
X161236264Y-111616812D01*
X160988084Y-111719358D01*
X160798038Y-111909073D01*
X160695058Y-112157074D01*
X160694968Y-112259795D01*
X154454764Y-118500000D01*
X149890000Y-118500000D01*
X149698658Y-118538060D01*
X149536446Y-118646447D01*
X148466880Y-119716013D01*
X148404069Y-119618401D01*
X148278754Y-119532777D01*
X148130000Y-119502654D01*
X147131538Y-119502654D01*
X146009143Y-118380259D01*
X145806378Y-118244776D01*
X145567201Y-118197201D01*
X139768682Y-118197201D01*
X138038572Y-116467090D01*
X138038572Y-112269858D01*
X138063572Y-112269858D01*
X138202538Y-112243710D01*
X138330171Y-112161581D01*
X138415795Y-112036266D01*
X138445918Y-111887512D01*
X138445918Y-110387512D01*
X138419770Y-110248546D01*
X138337641Y-110120913D01*
X138212326Y-110035289D01*
X138063572Y-110005166D01*
X136763572Y-110005166D01*
X136624606Y-110031314D01*
X136496973Y-110113443D01*
X136411349Y-110238758D01*
X136381226Y-110387512D01*
X136381226Y-111378749D01*
X136288452Y-111285975D01*
X136288452Y-110387512D01*
X136262304Y-110248546D01*
X136180175Y-110120913D01*
X136054860Y-110035289D01*
X135906106Y-110005166D01*
X134792272Y-110005166D01*
X134485475Y-109698369D01*
X134606106Y-109722797D01*
X135906106Y-109722797D01*
X136100659Y-109686189D01*
X136279345Y-109571208D01*
X136334583Y-109490364D01*
X136379876Y-109560751D01*
X136555316Y-109680624D01*
X136763572Y-109722797D01*
X138063572Y-109722797D01*
X138258125Y-109686189D01*
X138436811Y-109571208D01*
X138556684Y-109395768D01*
X138595063Y-109206248D01*
X138860152Y-109153519D01*
X139111580Y-108985520D01*
X143122100Y-104975000D01*
X143329126Y-104975000D01*
X143307777Y-105006246D01*
X143277654Y-105155000D01*
X143277654Y-106405000D01*
X143303802Y-106543966D01*
X143385931Y-106671599D01*
X143511246Y-106757223D01*
X143660000Y-106787346D01*
X143910000Y-106787346D01*
X143910000Y-106823336D01*
X143841667Y-106987899D01*
X143841433Y-107256431D01*
X143910152Y-107422744D01*
X140980845Y-107422744D01*
X140789503Y-107460804D01*
X140627292Y-107569191D01*
X139056436Y-109140047D01*
X138948049Y-109302258D01*
X138909989Y-109493600D01*
X138909989Y-114693977D01*
X138927100Y-114780000D01*
X138948049Y-114885319D01*
X139056436Y-115047530D01*
X140809724Y-116800819D01*
X140809661Y-116872218D01*
X140665327Y-116812285D01*
X140396795Y-116812051D01*
X140148615Y-116914597D01*
X139958569Y-117104312D01*
X139855589Y-117352313D01*
X139855355Y-117620845D01*
X139957901Y-117869025D01*
X140147616Y-118059071D01*
X140395617Y-118162051D01*
X140664149Y-118162285D01*
X140912329Y-118059739D01*
X140985027Y-117987168D01*
X143406836Y-117987168D01*
X143598178Y-117949108D01*
X143760389Y-117840721D01*
X144353554Y-117247557D01*
X144353556Y-117247554D01*
X145663554Y-115937557D01*
X145771940Y-115775346D01*
X145810000Y-115584004D01*
X145810000Y-115287346D01*
X146060000Y-115287346D01*
X146198966Y-115261198D01*
X146326599Y-115179069D01*
X146368838Y-115117250D01*
X153002000Y-115117250D01*
X153002000Y-115705911D01*
X153098368Y-115938565D01*
X153276434Y-116116631D01*
X153509088Y-116213000D01*
X153972750Y-116213000D01*
X154131000Y-116054750D01*
X154131000Y-114959000D01*
X154389000Y-114959000D01*
X154389000Y-116054750D01*
X154547250Y-116213000D01*
X155010912Y-116213000D01*
X155243566Y-116116631D01*
X155421632Y-115938565D01*
X155518000Y-115705911D01*
X155518000Y-115117250D01*
X155359750Y-114959000D01*
X154389000Y-114959000D01*
X154131000Y-114959000D01*
X153160250Y-114959000D01*
X153002000Y-115117250D01*
X146368838Y-115117250D01*
X146412223Y-115053754D01*
X146442346Y-114905000D01*
X146442346Y-113655000D01*
X146416198Y-113516034D01*
X146334069Y-113388401D01*
X146208754Y-113302777D01*
X146134388Y-113287718D01*
X147104856Y-112317250D01*
X147802000Y-112317250D01*
X147802000Y-112905911D01*
X147898368Y-113138565D01*
X148076434Y-113316631D01*
X148309088Y-113413000D01*
X148772750Y-113413000D01*
X148931000Y-113254750D01*
X148931000Y-112159000D01*
X149189000Y-112159000D01*
X149189000Y-113254750D01*
X149347250Y-113413000D01*
X149810912Y-113413000D01*
X150043566Y-113316631D01*
X150221632Y-113138565D01*
X150318000Y-112905911D01*
X150318000Y-112317250D01*
X150159750Y-112159000D01*
X149189000Y-112159000D01*
X148931000Y-112159000D01*
X147960250Y-112159000D01*
X147802000Y-112317250D01*
X147104856Y-112317250D01*
X147802000Y-111620107D01*
X147802000Y-111742750D01*
X147960250Y-111901000D01*
X148931000Y-111901000D01*
X148931000Y-111881000D01*
X149189000Y-111881000D01*
X149189000Y-111901000D01*
X150159750Y-111901000D01*
X150318000Y-111742750D01*
X150318000Y-111154089D01*
X150221632Y-110921435D01*
X150043566Y-110743369D01*
X149810912Y-110647000D01*
X149766558Y-110647000D01*
X149823966Y-110636198D01*
X149951599Y-110554069D01*
X150037223Y-110428754D01*
X150067346Y-110280000D01*
X150067346Y-110030000D01*
X150202894Y-110030000D01*
X152184972Y-112012078D01*
X152184883Y-112113677D01*
X152287429Y-112361857D01*
X152477144Y-112551903D01*
X152725145Y-112654883D01*
X152827866Y-112654973D01*
X152856447Y-112683554D01*
X153018658Y-112791940D01*
X153210000Y-112830000D01*
X153252654Y-112830000D01*
X153252654Y-113080000D01*
X153278802Y-113218966D01*
X153360931Y-113346599D01*
X153486246Y-113432223D01*
X153559218Y-113447000D01*
X153509088Y-113447000D01*
X153276434Y-113543369D01*
X153098368Y-113721435D01*
X153002000Y-113954089D01*
X153002000Y-114542750D01*
X153160250Y-114701000D01*
X154131000Y-114701000D01*
X154131000Y-114681000D01*
X154389000Y-114681000D01*
X154389000Y-114701000D01*
X155359750Y-114701000D01*
X155518000Y-114542750D01*
X155518000Y-113954089D01*
X155421632Y-113721435D01*
X155243566Y-113543369D01*
X155010912Y-113447000D01*
X154966558Y-113447000D01*
X155023966Y-113436198D01*
X155151599Y-113354069D01*
X155237223Y-113228754D01*
X155267346Y-113080000D01*
X155267346Y-111580000D01*
X155241198Y-111441034D01*
X155159069Y-111313401D01*
X155033754Y-111227777D01*
X154885000Y-111197654D01*
X153635000Y-111197654D01*
X153496034Y-111223802D01*
X153368401Y-111305931D01*
X153282777Y-111431246D01*
X153279942Y-111445247D01*
X153242856Y-111408097D01*
X152994855Y-111305117D01*
X152892134Y-111305027D01*
X150763553Y-109176447D01*
X150601342Y-109068060D01*
X150410000Y-109030000D01*
X150067346Y-109030000D01*
X150067346Y-108906860D01*
X155324881Y-108906860D01*
X155427427Y-109155040D01*
X155480137Y-109207842D01*
X155428097Y-109259791D01*
X155325117Y-109507792D01*
X155324883Y-109776324D01*
X155427429Y-110024504D01*
X155617144Y-110214550D01*
X155865145Y-110317530D01*
X155967866Y-110317620D01*
X156783625Y-111133379D01*
X156879820Y-111197654D01*
X156945836Y-111241765D01*
X157137178Y-111279825D01*
X158578380Y-111279825D01*
X158650158Y-111351728D01*
X158898159Y-111454708D01*
X159166691Y-111454942D01*
X159414871Y-111352396D01*
X159604917Y-111162681D01*
X159707897Y-110914680D01*
X159708131Y-110646148D01*
X159605585Y-110397968D01*
X159415870Y-110207922D01*
X159167869Y-110104942D01*
X158899337Y-110104708D01*
X158651157Y-110207254D01*
X158578459Y-110279825D01*
X157344285Y-110279825D01*
X156675028Y-109610569D01*
X156675117Y-109508970D01*
X156577692Y-109273183D01*
X163116472Y-109273183D01*
X163215518Y-109372228D01*
X163215429Y-109473827D01*
X163317975Y-109722007D01*
X163507690Y-109912053D01*
X163755691Y-110015033D01*
X164024223Y-110015267D01*
X164272403Y-109912721D01*
X164462449Y-109723006D01*
X164565429Y-109475005D01*
X164565663Y-109206473D01*
X164463117Y-108958293D01*
X164273402Y-108768247D01*
X164025401Y-108665267D01*
X163922680Y-108665177D01*
X163677132Y-108419630D01*
X163514921Y-108311243D01*
X163323579Y-108273183D01*
X156454632Y-108273183D01*
X156382854Y-108201280D01*
X156134853Y-108098300D01*
X155866321Y-108098066D01*
X155618141Y-108200612D01*
X155428095Y-108390327D01*
X155325115Y-108638328D01*
X155324881Y-108906860D01*
X150067346Y-108906860D01*
X150067346Y-108780000D01*
X150041198Y-108641034D01*
X149959069Y-108513401D01*
X149833754Y-108427777D01*
X149685000Y-108397654D01*
X148435000Y-108397654D01*
X148296034Y-108423802D01*
X148168401Y-108505931D01*
X148082777Y-108631246D01*
X148052654Y-108780000D01*
X148052654Y-109030000D01*
X147235872Y-109030000D01*
X145189356Y-106983484D01*
X145108313Y-106787346D01*
X145160000Y-106787346D01*
X145298966Y-106761198D01*
X145426599Y-106679069D01*
X145512223Y-106553754D01*
X145527000Y-106480782D01*
X145527000Y-106530912D01*
X145623369Y-106763566D01*
X145801435Y-106941632D01*
X146034089Y-107038000D01*
X146622750Y-107038000D01*
X146781000Y-106879750D01*
X146781000Y-105909000D01*
X147039000Y-105909000D01*
X147039000Y-106879750D01*
X147197250Y-107038000D01*
X147785911Y-107038000D01*
X148018565Y-106941632D01*
X148196631Y-106763566D01*
X148293000Y-106530912D01*
X148293000Y-106067250D01*
X148134750Y-105909000D01*
X147039000Y-105909000D01*
X146781000Y-105909000D01*
X146761000Y-105909000D01*
X146761000Y-105651000D01*
X146781000Y-105651000D01*
X146781000Y-105631000D01*
X147039000Y-105631000D01*
X147039000Y-105651000D01*
X148134750Y-105651000D01*
X148293000Y-105492750D01*
X148293000Y-105029088D01*
X148270596Y-104975000D01*
X155098984Y-104975000D01*
X155451992Y-105328008D01*
X155703420Y-105496007D01*
X156000000Y-105555000D01*
X168465421Y-105555000D01*
X168472445Y-105572000D01*
X168865928Y-105966170D01*
X169380301Y-106179757D01*
X169937256Y-106180243D01*
X170452000Y-105967555D01*
X170846170Y-105574072D01*
X171059757Y-105059699D01*
X171060243Y-104502744D01*
X170847555Y-103988000D01*
X170454072Y-103593830D01*
X170104698Y-103448757D01*
X170367143Y-103340316D01*
X170719081Y-102988993D01*
X170909783Y-102529731D01*
X170910217Y-102032450D01*
X170720316Y-101572857D01*
X170368993Y-101220919D01*
X169909731Y-101030217D01*
X169907555Y-101030215D01*
X170367143Y-100840316D01*
X170719081Y-100488993D01*
X170909783Y-100029731D01*
X170910217Y-99532450D01*
X170720316Y-99072857D01*
X170368993Y-98720919D01*
X169909731Y-98530217D01*
X169907555Y-98530215D01*
X170367143Y-98340316D01*
X170719081Y-97988993D01*
X170909783Y-97529731D01*
X170910217Y-97032450D01*
X170720316Y-96572857D01*
X170368993Y-96220919D01*
X169909731Y-96030217D01*
X169412450Y-96029783D01*
X168952857Y-96219684D01*
X168600919Y-96571007D01*
X168410217Y-97030269D01*
X168409783Y-97527550D01*
X168599684Y-97987143D01*
X168951007Y-98339081D01*
X169410269Y-98529783D01*
X169412445Y-98529785D01*
X168952857Y-98719684D01*
X168600919Y-99071007D01*
X168410217Y-99530269D01*
X168409783Y-100027550D01*
X168599684Y-100487143D01*
X168951007Y-100839081D01*
X169410269Y-101029783D01*
X169412445Y-101029785D01*
X168952857Y-101219684D01*
X168600919Y-101571007D01*
X168410217Y-102030269D01*
X168409783Y-102527550D01*
X168599684Y-102987143D01*
X168951007Y-103339081D01*
X169215443Y-103448884D01*
X168868000Y-103592445D01*
X168473830Y-103985928D01*
X168465911Y-104005000D01*
X163432349Y-104005000D01*
X163715473Y-103815822D01*
X163983968Y-103413992D01*
X164078251Y-102940000D01*
X163983968Y-102466008D01*
X163715473Y-102064178D01*
X163313643Y-101795683D01*
X162839651Y-101701400D01*
X162480349Y-101701400D01*
X162006357Y-101795683D01*
X161604527Y-102064178D01*
X161353410Y-102440000D01*
X153479383Y-102440000D01*
X153394738Y-102355207D01*
X153146737Y-102252227D01*
X152878205Y-102251993D01*
X152630025Y-102354539D01*
X152439979Y-102544254D01*
X152336999Y-102792255D01*
X152336765Y-103060787D01*
X152439311Y-103308967D01*
X152555142Y-103425000D01*
X144683219Y-103425000D01*
X144699893Y-103384845D01*
X144699983Y-103282124D01*
X145619761Y-102362346D01*
X146310000Y-102362346D01*
X146448966Y-102336198D01*
X146576599Y-102254069D01*
X146661130Y-102130354D01*
X146735931Y-102246599D01*
X146861246Y-102332223D01*
X147010000Y-102362346D01*
X148310000Y-102362346D01*
X148448966Y-102336198D01*
X148576599Y-102254069D01*
X148662223Y-102128754D01*
X148692346Y-101980000D01*
X148692346Y-101413677D01*
X157984883Y-101413677D01*
X158087429Y-101661857D01*
X158277144Y-101851903D01*
X158525145Y-101954883D01*
X158793677Y-101955117D01*
X159041857Y-101852571D01*
X159114555Y-101780000D01*
X161780000Y-101780000D01*
X161971342Y-101741940D01*
X162133553Y-101633553D01*
X162186881Y-101580225D01*
X162480349Y-101638600D01*
X162839651Y-101638600D01*
X163313643Y-101544317D01*
X163715473Y-101275822D01*
X163983968Y-100873992D01*
X164078251Y-100400000D01*
X163983968Y-99926008D01*
X163715473Y-99524178D01*
X163313643Y-99255683D01*
X162839651Y-99161400D01*
X162480349Y-99161400D01*
X162006357Y-99255683D01*
X161604527Y-99524178D01*
X161336032Y-99926008D01*
X161241749Y-100400000D01*
X161317336Y-100780000D01*
X159114634Y-100780000D01*
X159042856Y-100708097D01*
X158794855Y-100605117D01*
X158526323Y-100604883D01*
X158278143Y-100707429D01*
X158088097Y-100897144D01*
X157985117Y-101145145D01*
X157984883Y-101413677D01*
X148692346Y-101413677D01*
X148692346Y-100480000D01*
X148666198Y-100341034D01*
X148584069Y-100213401D01*
X148458754Y-100127777D01*
X148310000Y-100097654D01*
X147010000Y-100097654D01*
X146871034Y-100123802D01*
X146743401Y-100205931D01*
X146658870Y-100329646D01*
X146584069Y-100213401D01*
X146458754Y-100127777D01*
X146346281Y-100105001D01*
X146684999Y-100105001D01*
X146876341Y-100066941D01*
X147038552Y-99958554D01*
X147334760Y-99662346D01*
X148310000Y-99662346D01*
X148448966Y-99636198D01*
X148576599Y-99554069D01*
X148662223Y-99428754D01*
X148692346Y-99280000D01*
X148692346Y-99030000D01*
X152970000Y-99030000D01*
X153161342Y-98991940D01*
X153323553Y-98883553D01*
X154347106Y-97860000D01*
X161241749Y-97860000D01*
X161336032Y-98333992D01*
X161604527Y-98735822D01*
X162006357Y-99004317D01*
X162480349Y-99098600D01*
X162839651Y-99098600D01*
X163313643Y-99004317D01*
X163715473Y-98735822D01*
X163983968Y-98333992D01*
X164078251Y-97860000D01*
X163983968Y-97386008D01*
X163715473Y-96984178D01*
X163313643Y-96715683D01*
X162839651Y-96621400D01*
X162480349Y-96621400D01*
X162006357Y-96715683D01*
X161604527Y-96984178D01*
X161336032Y-97386008D01*
X161241749Y-97860000D01*
X154347106Y-97860000D01*
X159427106Y-92780000D01*
X161241749Y-92780000D01*
X161336032Y-93253992D01*
X161604527Y-93655822D01*
X162006357Y-93924317D01*
X162480349Y-94018600D01*
X162839651Y-94018600D01*
X163313643Y-93924317D01*
X163715473Y-93655822D01*
X163983968Y-93253992D01*
X164078251Y-92780000D01*
X163983968Y-92306008D01*
X163715473Y-91904178D01*
X163313643Y-91635683D01*
X162839651Y-91541400D01*
X162480349Y-91541400D01*
X162006357Y-91635683D01*
X161604527Y-91904178D01*
X161336032Y-92306008D01*
X161241749Y-92780000D01*
X159427106Y-92780000D01*
X161261654Y-90945453D01*
X161261654Y-91103600D01*
X161287802Y-91242566D01*
X161369931Y-91370199D01*
X161495246Y-91455823D01*
X161644000Y-91485946D01*
X163676000Y-91485946D01*
X163814966Y-91459798D01*
X163942599Y-91377669D01*
X164028223Y-91252354D01*
X164058346Y-91103600D01*
X164058346Y-89376400D01*
X164032198Y-89237434D01*
X163950069Y-89109801D01*
X163824754Y-89024177D01*
X163676000Y-88994054D01*
X161644000Y-88994054D01*
X161505034Y-89020202D01*
X161377401Y-89102331D01*
X161291777Y-89227646D01*
X161261654Y-89376400D01*
X161261654Y-89740000D01*
X161260000Y-89740000D01*
X161068658Y-89778060D01*
X160906446Y-89886447D01*
X152762894Y-98030000D01*
X148692346Y-98030000D01*
X148692346Y-97780000D01*
X148666198Y-97641034D01*
X148584069Y-97513401D01*
X148458754Y-97427777D01*
X148310000Y-97397654D01*
X147010000Y-97397654D01*
X146871034Y-97423802D01*
X146852541Y-97435702D01*
X146846632Y-97421435D01*
X146668566Y-97243369D01*
X146435912Y-97147000D01*
X145947250Y-97147000D01*
X145789000Y-97305250D01*
X145789000Y-98401000D01*
X145809000Y-98401000D01*
X145809000Y-98659000D01*
X145789000Y-98659000D01*
X145789000Y-98679000D01*
X145531000Y-98679000D01*
X145531000Y-98659000D01*
X144535250Y-98659000D01*
X144377000Y-98817250D01*
X144377000Y-99405911D01*
X144473368Y-99638565D01*
X144533849Y-99699046D01*
X138452894Y-105780000D01*
X135114634Y-105780000D01*
X135042856Y-105708097D01*
X134794855Y-105605117D01*
X134526323Y-105604883D01*
X134278143Y-105707429D01*
X134088097Y-105897144D01*
X134036357Y-106021747D01*
X133435000Y-105420390D01*
X133435000Y-97654089D01*
X144377000Y-97654089D01*
X144377000Y-98242750D01*
X144535250Y-98401000D01*
X145531000Y-98401000D01*
X145531000Y-97305250D01*
X145372750Y-97147000D01*
X144884088Y-97147000D01*
X144651434Y-97243369D01*
X144473368Y-97421435D01*
X144377000Y-97654089D01*
X133435000Y-97654089D01*
X133435000Y-97280000D01*
X133376007Y-96983420D01*
X133208008Y-96731992D01*
X131552703Y-95076687D01*
X131559757Y-95059699D01*
X131560243Y-94502744D01*
X131347555Y-93988000D01*
X130954072Y-93593830D01*
X130439699Y-93380243D01*
X129882744Y-93379757D01*
X129368000Y-93592445D01*
X128973830Y-93985928D01*
X128760243Y-94500301D01*
X128759757Y-95057256D01*
X125450000Y-95057256D01*
X125450000Y-90100349D01*
X140421400Y-90100349D01*
X140421400Y-90459651D01*
X140515683Y-90933643D01*
X140784178Y-91335473D01*
X141186008Y-91603968D01*
X141660000Y-91698251D01*
X142133992Y-91603968D01*
X142535822Y-91335473D01*
X142804317Y-90933643D01*
X142898600Y-90459651D01*
X142898600Y-90100349D01*
X142961400Y-90100349D01*
X142961400Y-90459651D01*
X143055683Y-90933643D01*
X143324178Y-91335473D01*
X143726008Y-91603968D01*
X144200000Y-91698251D01*
X144673992Y-91603968D01*
X145075822Y-91335473D01*
X145344317Y-90933643D01*
X145438600Y-90459651D01*
X145438600Y-90100349D01*
X152921400Y-90100349D01*
X152921400Y-90459651D01*
X153015683Y-90933643D01*
X153284178Y-91335473D01*
X153686008Y-91603968D01*
X154160000Y-91698251D01*
X154633992Y-91603968D01*
X155035822Y-91335473D01*
X155304317Y-90933643D01*
X155398600Y-90459651D01*
X155398600Y-90100349D01*
X155461400Y-90100349D01*
X155461400Y-90459651D01*
X155555683Y-90933643D01*
X155824178Y-91335473D01*
X156226008Y-91603968D01*
X156700000Y-91698251D01*
X157173992Y-91603968D01*
X157575822Y-91335473D01*
X157844317Y-90933643D01*
X157938600Y-90459651D01*
X157938600Y-90100349D01*
X157844317Y-89626357D01*
X157575822Y-89224527D01*
X157173992Y-88956032D01*
X156700000Y-88861749D01*
X156226008Y-88956032D01*
X155824178Y-89224527D01*
X155555683Y-89626357D01*
X155461400Y-90100349D01*
X155398600Y-90100349D01*
X155304317Y-89626357D01*
X155035822Y-89224527D01*
X154633992Y-88956032D01*
X154160000Y-88861749D01*
X153686008Y-88956032D01*
X153284178Y-89224527D01*
X153015683Y-89626357D01*
X152921400Y-90100349D01*
X145438600Y-90100349D01*
X145344317Y-89626357D01*
X145075822Y-89224527D01*
X144673992Y-88956032D01*
X144200000Y-88861749D01*
X143726008Y-88956032D01*
X143324178Y-89224527D01*
X143055683Y-89626357D01*
X142961400Y-90100349D01*
X142898600Y-90100349D01*
X142804317Y-89626357D01*
X142535822Y-89224527D01*
X142133992Y-88956032D01*
X141660000Y-88861749D01*
X141186008Y-88956032D01*
X140784178Y-89224527D01*
X140515683Y-89626357D01*
X140421400Y-90100349D01*
X125450000Y-90100349D01*
X125450000Y-85450000D01*
X174550000Y-85450000D01*
X174550000Y-134550000D01*
X174550000Y-134550000D01*
G37*
X174550000Y-134550000D02*
X125450000Y-134550000D01*
X125450000Y-123534362D01*
X132943000Y-123534362D01*
X132943000Y-124389024D01*
X133039369Y-124621678D01*
X133217435Y-124799744D01*
X133450089Y-124896112D01*
X133796750Y-124896112D01*
X133955000Y-124737862D01*
X133955000Y-123376112D01*
X134213000Y-123376112D01*
X134213000Y-124737862D01*
X134371250Y-124896112D01*
X134717911Y-124896112D01*
X134950565Y-124799744D01*
X135128631Y-124621678D01*
X135225000Y-124389024D01*
X135225000Y-123534362D01*
X135066750Y-123376112D01*
X134213000Y-123376112D01*
X133955000Y-123376112D01*
X133101250Y-123376112D01*
X132943000Y-123534362D01*
X125450000Y-123534362D01*
X125450000Y-119779088D01*
X132527000Y-119779088D01*
X132527000Y-120242750D01*
X132685250Y-120401000D01*
X133781000Y-120401000D01*
X133781000Y-119430250D01*
X133622750Y-119272000D01*
X133034089Y-119272000D01*
X132801435Y-119368368D01*
X132623369Y-119546434D01*
X132527000Y-119779088D01*
X125450000Y-119779088D01*
X125450000Y-115320000D01*
X128741749Y-115320000D01*
X128836032Y-115793992D01*
X129104527Y-116195822D01*
X129506357Y-116464317D01*
X129980349Y-116558600D01*
X130339651Y-116558600D01*
X130813643Y-116464317D01*
X131215473Y-116195822D01*
X131483968Y-115793992D01*
X131578251Y-115320000D01*
X131483968Y-114846008D01*
X131215473Y-114444178D01*
X130813643Y-114175683D01*
X130339651Y-114081400D01*
X129980349Y-114081400D01*
X129506357Y-114175683D01*
X129104527Y-114444178D01*
X128836032Y-114846008D01*
X128741749Y-115320000D01*
X125450000Y-115320000D01*
X125450000Y-112780000D01*
X128741749Y-112780000D01*
X128836032Y-113253992D01*
X129104527Y-113655822D01*
X129506357Y-113924317D01*
X129980349Y-114018600D01*
X130339651Y-114018600D01*
X130813643Y-113924317D01*
X131215473Y-113655822D01*
X131483968Y-113253992D01*
X131578251Y-112780000D01*
X131483968Y-112306008D01*
X131215473Y-111904178D01*
X130813643Y-111635683D01*
X130339651Y-111541400D01*
X129980349Y-111541400D01*
X129506357Y-111635683D01*
X129104527Y-111904178D01*
X128836032Y-112306008D01*
X128741749Y-112780000D01*
X125450000Y-112780000D01*
X125450000Y-95057256D01*
X128759757Y-95057256D01*
X128972445Y-95572000D01*
X129365928Y-95966170D01*
X129715302Y-96111243D01*
X129452857Y-96219684D01*
X129100919Y-96571007D01*
X128910217Y-97030269D01*
X128909783Y-97527550D01*
X129099684Y-97987143D01*
X129451007Y-98339081D01*
X129910269Y-98529783D01*
X129912445Y-98529785D01*
X129452857Y-98719684D01*
X129100919Y-99071007D01*
X128910217Y-99530269D01*
X128909783Y-100027550D01*
X129099684Y-100487143D01*
X129451007Y-100839081D01*
X129910269Y-101029783D01*
X129912445Y-101029785D01*
X129452857Y-101219684D01*
X129100919Y-101571007D01*
X128910217Y-102030269D01*
X128909783Y-102527550D01*
X129099684Y-102987143D01*
X129451007Y-103339081D01*
X129910269Y-103529783D01*
X130407550Y-103530217D01*
X130867143Y-103340316D01*
X131219081Y-102988993D01*
X131409783Y-102529731D01*
X131410217Y-102032450D01*
X131220316Y-101572857D01*
X130868993Y-101220919D01*
X130409731Y-101030217D01*
X130407555Y-101030215D01*
X130867143Y-100840316D01*
X131219081Y-100488993D01*
X131409783Y-100029731D01*
X131410217Y-99532450D01*
X131220316Y-99072857D01*
X130868993Y-98720919D01*
X130409731Y-98530217D01*
X130407555Y-98530215D01*
X130867143Y-98340316D01*
X131219081Y-97988993D01*
X131409783Y-97529731D01*
X131410135Y-97126151D01*
X131885000Y-97601016D01*
X131885000Y-105741406D01*
X131943993Y-106037986D01*
X132111992Y-106289414D01*
X134070821Y-108248243D01*
X134070821Y-109036111D01*
X134042856Y-109008097D01*
X133794855Y-108905117D01*
X133526323Y-108904883D01*
X133278143Y-109007429D01*
X133088097Y-109197144D01*
X132985117Y-109445145D01*
X132984883Y-109713677D01*
X133087429Y-109961857D01*
X133277144Y-110151903D01*
X133525145Y-110254883D01*
X133627866Y-110254973D01*
X134223760Y-110850867D01*
X134223760Y-111887512D01*
X134249908Y-112026478D01*
X134332037Y-112154111D01*
X134457352Y-112239735D01*
X134606106Y-112269858D01*
X135504569Y-112269858D01*
X135785000Y-112550289D01*
X135785000Y-119522654D01*
X135660000Y-119522654D01*
X135521034Y-119548802D01*
X135393401Y-119630931D01*
X135307777Y-119756246D01*
X135293000Y-119829218D01*
X135293000Y-119779088D01*
X135196631Y-119546434D01*
X135018565Y-119368368D01*
X134785911Y-119272000D01*
X134197250Y-119272000D01*
X134039000Y-119430250D01*
X134039000Y-120401000D01*
X134059000Y-120401000D01*
X134059000Y-120659000D01*
X134039000Y-120659000D01*
X134039000Y-120679000D01*
X133781000Y-120679000D01*
X133781000Y-120659000D01*
X132685250Y-120659000D01*
X132527000Y-120817250D01*
X132527000Y-121280912D01*
X132623369Y-121513566D01*
X132801435Y-121691632D01*
X133034089Y-121788000D01*
X133123915Y-121788000D01*
X133039369Y-121872546D01*
X132943000Y-122105200D01*
X132943000Y-122959862D01*
X133101250Y-123118112D01*
X133955000Y-123118112D01*
X133955000Y-123098112D01*
X134213000Y-123098112D01*
X134213000Y-123118112D01*
X135066750Y-123118112D01*
X135225000Y-122959862D01*
X135225000Y-122105200D01*
X135128631Y-121872546D01*
X134968468Y-121712383D01*
X135018565Y-121691632D01*
X135196631Y-121513566D01*
X135293000Y-121280912D01*
X135293000Y-121236558D01*
X135303802Y-121293966D01*
X135385931Y-121421599D01*
X135511246Y-121507223D01*
X135660000Y-121537346D01*
X135745000Y-121537346D01*
X135745000Y-121870781D01*
X135723034Y-121874914D01*
X135595401Y-121957043D01*
X135509777Y-122082358D01*
X135479654Y-122231112D01*
X135479654Y-124263112D01*
X135505802Y-124402078D01*
X135587931Y-124529711D01*
X135713246Y-124615335D01*
X135745000Y-124621765D01*
X135745000Y-128452766D01*
X134541200Y-128452766D01*
X134402234Y-128478914D01*
X134274601Y-128561043D01*
X134188977Y-128686358D01*
X134158854Y-128835112D01*
X134158854Y-130867112D01*
X134185002Y-131006078D01*
X134267131Y-131133711D01*
X134392446Y-131219335D01*
X134541200Y-131249458D01*
X138198800Y-131249458D01*
X138337766Y-131223310D01*
X138465399Y-131141181D01*
X138551023Y-131015866D01*
X138581146Y-130867112D01*
X138581146Y-128835112D01*
X138554998Y-128696146D01*
X138472869Y-128568513D01*
X138347554Y-128482889D01*
X138198800Y-128452766D01*
X136995000Y-128452766D01*
X136995000Y-126017250D01*
X139902000Y-126017250D01*
X139902000Y-126605911D01*
X139998368Y-126838565D01*
X140176434Y-127016631D01*
X140409088Y-127113000D01*
X140872750Y-127113000D01*
X141031000Y-126954750D01*
X141031000Y-125859000D01*
X141289000Y-125859000D01*
X141289000Y-126954750D01*
X141447250Y-127113000D01*
X141910912Y-127113000D01*
X142143566Y-127016631D01*
X142321632Y-126838565D01*
X142418000Y-126605911D01*
X142418000Y-126017250D01*
X142259750Y-125859000D01*
X141289000Y-125859000D01*
X141031000Y-125859000D01*
X140060250Y-125859000D01*
X139902000Y-126017250D01*
X136995000Y-126017250D01*
X136995000Y-124623443D01*
X137016966Y-124619310D01*
X137144599Y-124537181D01*
X137230223Y-124411866D01*
X137260346Y-124263112D01*
X137260346Y-122231112D01*
X137234198Y-122092146D01*
X137152069Y-121964513D01*
X137026754Y-121878889D01*
X136995000Y-121872459D01*
X136995000Y-121537346D01*
X137160000Y-121537346D01*
X137298966Y-121511198D01*
X137426599Y-121429069D01*
X137512223Y-121303754D01*
X137542346Y-121155000D01*
X137542346Y-119905000D01*
X137516198Y-119766034D01*
X137434069Y-119638401D01*
X137308754Y-119552777D01*
X137160000Y-119522654D01*
X137035000Y-119522654D01*
X137035000Y-118993038D01*
X137191342Y-118961940D01*
X137353553Y-118853553D01*
X137532078Y-118675028D01*
X137633677Y-118675117D01*
X137881857Y-118572571D01*
X138071903Y-118382856D01*
X138105547Y-118301833D01*
X138625915Y-118822201D01*
X138214058Y-119234058D01*
X138078575Y-119436823D01*
X138031000Y-119676000D01*
X138031000Y-121870781D01*
X138009034Y-121874914D01*
X137881401Y-121957043D01*
X137795777Y-122082358D01*
X137765654Y-122231112D01*
X137765654Y-124263112D01*
X137791802Y-124402078D01*
X137873931Y-124529711D01*
X137999246Y-124615335D01*
X138148000Y-124645458D01*
X139164000Y-124645458D01*
X139302966Y-124619310D01*
X139430599Y-124537181D01*
X139516223Y-124411866D01*
X139546346Y-124263112D01*
X139546346Y-123855000D01*
X140152654Y-123855000D01*
X140152654Y-123980000D01*
X140178802Y-124118966D01*
X140260931Y-124246599D01*
X140386246Y-124332223D01*
X140459218Y-124347000D01*
X140409088Y-124347000D01*
X140176434Y-124443369D01*
X139998368Y-124621435D01*
X139902000Y-124854089D01*
X139902000Y-125442750D01*
X140060250Y-125601000D01*
X141031000Y-125601000D01*
X141031000Y-125581000D01*
X141289000Y-125581000D01*
X141289000Y-125601000D01*
X142259750Y-125601000D01*
X142418000Y-125442750D01*
X142418000Y-124854089D01*
X142321632Y-124621435D01*
X142143566Y-124443369D01*
X141910912Y-124347000D01*
X141866558Y-124347000D01*
X141923966Y-124336198D01*
X142051599Y-124254069D01*
X142137223Y-124128754D01*
X142167346Y-123980000D01*
X142167346Y-123526362D01*
X143947000Y-123526362D01*
X143947000Y-124381024D01*
X144043369Y-124613678D01*
X144221435Y-124791744D01*
X144454089Y-124888112D01*
X144800750Y-124888112D01*
X144959000Y-124729862D01*
X144959000Y-123368112D01*
X145217000Y-123368112D01*
X145217000Y-124729862D01*
X145375250Y-124888112D01*
X145721911Y-124888112D01*
X145954565Y-124791744D01*
X146132631Y-124613678D01*
X146229000Y-124381024D01*
X146229000Y-123526362D01*
X146070750Y-123368112D01*
X145217000Y-123368112D01*
X144959000Y-123368112D01*
X144105250Y-123368112D01*
X143947000Y-123526362D01*
X142167346Y-123526362D01*
X142167346Y-122480000D01*
X142141198Y-122341034D01*
X142059069Y-122213401D01*
X141933754Y-122127777D01*
X141785000Y-122097654D01*
X140535000Y-122097654D01*
X140396034Y-122123802D01*
X140268401Y-122205931D01*
X140182777Y-122331246D01*
X140152654Y-122480000D01*
X140152654Y-122605000D01*
X139546346Y-122605000D01*
X139546346Y-122231112D01*
X139520198Y-122092146D01*
X139438069Y-121964513D01*
X139312754Y-121878889D01*
X139281000Y-121872459D01*
X139281000Y-119934884D01*
X139768683Y-119447201D01*
X143672602Y-119447201D01*
X143593369Y-119526434D01*
X143497000Y-119759088D01*
X143497000Y-120222750D01*
X143655250Y-120381000D01*
X144751000Y-120381000D01*
X144751000Y-120361000D01*
X145009000Y-120361000D01*
X145009000Y-120381000D01*
X145029000Y-120381000D01*
X145029000Y-120639000D01*
X145009000Y-120639000D01*
X145009000Y-120659000D01*
X144751000Y-120659000D01*
X144751000Y-120639000D01*
X143655250Y-120639000D01*
X143497000Y-120797250D01*
X143497000Y-121260912D01*
X143593369Y-121493566D01*
X143771435Y-121671632D01*
X144004089Y-121768000D01*
X144139915Y-121768000D01*
X144043369Y-121864546D01*
X143947000Y-122097200D01*
X143947000Y-122951862D01*
X144105250Y-123110112D01*
X144959000Y-123110112D01*
X144959000Y-123090112D01*
X145217000Y-123090112D01*
X145217000Y-123110112D01*
X146070750Y-123110112D01*
X146229000Y-122951862D01*
X146229000Y-122097200D01*
X146132631Y-121864546D01*
X145954565Y-121686480D01*
X145953642Y-121686098D01*
X145988565Y-121671632D01*
X146166631Y-121493566D01*
X146263000Y-121260912D01*
X146263000Y-121216558D01*
X146273802Y-121273966D01*
X146355931Y-121401599D01*
X146481246Y-121487223D01*
X146630000Y-121517346D01*
X146749000Y-121517346D01*
X146749000Y-121862781D01*
X146727034Y-121866914D01*
X146599401Y-121949043D01*
X146513777Y-122074358D01*
X146483654Y-122223112D01*
X146483654Y-124255112D01*
X146509802Y-124394078D01*
X146591931Y-124521711D01*
X146717246Y-124607335D01*
X146749000Y-124613765D01*
X146749000Y-128444766D01*
X145545200Y-128444766D01*
X145406234Y-128470914D01*
X145278601Y-128553043D01*
X145192977Y-128678358D01*
X145162854Y-128827112D01*
X145162854Y-130859112D01*
X145189002Y-130998078D01*
X145271131Y-131125711D01*
X145396446Y-131211335D01*
X145545200Y-131241458D01*
X149202800Y-131241458D01*
X149341766Y-131215310D01*
X149469399Y-131133181D01*
X149555023Y-131007866D01*
X149585146Y-130859112D01*
X149585146Y-130057256D01*
X155759757Y-130057256D01*
X155972445Y-130572000D01*
X156365928Y-130966170D01*
X156880301Y-131179757D01*
X157437256Y-131180243D01*
X157952000Y-130967555D01*
X158346170Y-130574072D01*
X158491243Y-130224698D01*
X158599684Y-130487143D01*
X158951007Y-130839081D01*
X159410269Y-131029783D01*
X159907550Y-131030217D01*
X160367143Y-130840316D01*
X160719081Y-130488993D01*
X160909783Y-130029731D01*
X160909785Y-130027555D01*
X161099684Y-130487143D01*
X161451007Y-130839081D01*
X161910269Y-131029783D01*
X162407550Y-131030217D01*
X162867143Y-130840316D01*
X163219081Y-130488993D01*
X163409783Y-130029731D01*
X163410217Y-129532450D01*
X163220316Y-129072857D01*
X162868993Y-128720919D01*
X162409731Y-128530217D01*
X161912450Y-128529783D01*
X161452857Y-128719684D01*
X161100919Y-129071007D01*
X160910217Y-129530269D01*
X160910215Y-129532445D01*
X160720316Y-129072857D01*
X160368993Y-128720919D01*
X159909731Y-128530217D01*
X159412450Y-128529783D01*
X158952857Y-128719684D01*
X158600919Y-129071007D01*
X158491116Y-129335443D01*
X158347555Y-128988000D01*
X157954072Y-128593830D01*
X157439699Y-128380243D01*
X156882744Y-128379757D01*
X156368000Y-128592445D01*
X155973830Y-128985928D01*
X155760243Y-129500301D01*
X155759757Y-130057256D01*
X149585146Y-130057256D01*
X149585146Y-128827112D01*
X149558998Y-128688146D01*
X149476869Y-128560513D01*
X149351554Y-128474889D01*
X149202800Y-128444766D01*
X147999000Y-128444766D01*
X147999000Y-126017250D01*
X150902000Y-126017250D01*
X150902000Y-126605911D01*
X150998368Y-126838565D01*
X151176434Y-127016631D01*
X151409088Y-127113000D01*
X151872750Y-127113000D01*
X152031000Y-126954750D01*
X152031000Y-125859000D01*
X152289000Y-125859000D01*
X152289000Y-126954750D01*
X152447250Y-127113000D01*
X152910912Y-127113000D01*
X153143566Y-127016631D01*
X153321632Y-126838565D01*
X153418000Y-126605911D01*
X153418000Y-126017250D01*
X153259750Y-125859000D01*
X152289000Y-125859000D01*
X152031000Y-125859000D01*
X151060250Y-125859000D01*
X150902000Y-126017250D01*
X147999000Y-126017250D01*
X147999000Y-124615443D01*
X148020966Y-124611310D01*
X148148599Y-124529181D01*
X148234223Y-124403866D01*
X148264346Y-124255112D01*
X148264346Y-122223112D01*
X148616715Y-122223112D01*
X148616715Y-124255112D01*
X148653323Y-124449665D01*
X148768304Y-124628351D01*
X148943744Y-124748224D01*
X149152000Y-124790397D01*
X150168000Y-124790397D01*
X150362553Y-124753789D01*
X150541239Y-124638808D01*
X150661112Y-124463368D01*
X150703285Y-124255112D01*
X150703285Y-124005000D01*
X151004419Y-124005000D01*
X151036323Y-124174553D01*
X151151304Y-124353239D01*
X151242913Y-124415832D01*
X151176434Y-124443369D01*
X150998368Y-124621435D01*
X150902000Y-124854089D01*
X150902000Y-125442750D01*
X151060250Y-125601000D01*
X152031000Y-125601000D01*
X152031000Y-125581000D01*
X152289000Y-125581000D01*
X152289000Y-125601000D01*
X153259750Y-125601000D01*
X153418000Y-125442750D01*
X153418000Y-124854089D01*
X153321632Y-124621435D01*
X153143566Y-124443369D01*
X153077166Y-124415865D01*
X153158239Y-124363696D01*
X153278112Y-124188256D01*
X153315222Y-124005000D01*
X155710000Y-124005000D01*
X156006580Y-123946007D01*
X156258008Y-123778008D01*
X156863313Y-123172703D01*
X156880301Y-123179757D01*
X157437256Y-123180243D01*
X157952000Y-122967555D01*
X158346170Y-122574072D01*
X158491243Y-122224698D01*
X158599684Y-122487143D01*
X158951007Y-122839081D01*
X159410269Y-123029783D01*
X159907550Y-123030217D01*
X160367143Y-122840316D01*
X160719081Y-122488993D01*
X160909783Y-122029731D01*
X160909785Y-122027555D01*
X161099684Y-122487143D01*
X161451007Y-122839081D01*
X161910269Y-123029783D01*
X162407550Y-123030217D01*
X162867143Y-122840316D01*
X163219081Y-122488993D01*
X163409783Y-122029731D01*
X163410217Y-121532450D01*
X163220316Y-121072857D01*
X162868993Y-120720919D01*
X162409731Y-120530217D01*
X161912450Y-120529783D01*
X161452857Y-120719684D01*
X161100919Y-121071007D01*
X160910217Y-121530269D01*
X160910215Y-121532445D01*
X160720316Y-121072857D01*
X160368993Y-120720919D01*
X159909731Y-120530217D01*
X159412450Y-120529783D01*
X158952857Y-120719684D01*
X158600919Y-121071007D01*
X158491116Y-121335443D01*
X158347555Y-120988000D01*
X157954072Y-120593830D01*
X157439699Y-120380243D01*
X156882744Y-120379757D01*
X156368000Y-120592445D01*
X155973830Y-120985928D01*
X155760243Y-121500301D01*
X155759757Y-122057256D01*
X155767643Y-122076341D01*
X155388984Y-122455000D01*
X153315581Y-122455000D01*
X153283677Y-122285447D01*
X153168696Y-122106761D01*
X152993256Y-121986888D01*
X152785000Y-121944715D01*
X151535000Y-121944715D01*
X151340447Y-121981323D01*
X151161761Y-122096304D01*
X151041888Y-122271744D01*
X151004778Y-122455000D01*
X150703285Y-122455000D01*
X150703285Y-122223112D01*
X150666677Y-122028559D01*
X150551696Y-121849873D01*
X150376256Y-121730000D01*
X150168000Y-121687827D01*
X149152000Y-121687827D01*
X148957447Y-121724435D01*
X148778761Y-121839416D01*
X148658888Y-122014856D01*
X148616715Y-122223112D01*
X148264346Y-122223112D01*
X148238198Y-122084146D01*
X148156069Y-121956513D01*
X148030754Y-121870889D01*
X147999000Y-121864459D01*
X147999000Y-121517346D01*
X148130000Y-121517346D01*
X148268966Y-121491198D01*
X148396599Y-121409069D01*
X148482223Y-121283754D01*
X148512346Y-121135000D01*
X148512346Y-120983675D01*
X148571342Y-120971940D01*
X148733553Y-120863553D01*
X150097107Y-119500000D01*
X154661870Y-119500000D01*
X154853212Y-119461940D01*
X155015423Y-119353553D01*
X159048976Y-115320000D01*
X168241749Y-115320000D01*
X168336032Y-115793992D01*
X168604527Y-116195822D01*
X169006357Y-116464317D01*
X169480349Y-116558600D01*
X169839651Y-116558600D01*
X170313643Y-116464317D01*
X170715473Y-116195822D01*
X170983968Y-115793992D01*
X171078251Y-115320000D01*
X170983968Y-114846008D01*
X170715473Y-114444178D01*
X170313643Y-114175683D01*
X169839651Y-114081400D01*
X169480349Y-114081400D01*
X169006357Y-114175683D01*
X168604527Y-114444178D01*
X168336032Y-114846008D01*
X168241749Y-115320000D01*
X159048976Y-115320000D01*
X161402020Y-112966957D01*
X161503618Y-112967046D01*
X161751798Y-112864500D01*
X161836445Y-112780000D01*
X168241749Y-112780000D01*
X168336032Y-113253992D01*
X168604527Y-113655822D01*
X169006357Y-113924317D01*
X169480349Y-114018600D01*
X169839651Y-114018600D01*
X170313643Y-113924317D01*
X170715473Y-113655822D01*
X170983968Y-113253992D01*
X171078251Y-112780000D01*
X170983968Y-112306008D01*
X170715473Y-111904178D01*
X170313643Y-111635683D01*
X169839651Y-111541400D01*
X169480349Y-111541400D01*
X169006357Y-111635683D01*
X168604527Y-111904178D01*
X168336032Y-112306008D01*
X168241749Y-112780000D01*
X161836445Y-112780000D01*
X161941844Y-112674785D01*
X162044824Y-112426784D01*
X162045058Y-112158252D01*
X161942512Y-111910072D01*
X161752797Y-111720026D01*
X161504796Y-111617046D01*
X161236264Y-111616812D01*
X160988084Y-111719358D01*
X160798038Y-111909073D01*
X160695058Y-112157074D01*
X160694968Y-112259795D01*
X154454764Y-118500000D01*
X149890000Y-118500000D01*
X149698658Y-118538060D01*
X149536446Y-118646447D01*
X148466880Y-119716013D01*
X148404069Y-119618401D01*
X148278754Y-119532777D01*
X148130000Y-119502654D01*
X147131538Y-119502654D01*
X146009143Y-118380259D01*
X145806378Y-118244776D01*
X145567201Y-118197201D01*
X139768682Y-118197201D01*
X138038572Y-116467090D01*
X138038572Y-112269858D01*
X138063572Y-112269858D01*
X138202538Y-112243710D01*
X138330171Y-112161581D01*
X138415795Y-112036266D01*
X138445918Y-111887512D01*
X138445918Y-110387512D01*
X138419770Y-110248546D01*
X138337641Y-110120913D01*
X138212326Y-110035289D01*
X138063572Y-110005166D01*
X136763572Y-110005166D01*
X136624606Y-110031314D01*
X136496973Y-110113443D01*
X136411349Y-110238758D01*
X136381226Y-110387512D01*
X136381226Y-111378749D01*
X136288452Y-111285975D01*
X136288452Y-110387512D01*
X136262304Y-110248546D01*
X136180175Y-110120913D01*
X136054860Y-110035289D01*
X135906106Y-110005166D01*
X134792272Y-110005166D01*
X134485475Y-109698369D01*
X134606106Y-109722797D01*
X135906106Y-109722797D01*
X136100659Y-109686189D01*
X136279345Y-109571208D01*
X136334583Y-109490364D01*
X136379876Y-109560751D01*
X136555316Y-109680624D01*
X136763572Y-109722797D01*
X138063572Y-109722797D01*
X138258125Y-109686189D01*
X138436811Y-109571208D01*
X138556684Y-109395768D01*
X138595063Y-109206248D01*
X138860152Y-109153519D01*
X139111580Y-108985520D01*
X143122100Y-104975000D01*
X143329126Y-104975000D01*
X143307777Y-105006246D01*
X143277654Y-105155000D01*
X143277654Y-106405000D01*
X143303802Y-106543966D01*
X143385931Y-106671599D01*
X143511246Y-106757223D01*
X143660000Y-106787346D01*
X143910000Y-106787346D01*
X143910000Y-106823336D01*
X143841667Y-106987899D01*
X143841433Y-107256431D01*
X143910152Y-107422744D01*
X140980845Y-107422744D01*
X140789503Y-107460804D01*
X140627292Y-107569191D01*
X139056436Y-109140047D01*
X138948049Y-109302258D01*
X138909989Y-109493600D01*
X138909989Y-114693977D01*
X138927100Y-114780000D01*
X138948049Y-114885319D01*
X139056436Y-115047530D01*
X140809724Y-116800819D01*
X140809661Y-116872218D01*
X140665327Y-116812285D01*
X140396795Y-116812051D01*
X140148615Y-116914597D01*
X139958569Y-117104312D01*
X139855589Y-117352313D01*
X139855355Y-117620845D01*
X139957901Y-117869025D01*
X140147616Y-118059071D01*
X140395617Y-118162051D01*
X140664149Y-118162285D01*
X140912329Y-118059739D01*
X140985027Y-117987168D01*
X143406836Y-117987168D01*
X143598178Y-117949108D01*
X143760389Y-117840721D01*
X144353554Y-117247557D01*
X144353556Y-117247554D01*
X145663554Y-115937557D01*
X145771940Y-115775346D01*
X145810000Y-115584004D01*
X145810000Y-115287346D01*
X146060000Y-115287346D01*
X146198966Y-115261198D01*
X146326599Y-115179069D01*
X146368838Y-115117250D01*
X153002000Y-115117250D01*
X153002000Y-115705911D01*
X153098368Y-115938565D01*
X153276434Y-116116631D01*
X153509088Y-116213000D01*
X153972750Y-116213000D01*
X154131000Y-116054750D01*
X154131000Y-114959000D01*
X154389000Y-114959000D01*
X154389000Y-116054750D01*
X154547250Y-116213000D01*
X155010912Y-116213000D01*
X155243566Y-116116631D01*
X155421632Y-115938565D01*
X155518000Y-115705911D01*
X155518000Y-115117250D01*
X155359750Y-114959000D01*
X154389000Y-114959000D01*
X154131000Y-114959000D01*
X153160250Y-114959000D01*
X153002000Y-115117250D01*
X146368838Y-115117250D01*
X146412223Y-115053754D01*
X146442346Y-114905000D01*
X146442346Y-113655000D01*
X146416198Y-113516034D01*
X146334069Y-113388401D01*
X146208754Y-113302777D01*
X146134388Y-113287718D01*
X147104856Y-112317250D01*
X147802000Y-112317250D01*
X147802000Y-112905911D01*
X147898368Y-113138565D01*
X148076434Y-113316631D01*
X148309088Y-113413000D01*
X148772750Y-113413000D01*
X148931000Y-113254750D01*
X148931000Y-112159000D01*
X149189000Y-112159000D01*
X149189000Y-113254750D01*
X149347250Y-113413000D01*
X149810912Y-113413000D01*
X150043566Y-113316631D01*
X150221632Y-113138565D01*
X150318000Y-112905911D01*
X150318000Y-112317250D01*
X150159750Y-112159000D01*
X149189000Y-112159000D01*
X148931000Y-112159000D01*
X147960250Y-112159000D01*
X147802000Y-112317250D01*
X147104856Y-112317250D01*
X147802000Y-111620107D01*
X147802000Y-111742750D01*
X147960250Y-111901000D01*
X148931000Y-111901000D01*
X148931000Y-111881000D01*
X149189000Y-111881000D01*
X149189000Y-111901000D01*
X150159750Y-111901000D01*
X150318000Y-111742750D01*
X150318000Y-111154089D01*
X150221632Y-110921435D01*
X150043566Y-110743369D01*
X149810912Y-110647000D01*
X149766558Y-110647000D01*
X149823966Y-110636198D01*
X149951599Y-110554069D01*
X150037223Y-110428754D01*
X150067346Y-110280000D01*
X150067346Y-110030000D01*
X150202894Y-110030000D01*
X152184972Y-112012078D01*
X152184883Y-112113677D01*
X152287429Y-112361857D01*
X152477144Y-112551903D01*
X152725145Y-112654883D01*
X152827866Y-112654973D01*
X152856447Y-112683554D01*
X153018658Y-112791940D01*
X153210000Y-112830000D01*
X153252654Y-112830000D01*
X153252654Y-113080000D01*
X153278802Y-113218966D01*
X153360931Y-113346599D01*
X153486246Y-113432223D01*
X153559218Y-113447000D01*
X153509088Y-113447000D01*
X153276434Y-113543369D01*
X153098368Y-113721435D01*
X153002000Y-113954089D01*
X153002000Y-114542750D01*
X153160250Y-114701000D01*
X154131000Y-114701000D01*
X154131000Y-114681000D01*
X154389000Y-114681000D01*
X154389000Y-114701000D01*
X155359750Y-114701000D01*
X155518000Y-114542750D01*
X155518000Y-113954089D01*
X155421632Y-113721435D01*
X155243566Y-113543369D01*
X155010912Y-113447000D01*
X154966558Y-113447000D01*
X155023966Y-113436198D01*
X155151599Y-113354069D01*
X155237223Y-113228754D01*
X155267346Y-113080000D01*
X155267346Y-111580000D01*
X155241198Y-111441034D01*
X155159069Y-111313401D01*
X155033754Y-111227777D01*
X154885000Y-111197654D01*
X153635000Y-111197654D01*
X153496034Y-111223802D01*
X153368401Y-111305931D01*
X153282777Y-111431246D01*
X153279942Y-111445247D01*
X153242856Y-111408097D01*
X152994855Y-111305117D01*
X152892134Y-111305027D01*
X150763553Y-109176447D01*
X150601342Y-109068060D01*
X150410000Y-109030000D01*
X150067346Y-109030000D01*
X150067346Y-108906860D01*
X155324881Y-108906860D01*
X155427427Y-109155040D01*
X155480137Y-109207842D01*
X155428097Y-109259791D01*
X155325117Y-109507792D01*
X155324883Y-109776324D01*
X155427429Y-110024504D01*
X155617144Y-110214550D01*
X155865145Y-110317530D01*
X155967866Y-110317620D01*
X156783625Y-111133379D01*
X156879820Y-111197654D01*
X156945836Y-111241765D01*
X157137178Y-111279825D01*
X158578380Y-111279825D01*
X158650158Y-111351728D01*
X158898159Y-111454708D01*
X159166691Y-111454942D01*
X159414871Y-111352396D01*
X159604917Y-111162681D01*
X159707897Y-110914680D01*
X159708131Y-110646148D01*
X159605585Y-110397968D01*
X159415870Y-110207922D01*
X159167869Y-110104942D01*
X158899337Y-110104708D01*
X158651157Y-110207254D01*
X158578459Y-110279825D01*
X157344285Y-110279825D01*
X156675028Y-109610569D01*
X156675117Y-109508970D01*
X156577692Y-109273183D01*
X163116472Y-109273183D01*
X163215518Y-109372228D01*
X163215429Y-109473827D01*
X163317975Y-109722007D01*
X163507690Y-109912053D01*
X163755691Y-110015033D01*
X164024223Y-110015267D01*
X164272403Y-109912721D01*
X164462449Y-109723006D01*
X164565429Y-109475005D01*
X164565663Y-109206473D01*
X164463117Y-108958293D01*
X164273402Y-108768247D01*
X164025401Y-108665267D01*
X163922680Y-108665177D01*
X163677132Y-108419630D01*
X163514921Y-108311243D01*
X163323579Y-108273183D01*
X156454632Y-108273183D01*
X156382854Y-108201280D01*
X156134853Y-108098300D01*
X155866321Y-108098066D01*
X155618141Y-108200612D01*
X155428095Y-108390327D01*
X155325115Y-108638328D01*
X155324881Y-108906860D01*
X150067346Y-108906860D01*
X150067346Y-108780000D01*
X150041198Y-108641034D01*
X149959069Y-108513401D01*
X149833754Y-108427777D01*
X149685000Y-108397654D01*
X148435000Y-108397654D01*
X148296034Y-108423802D01*
X148168401Y-108505931D01*
X148082777Y-108631246D01*
X148052654Y-108780000D01*
X148052654Y-109030000D01*
X147235872Y-109030000D01*
X145189356Y-106983484D01*
X145108313Y-106787346D01*
X145160000Y-106787346D01*
X145298966Y-106761198D01*
X145426599Y-106679069D01*
X145512223Y-106553754D01*
X145527000Y-106480782D01*
X145527000Y-106530912D01*
X145623369Y-106763566D01*
X145801435Y-106941632D01*
X146034089Y-107038000D01*
X146622750Y-107038000D01*
X146781000Y-106879750D01*
X146781000Y-105909000D01*
X147039000Y-105909000D01*
X147039000Y-106879750D01*
X147197250Y-107038000D01*
X147785911Y-107038000D01*
X148018565Y-106941632D01*
X148196631Y-106763566D01*
X148293000Y-106530912D01*
X148293000Y-106067250D01*
X148134750Y-105909000D01*
X147039000Y-105909000D01*
X146781000Y-105909000D01*
X146761000Y-105909000D01*
X146761000Y-105651000D01*
X146781000Y-105651000D01*
X146781000Y-105631000D01*
X147039000Y-105631000D01*
X147039000Y-105651000D01*
X148134750Y-105651000D01*
X148293000Y-105492750D01*
X148293000Y-105029088D01*
X148270596Y-104975000D01*
X155098984Y-104975000D01*
X155451992Y-105328008D01*
X155703420Y-105496007D01*
X156000000Y-105555000D01*
X168465421Y-105555000D01*
X168472445Y-105572000D01*
X168865928Y-105966170D01*
X169380301Y-106179757D01*
X169937256Y-106180243D01*
X170452000Y-105967555D01*
X170846170Y-105574072D01*
X171059757Y-105059699D01*
X171060243Y-104502744D01*
X170847555Y-103988000D01*
X170454072Y-103593830D01*
X170104698Y-103448757D01*
X170367143Y-103340316D01*
X170719081Y-102988993D01*
X170909783Y-102529731D01*
X170910217Y-102032450D01*
X170720316Y-101572857D01*
X170368993Y-101220919D01*
X169909731Y-101030217D01*
X169907555Y-101030215D01*
X170367143Y-100840316D01*
X170719081Y-100488993D01*
X170909783Y-100029731D01*
X170910217Y-99532450D01*
X170720316Y-99072857D01*
X170368993Y-98720919D01*
X169909731Y-98530217D01*
X169907555Y-98530215D01*
X170367143Y-98340316D01*
X170719081Y-97988993D01*
X170909783Y-97529731D01*
X170910217Y-97032450D01*
X170720316Y-96572857D01*
X170368993Y-96220919D01*
X169909731Y-96030217D01*
X169412450Y-96029783D01*
X168952857Y-96219684D01*
X168600919Y-96571007D01*
X168410217Y-97030269D01*
X168409783Y-97527550D01*
X168599684Y-97987143D01*
X168951007Y-98339081D01*
X169410269Y-98529783D01*
X169412445Y-98529785D01*
X168952857Y-98719684D01*
X168600919Y-99071007D01*
X168410217Y-99530269D01*
X168409783Y-100027550D01*
X168599684Y-100487143D01*
X168951007Y-100839081D01*
X169410269Y-101029783D01*
X169412445Y-101029785D01*
X168952857Y-101219684D01*
X168600919Y-101571007D01*
X168410217Y-102030269D01*
X168409783Y-102527550D01*
X168599684Y-102987143D01*
X168951007Y-103339081D01*
X169215443Y-103448884D01*
X168868000Y-103592445D01*
X168473830Y-103985928D01*
X168465911Y-104005000D01*
X163432349Y-104005000D01*
X163715473Y-103815822D01*
X163983968Y-103413992D01*
X164078251Y-102940000D01*
X163983968Y-102466008D01*
X163715473Y-102064178D01*
X163313643Y-101795683D01*
X162839651Y-101701400D01*
X162480349Y-101701400D01*
X162006357Y-101795683D01*
X161604527Y-102064178D01*
X161353410Y-102440000D01*
X153479383Y-102440000D01*
X153394738Y-102355207D01*
X153146737Y-102252227D01*
X152878205Y-102251993D01*
X152630025Y-102354539D01*
X152439979Y-102544254D01*
X152336999Y-102792255D01*
X152336765Y-103060787D01*
X152439311Y-103308967D01*
X152555142Y-103425000D01*
X144683219Y-103425000D01*
X144699893Y-103384845D01*
X144699983Y-103282124D01*
X145619761Y-102362346D01*
X146310000Y-102362346D01*
X146448966Y-102336198D01*
X146576599Y-102254069D01*
X146661130Y-102130354D01*
X146735931Y-102246599D01*
X146861246Y-102332223D01*
X147010000Y-102362346D01*
X148310000Y-102362346D01*
X148448966Y-102336198D01*
X148576599Y-102254069D01*
X148662223Y-102128754D01*
X148692346Y-101980000D01*
X148692346Y-101413677D01*
X157984883Y-101413677D01*
X158087429Y-101661857D01*
X158277144Y-101851903D01*
X158525145Y-101954883D01*
X158793677Y-101955117D01*
X159041857Y-101852571D01*
X159114555Y-101780000D01*
X161780000Y-101780000D01*
X161971342Y-101741940D01*
X162133553Y-101633553D01*
X162186881Y-101580225D01*
X162480349Y-101638600D01*
X162839651Y-101638600D01*
X163313643Y-101544317D01*
X163715473Y-101275822D01*
X163983968Y-100873992D01*
X164078251Y-100400000D01*
X163983968Y-99926008D01*
X163715473Y-99524178D01*
X163313643Y-99255683D01*
X162839651Y-99161400D01*
X162480349Y-99161400D01*
X162006357Y-99255683D01*
X161604527Y-99524178D01*
X161336032Y-99926008D01*
X161241749Y-100400000D01*
X161317336Y-100780000D01*
X159114634Y-100780000D01*
X159042856Y-100708097D01*
X158794855Y-100605117D01*
X158526323Y-100604883D01*
X158278143Y-100707429D01*
X158088097Y-100897144D01*
X157985117Y-101145145D01*
X157984883Y-101413677D01*
X148692346Y-101413677D01*
X148692346Y-100480000D01*
X148666198Y-100341034D01*
X148584069Y-100213401D01*
X148458754Y-100127777D01*
X148310000Y-100097654D01*
X147010000Y-100097654D01*
X146871034Y-100123802D01*
X146743401Y-100205931D01*
X146658870Y-100329646D01*
X146584069Y-100213401D01*
X146458754Y-100127777D01*
X146346281Y-100105001D01*
X146684999Y-100105001D01*
X146876341Y-100066941D01*
X147038552Y-99958554D01*
X147334760Y-99662346D01*
X148310000Y-99662346D01*
X148448966Y-99636198D01*
X148576599Y-99554069D01*
X148662223Y-99428754D01*
X148692346Y-99280000D01*
X148692346Y-99030000D01*
X152970000Y-99030000D01*
X153161342Y-98991940D01*
X153323553Y-98883553D01*
X154347106Y-97860000D01*
X161241749Y-97860000D01*
X161336032Y-98333992D01*
X161604527Y-98735822D01*
X162006357Y-99004317D01*
X162480349Y-99098600D01*
X162839651Y-99098600D01*
X163313643Y-99004317D01*
X163715473Y-98735822D01*
X163983968Y-98333992D01*
X164078251Y-97860000D01*
X163983968Y-97386008D01*
X163715473Y-96984178D01*
X163313643Y-96715683D01*
X162839651Y-96621400D01*
X162480349Y-96621400D01*
X162006357Y-96715683D01*
X161604527Y-96984178D01*
X161336032Y-97386008D01*
X161241749Y-97860000D01*
X154347106Y-97860000D01*
X159427106Y-92780000D01*
X161241749Y-92780000D01*
X161336032Y-93253992D01*
X161604527Y-93655822D01*
X162006357Y-93924317D01*
X162480349Y-94018600D01*
X162839651Y-94018600D01*
X163313643Y-93924317D01*
X163715473Y-93655822D01*
X163983968Y-93253992D01*
X164078251Y-92780000D01*
X163983968Y-92306008D01*
X163715473Y-91904178D01*
X163313643Y-91635683D01*
X162839651Y-91541400D01*
X162480349Y-91541400D01*
X162006357Y-91635683D01*
X161604527Y-91904178D01*
X161336032Y-92306008D01*
X161241749Y-92780000D01*
X159427106Y-92780000D01*
X161261654Y-90945453D01*
X161261654Y-91103600D01*
X161287802Y-91242566D01*
X161369931Y-91370199D01*
X161495246Y-91455823D01*
X161644000Y-91485946D01*
X163676000Y-91485946D01*
X163814966Y-91459798D01*
X163942599Y-91377669D01*
X164028223Y-91252354D01*
X164058346Y-91103600D01*
X164058346Y-89376400D01*
X164032198Y-89237434D01*
X163950069Y-89109801D01*
X163824754Y-89024177D01*
X163676000Y-88994054D01*
X161644000Y-88994054D01*
X161505034Y-89020202D01*
X161377401Y-89102331D01*
X161291777Y-89227646D01*
X161261654Y-89376400D01*
X161261654Y-89740000D01*
X161260000Y-89740000D01*
X161068658Y-89778060D01*
X160906446Y-89886447D01*
X152762894Y-98030000D01*
X148692346Y-98030000D01*
X148692346Y-97780000D01*
X148666198Y-97641034D01*
X148584069Y-97513401D01*
X148458754Y-97427777D01*
X148310000Y-97397654D01*
X147010000Y-97397654D01*
X146871034Y-97423802D01*
X146852541Y-97435702D01*
X146846632Y-97421435D01*
X146668566Y-97243369D01*
X146435912Y-97147000D01*
X145947250Y-97147000D01*
X145789000Y-97305250D01*
X145789000Y-98401000D01*
X145809000Y-98401000D01*
X145809000Y-98659000D01*
X145789000Y-98659000D01*
X145789000Y-98679000D01*
X145531000Y-98679000D01*
X145531000Y-98659000D01*
X144535250Y-98659000D01*
X144377000Y-98817250D01*
X144377000Y-99405911D01*
X144473368Y-99638565D01*
X144533849Y-99699046D01*
X138452894Y-105780000D01*
X135114634Y-105780000D01*
X135042856Y-105708097D01*
X134794855Y-105605117D01*
X134526323Y-105604883D01*
X134278143Y-105707429D01*
X134088097Y-105897144D01*
X134036357Y-106021747D01*
X133435000Y-105420390D01*
X133435000Y-97654089D01*
X144377000Y-97654089D01*
X144377000Y-98242750D01*
X144535250Y-98401000D01*
X145531000Y-98401000D01*
X145531000Y-97305250D01*
X145372750Y-97147000D01*
X144884088Y-97147000D01*
X144651434Y-97243369D01*
X144473368Y-97421435D01*
X144377000Y-97654089D01*
X133435000Y-97654089D01*
X133435000Y-97280000D01*
X133376007Y-96983420D01*
X133208008Y-96731992D01*
X131552703Y-95076687D01*
X131559757Y-95059699D01*
X131560243Y-94502744D01*
X131347555Y-93988000D01*
X130954072Y-93593830D01*
X130439699Y-93380243D01*
X129882744Y-93379757D01*
X129368000Y-93592445D01*
X128973830Y-93985928D01*
X128760243Y-94500301D01*
X128759757Y-95057256D01*
X125450000Y-95057256D01*
X125450000Y-90100349D01*
X140421400Y-90100349D01*
X140421400Y-90459651D01*
X140515683Y-90933643D01*
X140784178Y-91335473D01*
X141186008Y-91603968D01*
X141660000Y-91698251D01*
X142133992Y-91603968D01*
X142535822Y-91335473D01*
X142804317Y-90933643D01*
X142898600Y-90459651D01*
X142898600Y-90100349D01*
X142961400Y-90100349D01*
X142961400Y-90459651D01*
X143055683Y-90933643D01*
X143324178Y-91335473D01*
X143726008Y-91603968D01*
X144200000Y-91698251D01*
X144673992Y-91603968D01*
X145075822Y-91335473D01*
X145344317Y-90933643D01*
X145438600Y-90459651D01*
X145438600Y-90100349D01*
X152921400Y-90100349D01*
X152921400Y-90459651D01*
X153015683Y-90933643D01*
X153284178Y-91335473D01*
X153686008Y-91603968D01*
X154160000Y-91698251D01*
X154633992Y-91603968D01*
X155035822Y-91335473D01*
X155304317Y-90933643D01*
X155398600Y-90459651D01*
X155398600Y-90100349D01*
X155461400Y-90100349D01*
X155461400Y-90459651D01*
X155555683Y-90933643D01*
X155824178Y-91335473D01*
X156226008Y-91603968D01*
X156700000Y-91698251D01*
X157173992Y-91603968D01*
X157575822Y-91335473D01*
X157844317Y-90933643D01*
X157938600Y-90459651D01*
X157938600Y-90100349D01*
X157844317Y-89626357D01*
X157575822Y-89224527D01*
X157173992Y-88956032D01*
X156700000Y-88861749D01*
X156226008Y-88956032D01*
X155824178Y-89224527D01*
X155555683Y-89626357D01*
X155461400Y-90100349D01*
X155398600Y-90100349D01*
X155304317Y-89626357D01*
X155035822Y-89224527D01*
X154633992Y-88956032D01*
X154160000Y-88861749D01*
X153686008Y-88956032D01*
X153284178Y-89224527D01*
X153015683Y-89626357D01*
X152921400Y-90100349D01*
X145438600Y-90100349D01*
X145344317Y-89626357D01*
X145075822Y-89224527D01*
X144673992Y-88956032D01*
X144200000Y-88861749D01*
X143726008Y-88956032D01*
X143324178Y-89224527D01*
X143055683Y-89626357D01*
X142961400Y-90100349D01*
X142898600Y-90100349D01*
X142804317Y-89626357D01*
X142535822Y-89224527D01*
X142133992Y-88956032D01*
X141660000Y-88861749D01*
X141186008Y-88956032D01*
X140784178Y-89224527D01*
X140515683Y-89626357D01*
X140421400Y-90100349D01*
X125450000Y-90100349D01*
X125450000Y-85450000D01*
X174550000Y-85450000D01*
X174550000Y-134550000D01*
G36*
X146675213Y-109883553D02*
X146837424Y-109991940D01*
X147028766Y-110030000D01*
X147977894Y-110030000D01*
X147506450Y-110501444D01*
X147506447Y-110501446D01*
X146442346Y-111565547D01*
X146442346Y-111155000D01*
X146416198Y-111016034D01*
X146334069Y-110888401D01*
X146208754Y-110802777D01*
X146060000Y-110772654D01*
X145783675Y-110772654D01*
X145771940Y-110713658D01*
X145720182Y-110636198D01*
X145663554Y-110551447D01*
X145184842Y-110072736D01*
X145029348Y-109968837D01*
X144915096Y-109854386D01*
X144667095Y-109751406D01*
X144398563Y-109751172D01*
X144150383Y-109853718D01*
X143960337Y-110043433D01*
X143857357Y-110291434D01*
X143857123Y-110559966D01*
X143873550Y-110599722D01*
X143685911Y-110522000D01*
X143097250Y-110522000D01*
X142939000Y-110680250D01*
X142939000Y-111651000D01*
X142959000Y-111651000D01*
X142959000Y-111909000D01*
X142939000Y-111909000D01*
X142939000Y-112879750D01*
X143089250Y-113030000D01*
X142939000Y-113180250D01*
X142939000Y-114151000D01*
X142959000Y-114151000D01*
X142959000Y-114409000D01*
X142939000Y-114409000D01*
X142939000Y-115379750D01*
X143097250Y-115538000D01*
X143685911Y-115538000D01*
X143918565Y-115441632D01*
X144096631Y-115263566D01*
X144193000Y-115030912D01*
X144193000Y-114986558D01*
X144203802Y-115043966D01*
X144285931Y-115171599D01*
X144411246Y-115257223D01*
X144560000Y-115287346D01*
X144810000Y-115287346D01*
X144810000Y-115376897D01*
X143646450Y-116540448D01*
X143646447Y-116540450D01*
X143199730Y-116987168D01*
X143132861Y-116987168D01*
X143183017Y-116866381D01*
X143183251Y-116597849D01*
X143080705Y-116349669D01*
X142890990Y-116159623D01*
X142642989Y-116056643D01*
X142540268Y-116056553D01*
X142021715Y-115538000D01*
X142522750Y-115538000D01*
X142681000Y-115379750D01*
X142681000Y-114409000D01*
X141585250Y-114409000D01*
X141427000Y-114567250D01*
X141427000Y-114943285D01*
X140360000Y-113876286D01*
X140360000Y-112067250D01*
X141427000Y-112067250D01*
X141427000Y-112530912D01*
X141523369Y-112763566D01*
X141701435Y-112941632D01*
X141914775Y-113030000D01*
X141701435Y-113118368D01*
X141523369Y-113296434D01*
X141427000Y-113529088D01*
X141427000Y-113992750D01*
X141585250Y-114151000D01*
X142681000Y-114151000D01*
X142681000Y-113180250D01*
X142530750Y-113030000D01*
X142681000Y-112879750D01*
X142681000Y-111909000D01*
X141585250Y-111909000D01*
X141427000Y-112067250D01*
X140360000Y-112067250D01*
X140360000Y-111029088D01*
X141427000Y-111029088D01*
X141427000Y-111492750D01*
X141585250Y-111651000D01*
X142681000Y-111651000D01*
X142681000Y-110680250D01*
X142522750Y-110522000D01*
X141934089Y-110522000D01*
X141701435Y-110618368D01*
X141523369Y-110796434D01*
X141427000Y-111029088D01*
X140360000Y-111029088D01*
X140360000Y-109887106D01*
X141024351Y-109222755D01*
X144068283Y-109222755D01*
X144140061Y-109294658D01*
X144388062Y-109397638D01*
X144656594Y-109397872D01*
X144904774Y-109295326D01*
X145094820Y-109105611D01*
X145197800Y-108857610D01*
X145198034Y-108589078D01*
X145095488Y-108340898D01*
X145071401Y-108316769D01*
X145082589Y-108305600D01*
X145086894Y-108295234D01*
X146675213Y-109883553D01*
X146675213Y-109883553D01*
G37*
X146675213Y-109883553D02*
X146837424Y-109991940D01*
X147028766Y-110030000D01*
X147977894Y-110030000D01*
X147506450Y-110501444D01*
X147506447Y-110501446D01*
X146442346Y-111565547D01*
X146442346Y-111155000D01*
X146416198Y-111016034D01*
X146334069Y-110888401D01*
X146208754Y-110802777D01*
X146060000Y-110772654D01*
X145783675Y-110772654D01*
X145771940Y-110713658D01*
X145720182Y-110636198D01*
X145663554Y-110551447D01*
X145184842Y-110072736D01*
X145029348Y-109968837D01*
X144915096Y-109854386D01*
X144667095Y-109751406D01*
X144398563Y-109751172D01*
X144150383Y-109853718D01*
X143960337Y-110043433D01*
X143857357Y-110291434D01*
X143857123Y-110559966D01*
X143873550Y-110599722D01*
X143685911Y-110522000D01*
X143097250Y-110522000D01*
X142939000Y-110680250D01*
X142939000Y-111651000D01*
X142959000Y-111651000D01*
X142959000Y-111909000D01*
X142939000Y-111909000D01*
X142939000Y-112879750D01*
X143089250Y-113030000D01*
X142939000Y-113180250D01*
X142939000Y-114151000D01*
X142959000Y-114151000D01*
X142959000Y-114409000D01*
X142939000Y-114409000D01*
X142939000Y-115379750D01*
X143097250Y-115538000D01*
X143685911Y-115538000D01*
X143918565Y-115441632D01*
X144096631Y-115263566D01*
X144193000Y-115030912D01*
X144193000Y-114986558D01*
X144203802Y-115043966D01*
X144285931Y-115171599D01*
X144411246Y-115257223D01*
X144560000Y-115287346D01*
X144810000Y-115287346D01*
X144810000Y-115376897D01*
X143646450Y-116540448D01*
X143646447Y-116540450D01*
X143199730Y-116987168D01*
X143132861Y-116987168D01*
X143183017Y-116866381D01*
X143183251Y-116597849D01*
X143080705Y-116349669D01*
X142890990Y-116159623D01*
X142642989Y-116056643D01*
X142540268Y-116056553D01*
X142021715Y-115538000D01*
X142522750Y-115538000D01*
X142681000Y-115379750D01*
X142681000Y-114409000D01*
X141585250Y-114409000D01*
X141427000Y-114567250D01*
X141427000Y-114943285D01*
X140360000Y-113876286D01*
X140360000Y-112067250D01*
X141427000Y-112067250D01*
X141427000Y-112530912D01*
X141523369Y-112763566D01*
X141701435Y-112941632D01*
X141914775Y-113030000D01*
X141701435Y-113118368D01*
X141523369Y-113296434D01*
X141427000Y-113529088D01*
X141427000Y-113992750D01*
X141585250Y-114151000D01*
X142681000Y-114151000D01*
X142681000Y-113180250D01*
X142530750Y-113030000D01*
X142681000Y-112879750D01*
X142681000Y-111909000D01*
X141585250Y-111909000D01*
X141427000Y-112067250D01*
X140360000Y-112067250D01*
X140360000Y-111029088D01*
X141427000Y-111029088D01*
X141427000Y-111492750D01*
X141585250Y-111651000D01*
X142681000Y-111651000D01*
X142681000Y-110680250D01*
X142522750Y-110522000D01*
X141934089Y-110522000D01*
X141701435Y-110618368D01*
X141523369Y-110796434D01*
X141427000Y-111029088D01*
X140360000Y-111029088D01*
X140360000Y-109887106D01*
X141024351Y-109222755D01*
X144068283Y-109222755D01*
X144140061Y-109294658D01*
X144388062Y-109397638D01*
X144656594Y-109397872D01*
X144904774Y-109295326D01*
X145094820Y-109105611D01*
X145197800Y-108857610D01*
X145198034Y-108589078D01*
X145095488Y-108340898D01*
X145071401Y-108316769D01*
X145082589Y-108305600D01*
X145086894Y-108295234D01*
X146675213Y-109883553D01*
M02*
