G04 #@! TF.FileFunction,Other,User*
%FSLAX46Y46*%
G04 Gerber Fmt 4.6, Leading zero omitted, Abs format (unit mm)*
G04 Created by KiCad (PCBNEW 4.0.5) date Thu Feb  9 17:30:12 2017*
%MOMM*%
%LPD*%
G01*
G04 APERTURE LIST*
%ADD10C,0.100000*%
%ADD11C,0.050000*%
G04 APERTURE END LIST*
D10*
D11*
X151160000Y-122180000D02*
X151160000Y-126780000D01*
X153160000Y-122180000D02*
X153160000Y-126780000D01*
X151160000Y-122180000D02*
X153160000Y-122180000D01*
X151160000Y-126780000D02*
X153160000Y-126780000D01*
X148430000Y-119510000D02*
X143830000Y-119510000D01*
X148430000Y-121510000D02*
X143830000Y-121510000D01*
X148430000Y-119510000D02*
X148430000Y-121510000D01*
X143830000Y-119510000D02*
X143830000Y-121510000D01*
X140160000Y-122180000D02*
X140160000Y-126780000D01*
X142160000Y-122180000D02*
X142160000Y-126780000D01*
X140160000Y-122180000D02*
X142160000Y-122180000D01*
X140160000Y-126780000D02*
X142160000Y-126780000D01*
X137460000Y-119530000D02*
X132860000Y-119530000D01*
X137460000Y-121530000D02*
X132860000Y-121530000D01*
X137460000Y-119530000D02*
X137460000Y-121530000D01*
X132860000Y-119530000D02*
X132860000Y-121530000D01*
X136256106Y-112187512D02*
X136256106Y-107387512D01*
X134256106Y-112187512D02*
X134256106Y-107387512D01*
X136256106Y-112187512D02*
X134256106Y-112187512D01*
X136256106Y-107387512D02*
X134256106Y-107387512D01*
X138413572Y-112187512D02*
X138413572Y-107387512D01*
X136413572Y-112187512D02*
X136413572Y-107387512D01*
X138413572Y-112187512D02*
X136413572Y-112187512D01*
X138413572Y-107387512D02*
X136413572Y-107387512D01*
X146660000Y-97480000D02*
X146660000Y-102280000D01*
X148660000Y-97480000D02*
X148660000Y-102280000D01*
X146660000Y-97480000D02*
X148660000Y-97480000D01*
X146660000Y-102280000D02*
X148660000Y-102280000D01*
X146660000Y-102280000D02*
X146660000Y-97480000D01*
X144660000Y-102280000D02*
X144660000Y-97480000D01*
X146660000Y-102280000D02*
X144660000Y-102280000D01*
X146660000Y-97480000D02*
X144660000Y-97480000D01*
X146360000Y-110780000D02*
X141760000Y-110780000D01*
X146360000Y-112780000D02*
X141760000Y-112780000D01*
X146360000Y-110780000D02*
X146360000Y-112780000D01*
X141760000Y-110780000D02*
X141760000Y-112780000D01*
X146360000Y-113280000D02*
X141760000Y-113280000D01*
X146360000Y-115280000D02*
X141760000Y-115280000D01*
X146360000Y-113280000D02*
X146360000Y-115280000D01*
X141760000Y-113280000D02*
X141760000Y-115280000D01*
X148060000Y-108480000D02*
X148060000Y-113080000D01*
X150060000Y-108480000D02*
X150060000Y-113080000D01*
X148060000Y-108480000D02*
X150060000Y-108480000D01*
X148060000Y-113080000D02*
X150060000Y-113080000D01*
X143360000Y-106780000D02*
X147960000Y-106780000D01*
X143360000Y-104780000D02*
X147960000Y-104780000D01*
X143360000Y-106780000D02*
X143360000Y-104780000D01*
X147960000Y-106780000D02*
X147960000Y-104780000D01*
X153260000Y-111280000D02*
X153260000Y-115880000D01*
X155260000Y-111280000D02*
X155260000Y-115880000D01*
X153260000Y-111280000D02*
X155260000Y-111280000D01*
X153260000Y-115880000D02*
X155260000Y-115880000D01*
M02*
