G04 #@! TF.FileFunction,Soldermask,Bot*
%FSLAX46Y46*%
G04 Gerber Fmt 4.6, Leading zero omitted, Abs format (unit mm)*
G04 Created by KiCad (PCBNEW 4.0.5) date Thu Feb  9 17:30:12 2017*
%MOMM*%
%LPD*%
G01*
G04 APERTURE LIST*
%ADD10C,0.100000*%
%ADD11C,4.464000*%
%ADD12R,2.150000X2.150000*%
%ADD13C,2.150000*%
%ADD14R,1.650000X1.900000*%
%ADD15R,1.900000X1.650000*%
%ADD16R,2.432000X2.127200*%
%ADD17O,2.432000X2.127200*%
%ADD18R,2.127200X2.432000*%
%ADD19O,2.127200X2.432000*%
%ADD20R,1.700000X1.900000*%
%ADD21R,4.057600X2.432000*%
%ADD22R,1.416000X2.432000*%
G04 APERTURE END LIST*
D10*
D11*
X171000000Y-89000000D03*
X129000000Y-89000000D03*
X129000000Y-131000000D03*
X171000000Y-131000000D03*
D12*
X164660000Y-121780000D03*
D13*
X162160000Y-121780000D03*
X159660000Y-121780000D03*
X157160000Y-121780000D03*
D14*
X152160000Y-123230000D03*
X152160000Y-125730000D03*
D15*
X147380000Y-120510000D03*
X144880000Y-120510000D03*
D14*
X141160000Y-123230000D03*
X141160000Y-125730000D03*
D15*
X136410000Y-120530000D03*
X133910000Y-120530000D03*
D12*
X130160000Y-104780000D03*
D13*
X130160000Y-102280000D03*
X130160000Y-99780000D03*
X130160000Y-97280000D03*
X130160000Y-94780000D03*
D16*
X130160000Y-110240000D03*
D17*
X130160000Y-112780000D03*
X130160000Y-115320000D03*
D12*
X169660000Y-94780000D03*
D13*
X169660000Y-97280000D03*
X169660000Y-99780000D03*
X169660000Y-102280000D03*
X169660000Y-104780000D03*
D16*
X169660000Y-110240000D03*
D17*
X169660000Y-112780000D03*
X169660000Y-115320000D03*
D16*
X162660000Y-90240000D03*
D17*
X162660000Y-92780000D03*
X162660000Y-95320000D03*
X162660000Y-97860000D03*
X162660000Y-100400000D03*
X162660000Y-102940000D03*
D12*
X164660000Y-129780000D03*
D13*
X162160000Y-129780000D03*
X159660000Y-129780000D03*
X157160000Y-129780000D03*
D18*
X139120000Y-90280000D03*
D19*
X141660000Y-90280000D03*
X144200000Y-90280000D03*
D18*
X151620000Y-90280000D03*
D19*
X154160000Y-90280000D03*
X156700000Y-90280000D03*
D20*
X135256106Y-111137512D03*
X135256106Y-108437512D03*
X137413572Y-111137512D03*
X137413572Y-108437512D03*
X147660000Y-98530000D03*
X147660000Y-101230000D03*
X145660000Y-101230000D03*
X145660000Y-98530000D03*
D21*
X147374000Y-129843112D03*
D22*
X147374000Y-123239112D03*
X149660000Y-123239112D03*
X145088000Y-123239112D03*
D21*
X136370000Y-129851112D03*
D22*
X136370000Y-123247112D03*
X138656000Y-123247112D03*
X134084000Y-123247112D03*
D15*
X145310000Y-111780000D03*
X142810000Y-111780000D03*
X145310000Y-114280000D03*
X142810000Y-114280000D03*
D14*
X149060000Y-109530000D03*
X149060000Y-112030000D03*
D15*
X144410000Y-105780000D03*
X146910000Y-105780000D03*
D14*
X154260000Y-112330000D03*
X154260000Y-114830000D03*
M02*
